<?xml version="1.0" encoding="UTF-8"?>
<svg id="Layer_1" data-name="Layer 1" xmlns="http://www.w3.org/2000/svg" xmlns:xlink="http://www.w3.org/1999/xlink" viewBox="0 0 75.22 75">
  <defs>
    <style>
      .cls-1 {
        fill: url(#Bronze-2);
      }

      .cls-2 {
        fill: url(#Bronze-4);
      }

      .cls-3 {
        fill: url(#Bronze-3);
      }

      .cls-4 {
        fill: url(#Bronze-6);
      }

      .cls-5 {
        fill: url(#Bronze-8);
      }

      .cls-6 {
        fill: url(#Bronze-9);
      }

      .cls-7 {
        fill: url(#Bronze-5);
      }

      .cls-8 {
        fill: url(#Bronze-11);
      }

      .cls-9 {
        fill: url(#Bronze);
      }

      .cls-10 {
        fill: url(#Bronze-7);
      }

      .cls-11 {
        fill: url(#Bronze-12);
      }

      .cls-12 {
        fill: url(#Bronze-10);
      }
    </style>
    <linearGradient id="Bronze" x1="-29.49" y1="61.13" x2="71.62" y2="-12.4" gradientUnits="userSpaceOnUse">
      <stop offset="0" stop-color="#401617"/>
      <stop offset=".08" stop-color="#6b4c2d"/>
      <stop offset=".38" stop-color="#a58a55"/>
      <stop offset=".56" stop-color="#e5d4b5"/>
      <stop offset=".8" stop-color="#987a59"/>
      <stop offset=".8" stop-color="#967857"/>
      <stop offset=".96" stop-color="#814f2f"/>
    </linearGradient>
    <linearGradient id="Bronze-2" data-name="Bronze" x1="-22.45" y1="70.8" x2="78.65" y2="-2.73" xlink:href="#Bronze"/>
    <linearGradient id="Bronze-3" data-name="Bronze" x1="-38.38" y1="48.91" x2="62.73" y2="-24.62" xlink:href="#Bronze"/>
    <linearGradient id="Bronze-4" data-name="Bronze" x1="-37" y1="50.8" x2="64.11" y2="-22.73" xlink:href="#Bronze"/>
    <linearGradient id="Bronze-5" data-name="Bronze" x1="-41.31" y1="44.88" x2="59.8" y2="-28.65" xlink:href="#Bronze"/>
    <linearGradient id="Bronze-6" data-name="Bronze" x1="-36.74" y1="51.16" x2="64.37" y2="-22.37" xlink:href="#Bronze"/>
    <linearGradient id="Bronze-7" data-name="Bronze" x1="-30.19" y1="60.16" x2="70.92" y2="-13.37" xlink:href="#Bronze"/>
    <linearGradient id="Bronze-8" data-name="Bronze" x1="-12.84" y1="84.03" x2="88.27" y2="10.49" xlink:href="#Bronze"/>
    <linearGradient id="Bronze-9" data-name="Bronze" x1="-6.69" y1="92.47" x2="94.41" y2="18.94" xlink:href="#Bronze"/>
    <linearGradient id="Bronze-10" data-name="Bronze" x1="-17.19" y1="78.04" x2="83.91" y2="4.5" xlink:href="#Bronze"/>
    <linearGradient id="Bronze-11" data-name="Bronze" x1="-27.3" y1="64.14" x2="73.81" y2="-9.39" gradientTransform="translate(25.61 -10.74) rotate(45)" xlink:href="#Bronze"/>
    <linearGradient id="Bronze-12" data-name="Bronze" x1="17.25" y1="32.87" x2="26.04" y2="26.47" xlink:href="#Bronze"/>
  </defs>
  <g id="champagne">
    <path class="cls-9" d="M32.93,12.42v1.12h-1.16c-.69,0-1.26,.56-1.26,1.26s.56,1.26,1.26,1.26h1.16v1.16c0,.69,.56,1.26,1.26,1.26s1.26-.56,1.26-1.26v-1.16h1.12c.69,0,1.26-.56,1.26-1.26s-.56-1.26-1.26-1.26h-1.12s0-1.12,0-1.12c0-.69-.56-1.26-1.26-1.26s-1.26,.56-1.26,1.26Z"/>
    <path class="cls-1" d="M18.23,37.91v1.12h-1.16c-.69,0-1.26,.56-1.26,1.26,0,.69,.56,1.26,1.26,1.26h1.16v1.16c0,.7,.56,1.26,1.26,1.26s1.26-.56,1.26-1.26v-1.16h1.12c.7,0,1.26-.56,1.26-1.26s-.56-1.26-1.26-1.26h-1.12v-1.12c0-.69-.56-1.26-1.26-1.26s-1.26,.56-1.26,1.26Z"/>
    <path class="cls-3" d="M20.76,13.93c0,.32-.12,.64-.37,.89-.49,.49-1.29,.49-1.78,0C14.48,10.69,12.22,4.62,16.47,.37c.49-.49,1.29-.49,1.78,0,.49,.49,.49,1.29,0,1.78-4.32,4.32,1.88,10.63,2.15,10.89,.25,.25,.37,.57,.37,.89Z"/>
    <path class="cls-2" d="M15.19,19.51c0,.32-.12,.64-.37,.89-.49,.49-1.29,.49-1.78,0-.27-.27-6.57-6.47-10.89-2.15-.49,.49-1.29,.49-1.78,0-.49-.49-.49-1.29,0-1.78,4.25-4.25,10.32-1.98,14.45,2.15,.25,.24,.37,.57,.37,.89Z"/>
    <path class="cls-7" d="M12.21,10.73c0,.32-.12,.64-.37,.89-.49,.49-1.29,.49-1.78,0L5.59,7.15c-.49-.49-.49-1.29,0-1.78s1.29-.49,1.78,0l4.47,4.47c.25,.25,.37,.57,.37,.89Z"/>
    <path class="cls-4" d="M26.08,4.98c1.01,1.01,1.01,2.65,0,3.67-1.01,1.01-2.65,1.01-3.66,0-1.01-1.01-1.01-2.65,0-3.67,1.01-1.01,2.65-1.01,3.66,0Z"/>
    <path class="cls-10" d="M14.04,27.5c1.01,1.01,1.01,2.65,0,3.67-1.01,1.01-2.65,1.01-3.67,0-1.01-1.01-1.01-2.65,0-3.67,1.01-1.01,2.65-1.01,3.66,0Z"/>
    <path class="cls-5" d="M75.22,57.15c0,1.04-.4,2.01-1.14,2.74l-13.97,13.97c-1.51,1.51-3.97,1.51-5.49,0l-20.91-20.91c-1.38-1.38-2.34-3.11-2.8-5l-2.62-10.94c-.15-.6-.46-1.16-.9-1.6l-9.99-9.99c-.61-.61-1.45-1.45-1.45-2.68,0-.93,.46-1.82,1.45-2.81l2.75-2.75c2.75-2.75,4.6-.89,5.49,0l9.99,9.99c.44,.44,1,.75,1.6,.9l10.94,2.62c1.89,.45,3.62,1.42,5,2.8l20.9,20.91c.73,.73,1.14,1.71,1.14,2.74ZM18.47,22.75c0,.19,.48,.67,.71,.9l9.99,10c.77,.77,1.31,1.73,1.57,2.79l2.62,10.94c.35,1.44,1.08,2.76,2.13,3.81l20.91,20.9c.53,.53,1.4,.53,1.93,0l13.97-13.97c.52-.52,.52-1.41,0-1.93l-20.9-20.91c-1.05-1.05-2.37-1.79-3.81-2.13l-10.94-2.62c-1.06-.25-2.02-.79-2.8-1.57l-9.99-9.99c-.93-.93-.97-.97-1.93,0l-2.75,2.75c-.69,.69-.71,1-.71,1.03Z"/>
    <polygon class="cls-6" points="55.34 39.21 61.86 45.73 53.56 37.44 37.66 53.34 48.14 63.82 64.04 47.91 62.26 46.14 46.36 62.04 39.43 55.12 55.34 39.21"/>
    <path class="cls-12" d="M35.39,40.76l4.22-.16s.05,0,.08-.01c.04,0,.08,0,.12-.02,.04,0,.08-.02,.12-.03,.04-.01,.08-.02,.11-.04,.04-.02,.08-.04,.11-.06,.03-.02,.07-.04,.1-.06,.04-.02,.07-.05,.1-.08,.03-.02,.06-.05,.09-.07,.03-.03,.06-.06,.08-.09,.02-.03,.05-.06,.07-.09,.02-.03,.04-.07,.06-.11,.02-.03,.04-.07,.05-.1,.02-.04,.03-.08,.04-.12,.01-.04,.02-.07,.03-.11,0-.04,.01-.09,.02-.14,0-.03,.01-.06,.01-.09l.16-4.22,2.91-2.91-2.87-.69-2.17,2.17c-.22,.22-.36,.52-.37,.84l-.14,3.55-3.55,.14c-.32,.01-.62,.14-.84,.37l-2.17,2.17,.69,2.87,2.91-2.91Z"/>
    <g>
      <rect class="cls-8" x="22.46" y="24.29" width="6.63" height="2.51" transform="translate(-10.52 25.7) rotate(-45)"/>
      <polygon class="cls-11" points="21.65 29.67 21.65 29.67 21.65 29.67 21.65 29.67"/>
    </g>
  </g>
</svg>