<?xml version="1.0" encoding="UTF-8"?>
<svg id="Layer_1" data-name="Layer 1" xmlns="http://www.w3.org/2000/svg" xmlns:xlink="http://www.w3.org/1999/xlink" viewBox="0 0 46.79 66.82">
  <defs>
    <style>
      .cls-1 {
        fill: url(#Bronze);
      }
    </style>
    <linearGradient id="Bronze" x1="0" y1="33.41" x2="46.79" y2="33.41" gradientUnits="userSpaceOnUse">
      <stop offset="0" stop-color="#401617"/>
      <stop offset=".08" stop-color="#6b4c2d"/>
      <stop offset=".38" stop-color="#a58a55"/>
      <stop offset=".56" stop-color="#e5d4b5"/>
      <stop offset=".8" stop-color="#987a59"/>
      <stop offset=".8" stop-color="#967857"/>
      <stop offset=".96" stop-color="#814f2f"/>
    </linearGradient>
  </defs>
  <path class="cls-1" d="M46.04,63.45c-.97-.64-1.91-1.32-2.75-2.16-6.99-6.97-12.4-15.04-16.65-23.92-1.08-2.27-.92-4.5-.14-6.79,.44-1.27,1.15-2.37,1.96-3.39,3.04-3.83,5.45-8.09,8.44-11.96,.58-.75,1.02-1.61,1.27-2.53,.31-1.18-.16-2.72-1.24-3.39-1.85-1.15-4.11,1.26-4.28,2.99-.11,1.14,.15,2.29,.33,3.41,.2,1.19-.45,2.78-.97,3.84-.56,1.16-1.52,2.08-2.28,3.1-.45,.6-1.85,2.64-2.5,3.06,.28-1.58,2.23-9.21,2.47-11.66,.23-2.42,.18-4.85,1.09-7.16,.46-1.16,.54-2.42,.58-3.66,.05-1.71-1.06-3.01-2.65-3.21-1.9-.24-2.83,1.59-3.05,3.21-.1,.78-.15,1.71,.25,2.41,.55,.96,.86,1.81,1.26,2.82,.5,1.26,.73,2.61,.56,3.96-.35,2.75-.48,5.53-1.16,8.23-.48,1.93-.91,6.05-2.18,7.7-.4-.32-.48-1.49-.58-1.93-.29-1.37-.5-2.76-.65-4.16-.17-1.59-.26-3.19-.19-4.79,.12-2.55,1.35-4.61,1.04-7.18-.17-1.39-1.08-2.34-2.17-2.37-.92-.02-1.79,.72-2.2,1.49-.81,1.52,.14,3.88,.54,5.4,.63,2.38,.94,4.82,1.28,7.25,.23,1.66,1.01,5.2,.54,7.1-1.85-3.51-3.16-8.95-4.37-12.45-.61-1.78-.85-3.45-.32-5.32,.67-2.33,.33-4.64-1-6.72-.83-1.29-2.49-1.51-3.44-.26-.77,1-.97,2.6-.79,3.82,.26,1.77,1.15,3.43,2.16,4.88,.76,1.09,1.4,2.24,1.72,3.52,.54,2.12,1.2,4.2,1.89,6.28,.55,1.66,2.15,5.55,2.69,7.36-2.59-1.94-4.62-5.55-5.28-6.47-1.42-1.98-3.12-3.9-3.79-6.29-.32-1.14-.03-2.19-.24-3.35-.2-1.15-.77-2.19-1.47-3.12-.89-1.18-2.44-1.82-3.74-.87-.79,.58-1.1,1.38-1.13,2.34-.05,1.98,1.55,3.94,3.04,5.03,.39,.29,.87,.53,1.22,.86,1.69,1.59,2.74,3.88,3.99,5.82,.72,1.11,1.45,2.2,2.2,3.29,.31,.46,1.87,3.35,2.33,3.37-3.14-.15-5.65-1.11-7.96-2.49-1.4-.84-2.73-1.91-2.94-3.85-.14-1.25-1.16-3.4-2.42-3.84-4.19-1.46-5.74,3.84-2.97,6.33,2.47,2.22,6.02,2.57,8.98,3.81,2.72,1.14,5.53,1.64,8.33,2.55,3.08,1,4.78,3.49,6.22,6.14,2.92,5.39,6.08,10.63,9.34,15.83,2.46,3.92,5.3,7.48,8.8,10.5,1.63,1.41,2.23,1.32,3.38-.43,.58-.87,.45-1.42-.4-1.97ZM35.41,11.6c.33,1.37,.13,1.91-1.34,3.35,.26-1.19,.26-2.47,1.34-3.35ZM28.85,2.02c.55-.22,.51,.21,.56,.71,.06,.59,.39,3.28-.44,3.42-.07,.01-.14,0-.2-.01-.53-.17-.61-1.48-.61-1.88,0-.55,0-1.96,.69-2.24ZM15.8,11.15c-.49-1.64-.87-3.21-.77-5.22,1.68,1.81,1.26,3.54,.77,5.22Zm-8.32,.39c1.63,.93,2.14,2.02,2.11,3.95-.79-1.47-1.35-2.53-2.11-3.95Zm-2.97,13.87c-.56-.44-.96-1.25-1.35-1.88-.35-.57-.87-1.59,.07-1.06,.7,.4,1.31,1.57,1.71,2.33,.36,.69,.58,1.41-.43,.61ZM22.16,13.55c-.18-.01-.28-.48-.32-.62-.15-.5-.34-2.26-.23-2.58,.17-.49,.45-.64,.67-.06,.14,.35,.49,3.3-.12,3.26Z"/>
</svg>