<?xml version="1.0" encoding="UTF-8"?>
<svg id="Layer_1" data-name="Layer 1" xmlns="http://www.w3.org/2000/svg" xmlns:xlink="http://www.w3.org/1999/xlink" viewBox="0 0 46.79 66.82">
  <defs>
    <style>
      .cls-1 {
        fill: url(#Bronze);
      }
    </style>
    <linearGradient id="Bronze" x1="0" y1="33.41" x2="46.79" y2="33.41" gradientUnits="userSpaceOnUse">
      <stop offset="0" stop-color="#401617"/>
      <stop offset=".08" stop-color="#6b4c2d"/>
      <stop offset=".38" stop-color="#a58a55"/>
      <stop offset=".56" stop-color="#e5d4b5"/>
      <stop offset=".8" stop-color="#987a59"/>
      <stop offset=".8" stop-color="#967857"/>
      <stop offset=".96" stop-color="#814f2f"/>
    </linearGradient>
  </defs>
  <path class="cls-1" d="M.35,65.42c1.15,1.75,1.75,1.84,3.38,.43,3.5-3.03,6.34-6.58,8.8-10.5,3.25-5.2,6.42-10.44,9.34-15.83,1.44-2.65,3.14-5.14,6.22-6.14,2.8-.91,5.6-1.41,8.33-2.55,2.96-1.24,6.51-1.59,8.98-3.81,2.78-2.49,1.22-7.79-2.97-6.33-1.25,.44-2.28,2.59-2.42,3.84-.21,1.94-1.54,3.01-2.94,3.85-2.31,1.38-4.82,2.34-7.96,2.49,.46-.02,2.02-2.91,2.33-3.37,.74-1.09,1.48-2.18,2.2-3.29,1.26-1.94,2.3-4.23,3.99-5.82,.35-.33,.84-.58,1.22-.86,1.48-1.1,3.09-3.06,3.04-5.03-.03-.96-.33-1.76-1.13-2.34-1.3-.95-2.85-.31-3.74,.87-.7,.92-1.27,1.97-1.47,3.12-.2,1.16,.09,2.21-.24,3.35-.68,2.39-2.37,4.32-3.79,6.29-.66,.92-2.69,4.53-5.28,6.47,.54-1.81,2.14-5.69,2.69-7.36,.68-2.08,1.35-4.16,1.89-6.28,.33-1.28,.96-2.43,1.72-3.52,1.01-1.45,1.89-3.12,2.16-4.88,.18-1.22-.03-2.81-.79-3.82-.95-1.25-2.62-1.03-3.44,.26-1.33,2.08-1.67,4.39-1,6.72,.54,1.87,.3,3.54-.32,5.32-1.2,3.5-2.51,8.94-4.37,12.45-.47-1.9,.31-5.44,.54-7.1,.34-2.43,.65-4.88,1.28-7.25,.4-1.51,1.35-3.87,.54-5.4-.41-.77-1.28-1.52-2.2-1.49-1.09,.03-2,.98-2.17,2.37-.31,2.57,.91,4.63,1.04,7.18,.08,1.6-.02,3.2-.19,4.79-.15,1.39-.35,2.79-.65,4.16-.1,.45-.18,1.62-.58,1.93-1.27-1.65-1.7-5.78-2.18-7.7-.68-2.7-.81-5.48-1.16-8.23-.17-1.35,.05-2.7,.56-3.96,.4-1.01,.71-1.86,1.26-2.82,.4-.7,.35-1.63,.25-2.41-.22-1.61-1.14-3.45-3.05-3.21-1.59,.2-2.7,1.5-2.65,3.21,.04,1.24,.12,2.51,.58,3.66,.91,2.31,.85,4.74,1.09,7.16,.24,2.45,2.19,10.08,2.47,11.66-.64-.42-2.05-2.46-2.5-3.06-.77-1.02-1.72-1.94-2.28-3.1-.52-1.06-1.16-2.66-.97-3.84,.18-1.12,.44-2.27,.33-3.41-.16-1.73-2.42-4.13-4.28-2.99-1.08,.67-1.55,2.21-1.24,3.39,.24,.92,.69,1.78,1.27,2.53,2.99,3.86,5.4,8.13,8.44,11.96,.81,1.02,1.52,2.12,1.96,3.39,.79,2.29,.95,4.52-.14,6.79-4.25,8.88-9.66,16.95-16.65,23.92-.84,.84-1.77,1.52-2.75,2.16-.84,.55-.97,1.1-.4,1.97ZM12.72,14.95c-1.47-1.45-1.67-1.98-1.34-3.35,1.08,.88,1.08,2.16,1.34,3.35Zm5.9-10.69c0,.4-.08,1.71-.61,1.88-.06,.02-.13,.02-.2,.01-.83-.14-.5-2.83-.44-3.42,.05-.5,.01-.93,.56-.71,.69,.28,.69,1.68,.69,2.24Zm13.13,1.67c.1,2.01-.28,3.58-.77,5.22-.49-1.67-.91-3.41,.77-5.22Zm5.44,9.56c-.03-1.93,.48-3.02,2.11-3.95-.76,1.42-1.32,2.48-2.11,3.95Zm4.66,9.32c.4-.76,1.01-1.93,1.71-2.33,.94-.53,.42,.49,.07,1.06-.39,.63-.79,1.44-1.35,1.88-1.01,.8-.79,.08-.43-.61ZM24.51,10.28c.22-.57,.5-.43,.67,.06,.11,.32-.09,2.07-.23,2.58-.04,.15-.14,.61-.32,.62-.6,.04-.25-2.91-.12-3.26Z"/>
</svg>