<?xml version="1.0" encoding="UTF-8"?>
<svg id="Layer_1" data-name="Layer 1" xmlns="http://www.w3.org/2000/svg" xmlns:xlink="http://www.w3.org/1999/xlink" viewBox="0 0 102.99 100">
  <defs>
    <style>
      .cls-1 {
        fill: url(#Bronze-2);
      }

      .cls-2 {
        fill: url(#Bronze-4);
      }

      .cls-3 {
        fill: url(#Bronze-3);
      }

      .cls-4 {
        fill: url(#Bronze-5);
      }

      .cls-5 {
        fill: url(#Bronze);
      }
    </style>
    <linearGradient id="Bronze" x1="-30.1" y1="44.4" x2="84.79" y2="-10.75" gradientUnits="userSpaceOnUse">
      <stop offset="0" stop-color="#401617"/>
      <stop offset=".08" stop-color="#6b4c2d"/>
      <stop offset=".38" stop-color="#a58a55"/>
      <stop offset=".56" stop-color="#e5d4b5"/>
      <stop offset=".8" stop-color="#987a59"/>
      <stop offset=".8" stop-color="#967857"/>
      <stop offset=".96" stop-color="#814f2f"/>
    </linearGradient>
    <linearGradient id="Bronze-2" data-name="Bronze" x1="-4.53" y1="97.67" x2="110.36" y2="42.52" xlink:href="#Bronze"/>
    <linearGradient id="Bronze-3" data-name="Bronze" x1="-4.53" y1="97.67" x2="110.36" y2="42.53" xlink:href="#Bronze"/>
    <linearGradient id="Bronze-4" data-name="Bronze" x1="-11.78" y1="82.57" x2="103.12" y2="27.43" xlink:href="#Bronze"/>
    <linearGradient id="Bronze-5" data-name="Bronze" x1="-11.9" y1="82.32" x2="102.99" y2="27.17" xlink:href="#Bronze"/>
  </defs>
  <g id="rings">
    <path class="cls-5" d="M38.44,27.66c-.24,0-.48-.05-.71-.15-6.6-3.02-15.75-11.27-15.75-18.9C21.98,2.67,26.68,0,30.02,0c2.7,0,6.32,1.35,8.42,3.59,2.1-2.25,5.72-3.59,8.42-3.59,3.34,0,8.05,2.67,8.05,8.61,0,7.63-9.15,15.87-15.75,18.9-.22,.1-.47,.15-.71,.15ZM30.02,3.4s-4.64,.22-4.64,5.2c0,5.56,7.49,12.62,13.06,15.46,5.56-2.84,13.06-9.9,13.06-15.46,0-4.98-4.6-5.2-4.64-5.2-2.95,0-6.71,2.31-6.71,4.12,0,.94-.76,1.7-1.7,1.7s-1.7-.76-1.7-1.7c0-1.81-3.77-4.12-6.71-4.12Z"/>
    <path class="cls-1" d="M66.54,34.91c-2.35,0-4.69,.29-6.95,.85-1.91,.48-3.78,1.15-5.55,2.02-1.2,.58-2.34,1.24-3.42,1.96,.85,.79,1.65,1.63,2.41,2.51,.8-.51,1.63-.99,2.5-1.41,1.56-.76,3.2-1.36,4.89-1.77,1.99-.5,4.06-.75,6.13-.75,13.92,0,25.24,11.32,25.24,25.24s-11.32,25.24-25.24,25.24-25.24-11.32-25.24-25.24c0-1.64,.16-3.26,.46-4.82-.8-1.63-1.64-2.91-2.5-3.92-.88,2.77-1.36,5.71-1.36,8.74,0,15.79,12.85,28.65,28.65,28.65s28.65-12.85,28.65-28.65-12.85-28.65-28.65-28.65Z"/>
    <path class="cls-3" d="M66.54,27.11c-8.51,0-16.33,2.94-22.54,7.84,1.07,.59,2.1,1.22,3.09,1.92,5.46-3.99,12.18-6.35,19.45-6.35,18.22,0,33.04,14.82,33.04,33.04s-14.82,33.04-33.04,33.04-33.04-14.82-33.04-33.04c0-4.1,.77-8.03,2.15-11.65-1.07-.57-2.13-.94-3.16-1.28-1.54,4.02-2.4,8.38-2.4,12.94,0,20.1,16.35,36.45,36.45,36.45s36.45-16.35,36.45-36.45-16.35-36.45-36.45-36.45Z"/>
    <path class="cls-2" d="M28.36,35.19C12.72,35.19,0,47.92,0,63.55s12.72,28.36,28.36,28.36c2.64,0,5.2-.38,7.62-1.06-.46-.6-.97-1.24-1.52-1.92-.27-.33-.53-.67-.79-1.01-1.71,.38-3.49,.58-5.31,.58-13.76,0-24.96-11.2-24.96-24.96s11.2-24.96,24.96-24.96,24.96,11.2,24.96,24.96c0,4.54-1.22,8.79-3.35,12.46,.89,.91,1.8,1.59,2.7,2.12,2.57-4.26,4.05-9.25,4.05-14.58,0-15.64-12.72-28.36-28.36-28.36Z"/>
    <path class="cls-4" d="M28.36,42.61c-11.55,0-20.94,9.4-20.94,20.94s9.4,20.94,20.94,20.94c.96,0,1.9-.07,2.82-.2-.64-1.05-1.23-2.13-1.77-3.24-.35,.02-.7,.03-1.05,.03-9.67,0-17.54-7.87-17.54-17.54s7.87-17.54,17.54-17.54,17.54,7.87,17.54,17.54c0,1.52-.21,2.99-.58,4.39,.63,1.75,1.3,3.22,2.01,4.47,1.26-2.69,1.97-5.69,1.97-8.86,0-11.55-9.4-20.94-20.94-20.94Z"/>
  </g>
</svg>