<?xml version="1.0" encoding="UTF-8"?>
<svg id="Layer_1" data-name="Layer 1" xmlns="http://www.w3.org/2000/svg" xmlns:xlink="http://www.w3.org/1999/xlink" viewBox="0 0 547.25 124.16">
  <defs>
    <style>
      .cls-1 {
        fill: url(#Bronze-2);
      }

      .cls-2 {
        fill: url(#Bronze-24);
      }

      .cls-3 {
        fill: url(#Bronze-4);
      }

      .cls-4 {
        fill: url(#Bronze-39);
      }

      .cls-5 {
        fill: url(#Bronze-3);
      }

      .cls-6 {
        fill: url(#Bronze-27);
      }

      .cls-7 {
        fill: url(#Bronze-6);
      }

      .cls-8 {
        fill: url(#Bronze-40);
      }

      .cls-9 {
        fill: url(#Bronze-16);
      }

      .cls-10 {
        fill: url(#Bronze-32);
      }

      .cls-11 {
        fill: url(#Bronze-22);
      }

      .cls-12 {
        fill: url(#Bronze-8);
      }

      .cls-13 {
        fill: url(#Bronze-38);
      }

      .cls-14 {
        fill: url(#Bronze-31);
      }

      .cls-15 {
        fill: url(#Bronze-34);
      }

      .cls-16 {
        fill: url(#Bronze-15);
      }

      .cls-17 {
        fill: url(#Bronze-42);
      }

      .cls-18 {
        fill: url(#Bronze-41);
      }

      .cls-19 {
        fill: url(#Bronze-37);
      }

      .cls-20 {
        fill: url(#Bronze-25);
      }

      .cls-21 {
        fill: url(#Bronze-33);
      }

      .cls-22 {
        fill: url(#Bronze-29);
      }

      .cls-23 {
        fill: url(#Bronze-9);
      }

      .cls-24 {
        fill: url(#Bronze-19);
      }

      .cls-25 {
        fill: url(#Bronze-5);
      }

      .cls-26 {
        fill: url(#Bronze-11);
      }

      .cls-27 {
        fill: url(#Bronze-43);
      }

      .cls-28 {
        fill: url(#Bronze);
      }

      .cls-29 {
        fill: url(#Bronze-35);
      }

      .cls-30 {
        fill: url(#Bronze-23);
      }

      .cls-31 {
        fill: url(#Bronze-26);
      }

      .cls-32 {
        fill: url(#Bronze-7);
      }

      .cls-33 {
        fill: url(#Bronze-18);
      }

      .cls-34 {
        fill: url(#Bronze-14);
      }

      .cls-35 {
        fill: url(#Bronze-28);
      }

      .cls-36 {
        fill: url(#Bronze-30);
      }

      .cls-37 {
        fill: url(#Bronze-21);
      }

      .cls-38 {
        fill: url(#Bronze-17);
      }

      .cls-39 {
        fill: url(#Bronze-36);
      }

      .cls-40 {
        fill: url(#Bronze-12);
      }

      .cls-41 {
        fill: url(#Bronze-10);
      }

      .cls-42 {
        fill: url(#Bronze-20);
      }

      .cls-43 {
        fill: url(#Bronze-13);
      }
    </style>
    <linearGradient id="Bronze" x1="-43.68" y1="23.95" x2="562.96" y2="37.74" gradientUnits="userSpaceOnUse">
      <stop offset="0" stop-color="#401617"/>
      <stop offset=".08" stop-color="#6b4c2d"/>
      <stop offset=".38" stop-color="#a58a55"/>
      <stop offset=".56" stop-color="#e5d4b5"/>
      <stop offset=".8" stop-color="#987a59"/>
      <stop offset=".8" stop-color="#967857"/>
      <stop offset=".96" stop-color="#814f2f"/>
    </linearGradient>
    <linearGradient id="Bronze-2" data-name="Bronze" x1="-43.74" y1="26.68" x2="562.89" y2="40.46" xlink:href="#Bronze"/>
    <linearGradient id="Bronze-3" data-name="Bronze" x1="-43.92" y1="34.33" x2="562.72" y2="48.12" xlink:href="#Bronze"/>
    <linearGradient id="Bronze-4" data-name="Bronze" x1="-43.91" y1="33.82" x2="562.73" y2="47.61" xlink:href="#Bronze"/>
    <linearGradient id="Bronze-5" data-name="Bronze" x1="-43.91" y1="34.14" x2="562.72" y2="47.93" xlink:href="#Bronze"/>
    <linearGradient id="Bronze-6" data-name="Bronze" x1="-43.79" y1="28.71" x2="562.85" y2="42.5" xlink:href="#Bronze"/>
    <linearGradient id="Bronze-7" data-name="Bronze" x1="-43.9" y1="33.33" x2="562.74" y2="47.12" xlink:href="#Bronze"/>
    <linearGradient id="Bronze-8" data-name="Bronze" x1="-43.87" y1="32.1" x2="562.77" y2="45.89" xlink:href="#Bronze"/>
    <linearGradient id="Bronze-9" data-name="Bronze" x1="-43.84" y1="30.98" x2="562.8" y2="44.77" xlink:href="#Bronze"/>
    <linearGradient id="Bronze-10" data-name="Bronze" x1="-43.84" y1="30.78" x2="562.8" y2="44.57" xlink:href="#Bronze"/>
    <linearGradient id="Bronze-11" data-name="Bronze" x1="-43.64" y1="22.16" x2="563" y2="35.94" xlink:href="#Bronze"/>
    <linearGradient id="Bronze-12" data-name="Bronze" x1="-43.63" y1="21.62" x2="563.01" y2="35.4" xlink:href="#Bronze"/>
    <linearGradient id="Bronze-13" data-name="Bronze" x1="-43.74" y1="26.66" x2="562.89" y2="40.45" xlink:href="#Bronze"/>
    <linearGradient id="Bronze-14" data-name="Bronze" x1="-43.67" y1="23.18" x2="562.97" y2="36.96" xlink:href="#Bronze"/>
    <linearGradient id="Bronze-15" data-name="Bronze" x1="-43.8" y1="29.12" x2="562.84" y2="42.91" xlink:href="#Bronze"/>
    <linearGradient id="Bronze-16" data-name="Bronze" x1="-43.63" y1="21.65" x2="563.01" y2="35.44" xlink:href="#Bronze"/>
    <linearGradient id="Bronze-17" data-name="Bronze" x1="-43.73" y1="26.04" x2="562.91" y2="39.83" xlink:href="#Bronze"/>
    <linearGradient id="Bronze-18" data-name="Bronze" x1="-43.55" y1="18.29" x2="563.08" y2="32.08" xlink:href="#Bronze"/>
    <linearGradient id="Bronze-19" data-name="Bronze" x1="-43.73" y1="26.15" x2="562.91" y2="39.93" xlink:href="#Bronze"/>
    <linearGradient id="Bronze-20" data-name="Bronze" x1="-43.9" y1="33.69" x2="562.73" y2="47.48" xlink:href="#Bronze"/>
    <linearGradient id="Bronze-21" data-name="Bronze" x1="-43.7" y1="24.9" x2="562.93" y2="38.68" xlink:href="#Bronze"/>
    <linearGradient id="Bronze-22" data-name="Bronze" x1="-43.72" y1="25.44" x2="562.92" y2="39.23" xlink:href="#Bronze"/>
    <linearGradient id="Bronze-23" data-name="Bronze" x1="-43.69" y1="24.06" x2="562.95" y2="37.84" xlink:href="#Bronze"/>
    <linearGradient id="Bronze-24" data-name="Bronze" x1="-45.19" y1="90.19" x2="561.45" y2="103.98" xlink:href="#Bronze"/>
    <linearGradient id="Bronze-25" data-name="Bronze" x1="-45.12" y1="87" x2="561.52" y2="100.79" xlink:href="#Bronze"/>
    <linearGradient id="Bronze-26" data-name="Bronze" x1="-45.01" y1="82.2" x2="561.63" y2="95.99" xlink:href="#Bronze"/>
    <linearGradient id="Bronze-27" data-name="Bronze" x1="-45.19" y1="90.21" x2="561.45" y2="103.99" xlink:href="#Bronze"/>
    <linearGradient id="Bronze-28" data-name="Bronze" x1="-45.1" y1="86.4" x2="561.54" y2="100.19" xlink:href="#Bronze"/>
    <linearGradient id="Bronze-29" data-name="Bronze" x1="-45.16" y1="88.93" x2="561.48" y2="102.72" xlink:href="#Bronze"/>
    <linearGradient id="Bronze-30" data-name="Bronze" x1="-45.15" y1="88.71" x2="561.48" y2="102.49" xlink:href="#Bronze"/>
    <linearGradient id="Bronze-31" data-name="Bronze" x1="-45.15" y1="88.35" x2="561.49" y2="102.13" xlink:href="#Bronze"/>
    <linearGradient id="Bronze-32" data-name="Bronze" x1="-45.07" y1="84.9" x2="561.57" y2="98.68" xlink:href="#Bronze"/>
    <linearGradient id="Bronze-33" data-name="Bronze" x1="-45.06" y1="84.54" x2="561.58" y2="98.33" xlink:href="#Bronze"/>
    <linearGradient id="Bronze-34" data-name="Bronze" x1="-45.12" y1="87.07" x2="561.52" y2="100.86" xlink:href="#Bronze"/>
    <linearGradient id="Bronze-35" data-name="Bronze" x1="-45.13" y1="87.49" x2="561.51" y2="101.28" xlink:href="#Bronze"/>
    <linearGradient id="Bronze-36" data-name="Bronze" x1="-45.1" y1="86.15" x2="561.54" y2="99.93" xlink:href="#Bronze"/>
    <linearGradient id="Bronze-37" data-name="Bronze" x1="-45.06" y1="84.44" x2="561.58" y2="98.23" xlink:href="#Bronze"/>
    <linearGradient id="Bronze-38" data-name="Bronze" x1="-45.22" y1="91.57" x2="561.42" y2="105.36" xlink:href="#Bronze"/>
    <linearGradient id="Bronze-39" data-name="Bronze" x1="-45.07" y1="84.79" x2="561.57" y2="98.58" xlink:href="#Bronze"/>
    <linearGradient id="Bronze-40" data-name="Bronze" x1="-45.07" y1="85.03" x2="561.57" y2="98.81" xlink:href="#Bronze"/>
    <linearGradient id="Bronze-41" data-name="Bronze" x1="-44.87" y1="76.17" x2="561.77" y2="89.96" xlink:href="#Bronze"/>
    <linearGradient id="Bronze-42" data-name="Bronze" x1="-45.04" y1="83.52" x2="561.6" y2="97.31" xlink:href="#Bronze"/>
    <linearGradient id="Bronze-43" data-name="Bronze" x1="-45" y1="81.81" x2="561.64" y2="95.6" xlink:href="#Bronze"/>
  </defs>
  <path class="cls-28" d="M18.24,51.18c-4.16,0-7.59-.56-10.29-1.68s-4.7-2.61-6-4.47c-1.3-1.86-1.95-3.85-1.95-5.97s.58-4.08,1.74-6.12c1.16-2.04,2.84-3.89,5.04-5.55,2.2-1.66,4.88-2.95,8.04-3.87,.8-.24,1.77-.46,2.91-.66,1.14-.2,2.19-.32,3.15-.36-1.12-.4-2.26-.96-3.42-1.68-1.16-.72-2.11-1.58-2.85-2.58-.74-1-1.07-2.08-.99-3.24,.16-1.84,.81-3.53,1.95-5.07,1.14-1.54,2.61-2.93,4.41-4.17,1.8-1.24,3.78-2.28,5.94-3.12,2.16-.84,4.35-1.49,6.57-1.95,2.22-.46,4.31-.69,6.27-.69,.44,0,.86,.01,1.26,.03,.4,.02,.78,.05,1.14,.09,3.24,.36,5.6,1.13,7.08,2.31,1.48,1.18,2.22,2.51,2.22,3.99,0,1.72-.93,3.42-2.79,5.1-1.86,1.68-4.43,2.88-7.71,3.6-.64,.12-1.14,.18-1.5,.18-.6,0-.9-.12-.9-.36,0-.12,.19-.3,.57-.54,.38-.24,.91-.38,1.59-.42,1.2-.12,2.35-.6,3.45-1.44,1.1-.84,2-1.85,2.7-3.03,.7-1.18,1.05-2.31,1.05-3.39s-.45-2.11-1.35-2.97c-.9-.86-2.45-1.39-4.65-1.59-.32-.04-.65-.07-.99-.09-.34-.02-.69-.03-1.05-.03-2.4,0-4.82,.34-7.26,1.02-2.44,.68-4.68,1.64-6.72,2.88-2.04,1.24-3.68,2.66-4.92,4.26-1.24,1.6-1.86,3.34-1.86,5.22,0,1.32,.33,2.38,.99,3.18,.66,.8,1.5,1.42,2.52,1.86,1.02,.44,2.09,.8,3.21,1.08,1.12,.28,2.17,.54,3.15,.78,.98,.24,1.75,.54,2.31,.9,.56,.36,.76,.88,.6,1.56-.16,.44-.52,.73-1.08,.87-.56,.14-1.3,.21-2.22,.21-.64,0-1.35,0-2.13-.03-.78-.02-1.61-.03-2.49-.03-1.24,0-2.53,.05-3.87,.15-1.34,.1-2.71,.35-4.11,.75-2.12,.6-3.99,1.61-5.61,3.03-1.62,1.42-2.88,3.04-3.78,4.86-.9,1.82-1.35,3.67-1.35,5.55s.48,3.48,1.44,5.04c.96,1.56,2.48,2.82,4.56,3.78,2.08,.96,4.82,1.44,8.22,1.44,3.12,0,6.14-.4,9.06-1.2,2.92-.8,5.62-1.83,8.1-3.09,2.48-1.26,4.6-2.57,6.36-3.93,1.44-1.16,2.61-2.34,3.51-3.54s1.35-2.24,1.35-3.12c0-.96-.54-1.56-1.62-1.8-.88-.24-1.32-.48-1.32-.72s.32-.36,.96-.36c.24,0,.5,.02,.78,.06,.28,.04,.56,.14,.84,.3,1.8,.88,2.7,2.12,2.7,3.72,0,2.28-1.62,4.68-4.86,7.2-1.96,1.56-4.35,2.93-7.17,4.11-2.82,1.18-5.86,2.1-9.12,2.76-3.26,.66-6.53,.99-9.81,.99Z"/>
  <path class="cls-1" d="M54.18,48c-1.68,0-2.82-.45-3.42-1.35s-.9-1.97-.9-3.21,.18-2.6,.54-3.96c.36-1.36,.68-2.5,.96-3.42,.64-2.24,1.45-4.63,2.43-7.17,.98-2.54,2.06-5.04,3.24-7.5,1.18-2.46,2.35-4.67,3.51-6.63,.92-1.56,1.91-2.73,2.97-3.51,1.06-.78,1.99-1.17,2.79-1.17,.64,0,1.15,.23,1.53,.69,.38,.46,.57,1.15,.57,2.07,0,.64-.11,1.4-.33,2.28-.22,.88-.59,1.88-1.11,3-1.4,3.12-3.07,6.24-5.01,9.36-1.94,3.12-4.39,6.04-7.35,8.76-.16,.52-.37,1.13-.63,1.83-.26,.7-.49,1.41-.69,2.13-.24,1.08-.36,2-.36,2.76,0,1.24,.25,2.17,.75,2.79,.5,.62,1.11,.93,1.83,.93,.64,0,1.32-.23,2.04-.69,.72-.46,1.4-1.13,2.04-2.01,.96-1.4,1.83-2.83,2.61-4.29,.78-1.46,1.37-2.59,1.77-3.39,.24-.44,.5-.66,.78-.66,.2,0,.3,.12,.3,.36,0,.2-.06,.42-.18,.66-.36,.8-.83,1.83-1.41,3.09-.58,1.26-1.3,2.52-2.16,3.78-.86,1.26-1.88,2.32-3.06,3.18-1.18,.86-2.53,1.29-4.05,1.29Zm.9-13.68c1.44-1.48,2.84-3.19,4.2-5.13,1.36-1.94,2.63-3.96,3.81-6.06,1.18-2.1,2.17-4.09,2.97-5.97,.28-.6,.51-1.26,.69-1.98,.18-.72,.27-1.32,.27-1.8,0-.56-.14-.84-.42-.84-.16,0-.4,.15-.72,.45-.32,.3-.74,.81-1.26,1.53-.76,1-1.59,2.36-2.49,4.08s-1.81,3.56-2.73,5.52c-.92,1.96-1.76,3.85-2.52,5.67-.76,1.82-1.36,3.33-1.8,4.53Z"/>
  <path class="cls-5" d="M84.54,48.06c-2.28,0-3.88-.55-4.8-1.65-.92-1.1-1.38-2.45-1.38-4.05,0-1.76,.41-3.64,1.23-5.64,.82-2,1.79-3.74,2.91-5.22,1.16-1.56,2.44-2.77,3.84-3.63,1.4-.86,2.82-1.29,4.26-1.29,1.52,0,2.64,.38,3.36,1.14,.72,.76,1,1.78,.84,3.06-.08,.8-.46,1.59-1.14,2.37-.68,.78-1.36,1.17-2.04,1.17-.32,0-.6-.12-.84-.36,.32-.4,.66-.88,1.02-1.44,.36-.56,.62-1.1,.78-1.62,.16-.48,.24-.96,.24-1.44,0-1-.48-1.5-1.44-1.5-1.08,0-2.21,.55-3.39,1.65-1.18,1.1-2.21,2.29-3.09,3.57-.36,.48-.79,1.23-1.29,2.25-.5,1.02-.95,2.14-1.35,3.36-.4,1.22-.6,2.41-.6,3.57s.27,2.27,.81,3.21c.54,.94,1.45,1.41,2.73,1.41,1.76,0,3.27-.55,4.53-1.65,1.26-1.1,2.38-2.47,3.36-4.11,.98-1.64,1.87-3.24,2.67-4.8,.24-.48,.48-.72,.72-.72,.2,0,.3,.16,.3,.48,0,.16-.06,.36-.18,.6-.96,2.08-1.94,3.98-2.94,5.7-1,1.72-2.21,3.08-3.63,4.08-1.42,1-3.25,1.5-5.49,1.5Z"/>
  <path class="cls-3" d="M108.18,48c-.44,.04-.94-.06-1.5-.3-.56-.24-1.05-.68-1.47-1.32-.42-.64-.63-1.54-.63-2.7,0-.96,.18-2.12,.54-3.48-.48,.76-1.1,1.69-1.86,2.79-.76,1.1-1.58,2.07-2.46,2.91-.76,.72-1.48,1.24-2.16,1.56-.68,.32-1.3,.48-1.86,.48-1.04,0-1.88-.47-2.52-1.41-.64-.94-.96-2.17-.96-3.69,0-1.6,.4-3.42,1.2-5.46,.8-2.04,2.1-4.16,3.9-6.36,1.16-1.4,2.57-2.53,4.23-3.39,1.66-.86,3.29-1.29,4.89-1.29,.92,0,1.8,.15,2.64,.45,.84,.3,1.58,.79,2.22,1.47,.28,.28,.42,.6,.42,.96,0,.24-.1,.44-.3,.6-.2,.16-.46,.2-.78,.12-.44-1.4-1.38-2.1-2.82-2.1-.68,0-1.46,.22-2.34,.66-1.36,.72-2.77,1.9-4.23,3.54-1.46,1.64-2.73,3.34-3.81,5.1-.16,.24-.41,.7-.75,1.38-.34,.68-.67,1.44-.99,2.28-.32,.84-.54,1.66-.66,2.46-.04,.24-.06,.41-.06,.51v.45c0,1.32,.5,1.98,1.5,1.98,1.2,0,2.56-.88,4.08-2.64,1.04-1.28,1.98-2.62,2.82-4.02,.84-1.4,1.7-2.9,2.58-4.5,.6-1.08,1.16-1.98,1.68-2.7,.52-.72,1.26-1.08,2.22-1.08,.44,0,.88,.06,1.32,.18,.44,.12,.9,.14,1.38,.06-.32,.32-.75,.92-1.29,1.8-.54,.88-1.11,1.88-1.71,3-.6,1.12-1.14,2.26-1.62,3.42s-.82,2.16-1.02,3c-.04,.24-.09,.58-.15,1.02-.06,.44-.09,.76-.09,.96,0,1.12,.32,1.68,.96,1.68s1.33-.38,2.07-1.14c.74-.76,1.47-1.7,2.19-2.82,.72-1.12,1.38-2.25,1.98-3.39s1.08-2.07,1.44-2.79c.16-.4,.4-.6,.72-.6,.2,0,.3,.14,.3,.42,0,.12-.06,.34-.18,.66-.48,1-1.06,2.13-1.74,3.39-.68,1.26-1.42,2.48-2.22,3.66-.8,1.18-1.63,2.16-2.49,2.94-.86,.78-1.73,1.21-2.61,1.29Z"/>
  <path class="cls-25" d="M110.7,48.12c1.48-2.84,2.88-5.69,4.2-8.55,1.32-2.86,2.66-5.57,4.02-8.13,.8-1.44,1.47-2.45,2.01-3.03,.54-.58,1.27-.87,2.19-.87,.32,0,.66,.05,1.02,.15,.36,.1,.72,.15,1.08,.15,.24,0,.42-.02,.54-.06-.56,.32-1.28,1.11-2.16,2.37-.88,1.26-1.78,2.71-2.7,4.35-.92,1.64-1.74,3.18-2.46,4.62,.76-.92,1.55-1.84,2.37-2.76,.82-.92,1.73-1.8,2.73-2.64,.88-.76,1.81-1.59,2.79-2.49,.98-.9,1.95-1.67,2.91-2.31,.96-.64,1.8-.96,2.52-.96,.28,0,.46,.02,.54,.06,.76,.32,1.14,.84,1.14,1.56,0,.24-.1,.6-.3,1.08-.52,1.36-1.19,2.75-2.01,4.17-.82,1.42-1.59,2.85-2.31,4.29,.6-.72,1.35-1.6,2.25-2.64,.9-1.04,1.81-1.96,2.73-2.76,.88-.8,2-1.64,3.36-2.52,1.36-.88,2.7-1.64,4.02-2.28,1.32-.64,2.38-.96,3.18-.96,.28,0,.48,.02,.6,.06-.88,1.56-1.65,2.97-2.31,4.23-.66,1.26-1.33,2.6-2.01,4.02-.68,1.42-1.29,2.78-1.83,4.08s-.89,2.39-1.05,3.27c-.12,.52-.18,1-.18,1.44,0,.64,.12,1.06,.36,1.26,.24,.2,.5,.3,.78,.3,.8,0,1.62-.42,2.46-1.26,.84-.84,1.65-1.85,2.43-3.03,.78-1.18,1.47-2.34,2.07-3.48,.6-1.14,1.04-2.01,1.32-2.61,.24-.44,.48-.66,.72-.66s.36,.16,.36,.48c0,.2-.06,.42-.18,.66-.48,.92-1.05,2.02-1.71,3.3s-1.41,2.53-2.25,3.75c-.84,1.22-1.77,2.24-2.79,3.06-1.02,.82-2.11,1.23-3.27,1.23-.84,0-1.69-.28-2.55-.84-.86-.56-1.29-1.6-1.29-3.12,0-.84,.18-1.86,.54-3.06,.28-.8,.71-1.72,1.29-2.76,.58-1.04,1.29-2.24,2.13-3.6,.4-.68,.6-1.22,.6-1.62,0-.48-.24-.72-.72-.72-.4,0-.95,.2-1.65,.6-.7,.4-1.57,1.1-2.61,2.1-.64,.6-1.39,1.43-2.25,2.49-.86,1.06-1.73,2.21-2.61,3.45-.88,1.24-1.64,2.46-2.28,3.66-.64,1.2-1.06,2.26-1.26,3.18-.6,0-1.08-.25-1.44-.75-.36-.5-.54-1.09-.54-1.77v-.36c0-.12,.02-.26,.06-.42,.2-1.24,.52-2.4,.96-3.48,.44-1.08,.94-2.2,1.5-3.36,.44-.84,.88-1.75,1.32-2.73,.44-.98,.66-1.73,.66-2.25,0-.32-.12-.48-.36-.48-.28,0-.74,.21-1.38,.63-.64,.42-1.52,1.15-2.64,2.19-1,.96-2.21,2.34-3.63,4.14-1.42,1.8-2.97,4.36-4.65,7.68-.24,.44-.52,.71-.84,.81-.32,.1-.82,.15-1.5,.15-.44,0-.81,0-1.11,.03-.3,.02-.61,.11-.93,.27Z"/>
  <path class="cls-7" d="M148.74,47.82c-1.48,0-2.52-.43-3.12-1.29-.6-.86-.9-1.85-.9-2.97,0-.6,.07-1.21,.21-1.83,.14-.62,.31-1.19,.51-1.71l4.02-10.26c.12-.32,.18-.6,.18-.84,0-.4-.1-.75-.3-1.05-.2-.3-.34-.51-.42-.63l3.3-.12c.6-.04,1.03,.03,1.29,.21,.26,.18,.39,.39,.39,.63s-.14,.68-.42,1.32l-4.98,11.7c-.44,1-.68,1.58-.72,1.74-.12,.6-.2,.98-.24,1.14-.04,.16-.06,.26-.06,.3v.48c0,.52,.13,.96,.39,1.32,.26,.36,.71,.54,1.35,.54,.4,0,.86-.12,1.38-.36,.52-.24,.9-.48,1.14-.72,1-1.04,1.99-2.41,2.97-4.11,.98-1.7,1.89-3.39,2.73-5.07,.16-.4,.36-.6,.6-.6,.2,0,.3,.14,.3,.42,0,.16-.06,.4-.18,.72-.4,.84-.9,1.88-1.5,3.12-.6,1.24-1.31,2.47-2.13,3.69-.82,1.22-1.71,2.23-2.67,3.03-.96,.8-2,1.2-3.12,1.2Zm4.86-24.36c-.6,0-1.09-.21-1.47-.63-.38-.42-.57-.93-.57-1.53,0-.76,.3-1.42,.9-1.98,.6-.56,1.26-.84,1.98-.84,.64,0,1.16,.2,1.56,.6,.4,.4,.6,.88,.6,1.44,0,.76-.3,1.44-.9,2.04-.6,.6-1.3,.9-2.1,.9Z"/>
  <path class="cls-32" d="M151.74,48.3c1.44-2.92,2.83-5.81,4.17-8.67,1.34-2.86,2.71-5.59,4.11-8.19,.8-1.44,1.47-2.45,2.01-3.03,.54-.58,1.27-.87,2.19-.87,.32,0,.66,.05,1.02,.15,.36,.1,.72,.15,1.08,.15,.24,0,.42-.02,.54-.06-.56,.32-1.28,1.11-2.16,2.37-.88,1.26-1.78,2.71-2.7,4.35-.92,1.64-1.74,3.18-2.46,4.62,.76-.92,1.55-1.84,2.37-2.76,.82-.92,1.73-1.8,2.73-2.64,.96-.84,2.11-1.71,3.45-2.61,1.34-.9,2.65-1.65,3.93-2.25,1.28-.6,2.3-.9,3.06-.9,.28,0,.48,.02,.6,.06-.88,1.56-1.65,2.97-2.31,4.23-.66,1.26-1.33,2.6-2.01,4.02-.68,1.42-1.29,2.78-1.83,4.08s-.89,2.39-1.05,3.27c-.12,.52-.18,1-.18,1.44,0,.64,.12,1.06,.36,1.26,.24,.2,.5,.3,.78,.3,.76,0,1.56-.41,2.4-1.23,.84-.82,1.65-1.83,2.43-3.03,.78-1.2,1.48-2.37,2.1-3.51,.62-1.14,1.07-2.01,1.35-2.61,.16-.32,.28-.51,.36-.57,.08-.06,.2-.09,.36-.09,.24,0,.36,.16,.36,.48,0,.2-.06,.42-.18,.66-.48,.92-1.05,2.02-1.71,3.3s-1.41,2.53-2.25,3.75c-.84,1.22-1.76,2.24-2.76,3.06-1,.82-2.08,1.23-3.24,1.23-.8,0-1.63-.28-2.49-.84-.86-.56-1.29-1.6-1.29-3.12,0-.44,.04-.91,.12-1.41,.08-.5,.22-1.05,.42-1.65,.32-.8,.7-1.66,1.14-2.58,.44-.92,1.16-2.18,2.16-3.78,.28-.44,.45-.78,.51-1.02s.09-.44,.09-.6c0-.48-.22-.72-.66-.72-.36,0-.89,.2-1.59,.6-.7,.4-1.57,1.1-2.61,2.1-1,.96-2.19,2.32-3.57,4.08-1.38,1.76-2.97,4.36-4.77,7.8-.28,.52-.59,.8-.93,.84-.34,.04-.81,.08-1.41,.12-.4,.04-.78,.07-1.14,.09-.36,.02-.66,.13-.9,.33Z"/>
  <path class="cls-12" d="M180.48,47.82c-1.52,0-2.64-.51-3.36-1.53-.72-1.02-1.08-2.27-1.08-3.75,0-1.8,.42-3.68,1.26-5.64,.8-1.84,1.82-3.52,3.06-5.04,1.24-1.52,2.58-2.75,4.02-3.69,1.44-.94,2.84-1.41,4.2-1.41,1.52,0,2.64,.5,3.36,1.5,.72,1,1.08,2.26,1.08,3.78,0,1.84-.42,3.72-1.26,5.64-.48,1.08-1.16,2.27-2.04,3.57-.88,1.3-1.88,2.49-3,3.57,.24,.44,.58,.81,1.02,1.11,.44,.3,1.04,.45,1.8,.45,.96,0,1.87-.4,2.73-1.2,.86-.8,1.65-1.77,2.37-2.91,.72-1.14,1.36-2.29,1.92-3.45,.56-1.16,1.02-2.1,1.38-2.82,.12-.24,.32-.36,.6-.36,.16,0,.28,.07,.36,.21,.08,.14,.06,.35-.06,.63-.24,.6-.64,1.49-1.2,2.67-.56,1.18-1.24,2.4-2.04,3.66-.8,1.26-1.72,2.33-2.76,3.21-1.04,.88-2.2,1.32-3.48,1.32-.88,0-1.64-.15-2.28-.45-.64-.3-1.16-.67-1.56-1.11-.84,.64-1.68,1.14-2.52,1.5-.84,.36-1.68,.54-2.52,.54Zm.9-1.32c1.08,0,2.24-.52,3.48-1.56-.32-.48-.56-.98-.72-1.5-.16-.52-.24-1-.24-1.44,0-.72,.17-1.34,.51-1.86,.34-.52,.87-.78,1.59-.78,.52,0,.95,.19,1.29,.57,.34,.38,.51,.81,.51,1.29,0,.12-.01,.23-.03,.33-.02,.1-.05,.21-.09,.33,.68-.92,1.32-2,1.92-3.24,1.32-2.84,1.98-5.18,1.98-7.02,0-.92-.18-1.64-.54-2.16-.36-.52-.9-.78-1.62-.78-.84,0-1.75,.36-2.73,1.08-.98,.72-1.92,1.68-2.82,2.88-.9,1.2-1.69,2.54-2.37,4.02-.64,1.36-1.15,2.67-1.53,3.93-.38,1.26-.57,2.35-.57,3.27,0,.8,.16,1.44,.48,1.92,.32,.48,.82,.72,1.5,.72Z"/>
  <path class="cls-23" d="M215.45,48.24c-1.24,0-2.1-.32-2.58-.96s-.72-1.46-.72-2.46,.19-2.22,.57-3.54c.38-1.32,.79-2.62,1.23-3.9-.28,.4-.56,.6-.84,.6-.16,0-.28-.08-.36-.24-.08-.16-.06-.34,.06-.54,.2-.36,.4-.71,.6-1.05,.2-.34,.38-.69,.54-1.05,.32-.68,.59-1.49,.81-2.43,.22-.94,.33-1.81,.33-2.61,0-.64-.08-1.18-.24-1.62-.16-.44-.4-.7-.72-.78,.84-.16,1.5-.28,1.98-.36,.48-.08,.8-.12,.96-.12,.24-.04,.46-.07,.66-.09,.2-.02,.38-.03,.54-.03,.4,0,.67,.16,.81,.48,.14,.32,.19,1.02,.15,2.1-.04,1-.24,2.21-.6,3.63-.36,1.42-.74,2.65-1.14,3.69-.52,1.36-1,2.74-1.44,4.14-.44,1.4-.66,2.56-.66,3.48,0,.8,.22,1.32,.66,1.56,.32,.12,.6,.18,.84,.18,.92,0,1.83-.46,2.73-1.38,.9-.92,1.77-2.15,2.61-3.69,.84-1.54,1.62-3.19,2.34-4.95-.28-.56-.48-1.18-.6-1.86-.12-.68-.18-1.34-.18-1.98,0-.76,.1-1.48,.3-2.16,.48-1.6,1.15-2.75,2.01-3.45,.86-.7,1.59-1.05,2.19-1.05,.76,0,1.14,.34,1.14,1.02,0,.16-.06,.4-.18,.72-.08,.08-.12,.2-.12,.36-.28,.84-.69,2.06-1.23,3.66s-1.2,3.35-1.98,5.25c-.78,1.9-1.7,3.72-2.76,5.46-1.06,1.74-2.23,3.17-3.51,4.29-1.28,1.12-2.68,1.68-4.2,1.68Z"/>
  <path class="cls-41" d="M242.1,48c-.44,.04-.94-.06-1.5-.3-.56-.24-1.05-.68-1.47-1.32-.42-.64-.63-1.54-.63-2.7,0-.96,.18-2.12,.54-3.48-.48,.76-1.1,1.69-1.86,2.79-.76,1.1-1.58,2.07-2.46,2.91-.76,.72-1.48,1.24-2.16,1.56-.68,.32-1.3,.48-1.86,.48-1.04,0-1.88-.47-2.52-1.41-.64-.94-.96-2.17-.96-3.69,0-1.6,.4-3.42,1.2-5.46s2.1-4.16,3.9-6.36c1.16-1.4,2.57-2.53,4.23-3.39,1.66-.86,3.29-1.29,4.89-1.29,.92,0,1.8,.15,2.64,.45s1.58,.79,2.22,1.47c.28,.28,.42,.6,.42,.96,0,.24-.1,.44-.3,.6-.2,.16-.46,.2-.78,.12-.44-1.4-1.38-2.1-2.82-2.1-.68,0-1.46,.22-2.34,.66-1.36,.72-2.77,1.9-4.23,3.54-1.46,1.64-2.73,3.34-3.81,5.1-.16,.24-.41,.7-.75,1.38-.34,.68-.67,1.44-.99,2.28-.32,.84-.54,1.66-.66,2.46-.04,.24-.06,.41-.06,.51v.45c0,1.32,.5,1.98,1.5,1.98,1.2,0,2.56-.88,4.08-2.64,1.04-1.28,1.98-2.62,2.82-4.02,.84-1.4,1.7-2.9,2.58-4.5,.6-1.08,1.16-1.98,1.68-2.7,.52-.72,1.26-1.08,2.22-1.08,.44,0,.88,.06,1.32,.18,.44,.12,.9,.14,1.38,.06-.32,.32-.75,.92-1.29,1.8s-1.11,1.88-1.71,3c-.6,1.12-1.14,2.26-1.62,3.42-.48,1.16-.82,2.16-1.02,3-.04,.24-.09,.58-.15,1.02-.06,.44-.09,.76-.09,.96,0,1.12,.32,1.68,.96,1.68s1.33-.38,2.07-1.14c.74-.76,1.47-1.7,2.19-2.82,.72-1.12,1.38-2.25,1.98-3.39,.6-1.14,1.08-2.07,1.44-2.79,.16-.4,.4-.6,.72-.6,.2,0,.3,.14,.3,.42,0,.12-.06,.34-.18,.66-.48,1-1.06,2.13-1.74,3.39-.68,1.26-1.42,2.48-2.22,3.66-.8,1.18-1.63,2.16-2.49,2.94-.86,.78-1.73,1.21-2.61,1.29Z"/>
  <path class="cls-26" d="M253.25,48c-1.68,0-2.82-.45-3.42-1.35-.6-.9-.9-1.97-.9-3.21s.18-2.6,.54-3.96c.36-1.36,.68-2.5,.96-3.42,.64-2.24,1.45-4.63,2.43-7.17,.98-2.54,2.06-5.04,3.24-7.5,1.18-2.46,2.35-4.67,3.51-6.63,.92-1.56,1.91-2.73,2.97-3.51,1.06-.78,1.99-1.17,2.79-1.17,.64,0,1.15,.23,1.53,.69,.38,.46,.57,1.15,.57,2.07,0,.64-.11,1.4-.33,2.28-.22,.88-.59,1.88-1.11,3-1.4,3.12-3.07,6.24-5.01,9.36-1.94,3.12-4.39,6.04-7.35,8.76-.16,.52-.37,1.13-.63,1.83-.26,.7-.49,1.41-.69,2.13-.24,1.08-.36,2-.36,2.76,0,1.24,.25,2.17,.75,2.79,.5,.62,1.11,.93,1.83,.93,.64,0,1.32-.23,2.04-.69,.72-.46,1.4-1.13,2.04-2.01,.96-1.4,1.83-2.83,2.61-4.29,.78-1.46,1.37-2.59,1.77-3.39,.24-.44,.5-.66,.78-.66,.2,0,.3,.12,.3,.36,0,.2-.06,.42-.18,.66-.36,.8-.83,1.83-1.41,3.09-.58,1.26-1.3,2.52-2.16,3.78s-1.88,2.32-3.06,3.18c-1.18,.86-2.53,1.29-4.05,1.29Zm.9-13.68c1.44-1.48,2.84-3.19,4.2-5.13,1.36-1.94,2.63-3.96,3.81-6.06,1.18-2.1,2.17-4.09,2.97-5.97,.28-.6,.51-1.26,.69-1.98,.18-.72,.27-1.32,.27-1.8,0-.56-.14-.84-.42-.84-.16,0-.4,.15-.72,.45s-.74,.81-1.26,1.53c-.76,1-1.59,2.36-2.49,4.08-.9,1.72-1.81,3.56-2.73,5.52-.92,1.96-1.76,3.85-2.52,5.67-.76,1.82-1.36,3.33-1.8,4.53Z"/>
  <path class="cls-40" d="M276.29,47.82c-1.08,0-1.98-.54-2.7-1.62-.2-.32-.38-.74-.54-1.26-.16-.52-.24-1.1-.24-1.74,0-.36,.02-.73,.06-1.11,.04-.38,.12-.77,.24-1.17-.56,.88-1.21,1.85-1.95,2.91-.74,1.06-1.58,1.98-2.52,2.76-.94,.78-1.99,1.17-3.15,1.17-.4,0-.82-.06-1.26-.18-1.08-.32-1.85-.88-2.31-1.68-.46-.8-.69-1.76-.69-2.88,0-1.24,.25-2.6,.75-4.08,.5-1.48,1.14-2.92,1.92-4.32,.78-1.4,1.59-2.6,2.43-3.6,1.2-1.4,2.58-2.52,4.14-3.36,1.56-.84,3.14-1.26,4.74-1.26,1.44,0,2.8,.38,4.08,1.14,.6-1.12,1.24-2.37,1.92-3.75,.68-1.38,1.36-2.75,2.04-4.11,.68-1.36,1.28-2.61,1.8-3.75,.52-1.14,.92-2.01,1.2-2.61,.6-1.4,1.17-2.29,1.71-2.67,.54-.38,1.19-.57,1.95-.57,.44,0,.93,.05,1.47,.15,.54,.1,1.07,.13,1.59,.09-.24,.24-.73,.93-1.47,2.07-.74,1.14-1.61,2.59-2.61,4.35-1,1.76-2.07,3.69-3.21,5.79-1.14,2.1-2.26,4.22-3.36,6.36-1.1,2.14-2.12,4.16-3.06,6.06-.94,1.9-1.69,3.53-2.25,4.89-.16,.32-.39,.97-.69,1.95-.3,.98-.45,1.83-.45,2.55,0,.52,.12,.97,.36,1.35,.24,.38,.64,.57,1.2,.57,.76,0,1.53-.39,2.31-1.17s1.53-1.74,2.25-2.88c.72-1.14,1.36-2.26,1.92-3.36,.56-1.1,.98-1.97,1.26-2.61,.2-.44,.44-.66,.72-.66,.24,0,.36,.18,.36,.54v.21c0,.1-.04,.21-.12,.33-.36,.84-.85,1.88-1.47,3.12-.62,1.24-1.35,2.48-2.19,3.72-.84,1.24-1.78,2.27-2.82,3.09-1.04,.82-2.16,1.23-3.36,1.23Zm-10.38-1.8c.56,0,1.26-.31,2.1-.93,.84-.62,1.74-1.61,2.7-2.97,1.12-1.6,2.4-3.6,3.84-6,1.44-2.4,2.86-4.94,4.26-7.62-.52-.48-1.12-.72-1.8-.72-1.12,0-2.37,.52-3.75,1.56-1.38,1.04-2.72,2.36-4.02,3.96-1.3,1.6-2.39,3.22-3.27,4.86-.6,1.12-1.03,2.14-1.29,3.06-.26,.92-.39,1.72-.39,2.4,0,1.6,.54,2.4,1.62,2.4Z"/>
  <path class="cls-43" d="M292.31,47.88c-.76,0-1.52-.31-2.28-.93-.76-.62-1.14-1.63-1.14-3.03,0-1.08,.26-2.32,.78-3.72,.48-1.36,1.13-2.68,1.95-3.96,.82-1.28,1.41-2.32,1.77-3.12,.12-.32,.18-.6,.18-.84,0-.72-.45-1.24-1.35-1.56-.9-.32-2.07-.5-3.51-.54l-.72,1.98c-.44,1.28-1.05,2.78-1.83,4.5-.78,1.72-1.64,3.38-2.58,4.98s-1.91,2.88-2.91,3.84c-.08,.08-.18,.12-.3,.12-.16,0-.27-.1-.33-.3-.06-.2,.03-.44,.27-.72,1.56-2.08,2.96-4.39,4.2-6.93,1.24-2.54,2.29-5.13,3.15-7.77,.86-2.64,1.49-5.08,1.89-7.32,.12-.64,.34-1.11,.66-1.41,.32-.3,.66-.45,1.02-.45,.52,0,1,.25,1.44,.75,.44,.5,.66,1.21,.66,2.13,0,.16,0,.34-.03,.54-.02,.2-.05,.4-.09,.6-.16,.84-.63,1.63-1.41,2.37-.78,.74-1.41,1.29-1.89,1.65,.4,.04,.82,.07,1.26,.09,.44,.02,.92,.03,1.44,.03,1.88,0,3.74-.12,5.58-.36,.08,.24,.12,.42,.12,.54,0,.52-.15,1.18-.45,1.98-.3,.8-.61,1.52-.93,2.16-.16,.36-.48,1.01-.96,1.95-.48,.94-1,2-1.56,3.18s-1.03,2.34-1.41,3.48c-.38,1.14-.57,2.11-.57,2.91,0,1.04,.4,1.56,1.2,1.56,.6,0,1.26-.39,1.98-1.17,.72-.78,1.43-1.74,2.13-2.88,.7-1.14,1.34-2.26,1.92-3.36,.58-1.1,1.03-1.97,1.35-2.61,.16-.4,.38-.6,.66-.6,.16,0,.24,.14,.24,.42,0,.16-.06,.4-.18,.72-.44,.92-.96,1.96-1.56,3.12-.6,1.16-1.27,2.3-2.01,3.42-.74,1.12-1.54,2.09-2.4,2.91-.86,.82-1.79,1.35-2.79,1.59-.12,.04-.34,.06-.66,.06Z"/>
  <path class="cls-34" d="M313.79,48c-.44,.04-.94-.06-1.5-.3-.56-.24-1.05-.68-1.47-1.32-.42-.64-.63-1.54-.63-2.7,0-.96,.18-2.12,.54-3.48-.48,.76-1.1,1.69-1.86,2.79-.76,1.1-1.58,2.07-2.46,2.91-.76,.72-1.48,1.24-2.16,1.56-.68,.32-1.3,.48-1.86,.48-1.04,0-1.88-.47-2.52-1.41-.64-.94-.96-2.17-.96-3.69,0-1.6,.4-3.42,1.2-5.46s2.1-4.16,3.9-6.36c1.16-1.4,2.57-2.53,4.23-3.39,1.66-.86,3.29-1.29,4.89-1.29,.92,0,1.8,.15,2.64,.45s1.58,.79,2.22,1.47c.28,.28,.42,.6,.42,.96,0,.24-.1,.44-.3,.6-.2,.16-.46,.2-.78,.12-.44-1.4-1.38-2.1-2.82-2.1-.68,0-1.46,.22-2.34,.66-1.36,.72-2.77,1.9-4.23,3.54-1.46,1.64-2.73,3.34-3.81,5.1-.16,.24-.41,.7-.75,1.38-.34,.68-.67,1.44-.99,2.28-.32,.84-.54,1.66-.66,2.46-.04,.24-.06,.41-.06,.51v.45c0,1.32,.5,1.98,1.5,1.98,1.2,0,2.56-.88,4.08-2.64,1.04-1.28,1.98-2.62,2.82-4.02,.84-1.4,1.7-2.9,2.58-4.5,.6-1.08,1.16-1.98,1.68-2.7,.52-.72,1.26-1.08,2.22-1.08,.44,0,.88,.06,1.32,.18,.44,.12,.9,.14,1.38,.06-.32,.32-.75,.92-1.29,1.8s-1.11,1.88-1.71,3c-.6,1.12-1.14,2.26-1.62,3.42-.48,1.16-.82,2.16-1.02,3-.04,.24-.09,.58-.15,1.02-.06,.44-.09,.76-.09,.96,0,1.12,.32,1.68,.96,1.68s1.33-.38,2.07-1.14c.74-.76,1.47-1.7,2.19-2.82,.72-1.12,1.38-2.25,1.98-3.39,.6-1.14,1.08-2.07,1.44-2.79,.16-.4,.4-.6,.72-.6,.2,0,.3,.14,.3,.42,0,.12-.06,.34-.18,.66-.48,1-1.06,2.13-1.74,3.39-.68,1.26-1.42,2.48-2.22,3.66-.8,1.18-1.63,2.16-2.49,2.94-.86,.78-1.73,1.21-2.61,1.29Zm-1.5-25.32c-.4,0-.6-.18-.6-.54,0-.08,.3-.39,.9-.93,.6-.54,1.35-1.18,2.25-1.92,.9-.74,1.83-1.47,2.79-2.19,.96-.72,1.8-1.32,2.52-1.8,.72-.48,1.2-.72,1.44-.72,.8,0,1.2,.42,1.2,1.26,0,.64-.24,1.18-.72,1.62-.48,.44-.98,.78-1.5,1.02-.28,.16-.84,.46-1.68,.9-.84,.44-1.74,.92-2.7,1.44-.96,.52-1.82,.96-2.58,1.32-.76,.36-1.2,.54-1.32,.54Z"/>
  <path class="cls-16" d="M331.91,48.12c1.48-2.84,2.88-5.69,4.2-8.55,1.32-2.86,2.66-5.57,4.02-8.13,.8-1.44,1.47-2.45,2.01-3.03,.54-.58,1.27-.87,2.19-.87,.32,0,.66,.05,1.02,.15,.36,.1,.72,.15,1.08,.15,.24,0,.42-.02,.54-.06-.56,.32-1.28,1.11-2.16,2.37-.88,1.26-1.78,2.71-2.7,4.35-.92,1.64-1.74,3.18-2.46,4.62,.76-.92,1.55-1.84,2.37-2.76,.82-.92,1.73-1.8,2.73-2.64,.88-.76,1.81-1.59,2.79-2.49,.98-.9,1.95-1.67,2.91-2.31,.96-.64,1.8-.96,2.52-.96,.28,0,.46,.02,.54,.06,.76,.32,1.14,.84,1.14,1.56,0,.24-.1,.6-.3,1.08-.52,1.36-1.19,2.75-2.01,4.17-.82,1.42-1.59,2.85-2.31,4.29,.6-.72,1.35-1.6,2.25-2.64,.9-1.04,1.81-1.96,2.73-2.76,.88-.8,2-1.64,3.36-2.52,1.36-.88,2.7-1.64,4.02-2.28,1.32-.64,2.38-.96,3.18-.96,.28,0,.48,.02,.6,.06-.88,1.56-1.65,2.97-2.31,4.23-.66,1.26-1.33,2.6-2.01,4.02-.68,1.42-1.29,2.78-1.83,4.08s-.89,2.39-1.05,3.27c-.12,.52-.18,1-.18,1.44,0,.64,.12,1.06,.36,1.26,.24,.2,.5,.3,.78,.3,.8,0,1.62-.42,2.46-1.26s1.65-1.85,2.43-3.03c.78-1.18,1.47-2.34,2.07-3.48,.6-1.14,1.04-2.01,1.32-2.61,.24-.44,.48-.66,.72-.66s.36,.16,.36,.48c0,.2-.06,.42-.18,.66-.48,.92-1.05,2.02-1.71,3.3s-1.41,2.53-2.25,3.75c-.84,1.22-1.77,2.24-2.79,3.06-1.02,.82-2.11,1.23-3.27,1.23-.84,0-1.69-.28-2.55-.84-.86-.56-1.29-1.6-1.29-3.12,0-.84,.18-1.86,.54-3.06,.28-.8,.71-1.72,1.29-2.76,.58-1.04,1.29-2.24,2.13-3.6,.4-.68,.6-1.22,.6-1.62,0-.48-.24-.72-.72-.72-.4,0-.95,.2-1.65,.6-.7,.4-1.57,1.1-2.61,2.1-.64,.6-1.39,1.43-2.25,2.49-.86,1.06-1.73,2.21-2.61,3.45-.88,1.24-1.64,2.46-2.28,3.66-.64,1.2-1.06,2.26-1.26,3.18-.6,0-1.08-.25-1.44-.75-.36-.5-.54-1.09-.54-1.77v-.36c0-.12,.02-.26,.06-.42,.2-1.24,.52-2.4,.96-3.48,.44-1.08,.94-2.2,1.5-3.36,.44-.84,.88-1.75,1.32-2.73,.44-.98,.66-1.73,.66-2.25,0-.32-.12-.48-.36-.48-.28,0-.74,.21-1.38,.63s-1.52,1.15-2.64,2.19c-1,.96-2.21,2.34-3.63,4.14-1.42,1.8-2.97,4.36-4.65,7.68-.24,.44-.52,.71-.84,.81-.32,.1-.82,.15-1.5,.15-.44,0-.81,0-1.11,.03-.3,.02-.61,.11-.93,.27Z"/>
  <path class="cls-9" d="M381.05,48c-.44,.04-.94-.06-1.5-.3-.56-.24-1.05-.68-1.47-1.32-.42-.64-.63-1.54-.63-2.7,0-.96,.18-2.12,.54-3.48-.48,.76-1.1,1.69-1.86,2.79-.76,1.1-1.58,2.07-2.46,2.91-.76,.72-1.48,1.24-2.16,1.56-.68,.32-1.3,.48-1.86,.48-1.04,0-1.88-.47-2.52-1.41-.64-.94-.96-2.17-.96-3.69,0-1.6,.4-3.42,1.2-5.46s2.1-4.16,3.9-6.36c1.16-1.4,2.57-2.53,4.23-3.39,1.66-.86,3.29-1.29,4.89-1.29,.92,0,1.8,.15,2.64,.45s1.58,.79,2.22,1.47c.28,.28,.42,.6,.42,.96,0,.24-.1,.44-.3,.6-.2,.16-.46,.2-.78,.12-.44-1.4-1.38-2.1-2.82-2.1-.68,0-1.46,.22-2.34,.66-1.36,.72-2.77,1.9-4.23,3.54-1.46,1.64-2.73,3.34-3.81,5.1-.16,.24-.41,.7-.75,1.38-.34,.68-.67,1.44-.99,2.28-.32,.84-.54,1.66-.66,2.46-.04,.24-.06,.41-.06,.51v.45c0,1.32,.5,1.98,1.5,1.98,1.2,0,2.56-.88,4.08-2.64,1.04-1.28,1.98-2.62,2.82-4.02,.84-1.4,1.7-2.9,2.58-4.5,.6-1.08,1.16-1.98,1.68-2.7,.52-.72,1.26-1.08,2.22-1.08,.44,0,.88,.06,1.32,.18,.44,.12,.9,.14,1.38,.06-.32,.32-.75,.92-1.29,1.8-.54,.88-1.11,1.88-1.71,3-.6,1.12-1.14,2.26-1.62,3.42-.48,1.16-.82,2.16-1.02,3-.04,.24-.09,.58-.15,1.02-.06,.44-.09,.76-.09,.96,0,1.12,.32,1.68,.96,1.68s1.33-.38,2.07-1.14c.74-.76,1.47-1.7,2.19-2.82,.72-1.12,1.38-2.25,1.98-3.39,.6-1.14,1.08-2.07,1.44-2.79,.16-.4,.4-.6,.72-.6,.2,0,.3,.14,.3,.42,0,.12-.06,.34-.18,.66-.48,1-1.06,2.13-1.74,3.39-.68,1.26-1.42,2.48-2.22,3.66-.8,1.18-1.63,2.16-2.49,2.94-.86,.78-1.73,1.21-2.61,1.29Zm-1.5-25.32c-.4,0-.6-.18-.6-.54,0-.08,.3-.39,.9-.93,.6-.54,1.35-1.18,2.25-1.92,.9-.74,1.83-1.47,2.79-2.19,.96-.72,1.8-1.32,2.52-1.8,.72-.48,1.2-.72,1.44-.72,.8,0,1.2,.42,1.2,1.26,0,.64-.24,1.18-.72,1.62-.48,.44-.98,.78-1.5,1.02-.28,.16-.84,.46-1.68,.9-.84,.44-1.74,.92-2.7,1.44-.96,.52-1.82,.96-2.58,1.32-.76,.36-1.2,.54-1.32,.54Z"/>
  <path class="cls-38" d="M390.59,48.06c-1.96,0-3.35-.51-4.17-1.53-.82-1.02-1.23-2.09-1.23-3.21,0-.92,.23-1.76,.69-2.52,.46-.76,1.01-1.16,1.65-1.2,.8-1.56,1.67-3.26,2.61-5.1,.94-1.84,1.81-3.62,2.61-5.34,.56-1.16,1.27-2.28,2.13-3.36,.86-1.08,1.81-1.7,2.85-1.86h.6c.32,0,.61,.02,.87,.06,.26,.04,.53,.12,.81,.24,.44,.2,.66,.5,.66,.9,0,.24-.14,.36-.42,.36-.12,0-.28-.06-.48-.18-.48-.2-.9-.3-1.26-.3-.24,0-.46,.06-.66,.18-.76,.4-1.29,.96-1.59,1.68-.3,.72-.45,1.48-.45,2.28,0,.64,.07,1.29,.21,1.95,.14,.66,.31,1.25,.51,1.77,.44,1.12,.91,2.22,1.41,3.3s.75,2.24,.75,3.48-.4,2.47-1.2,3.81-1.82,2.41-3.06,3.21l.42,.06c.2,.04,.34,.06,.42,.06h.18c.92,0,1.79-.27,2.61-.81,.82-.54,1.55-1.21,2.19-2.01,.64-.8,1.37-1.92,2.19-3.36,.82-1.44,1.61-2.96,2.37-4.56,.12-.2,.26-.3,.42-.3,.2,0,.35,.07,.45,.21,.1,.14,.11,.31,.03,.51-.52,1.12-1.11,2.33-1.77,3.63s-1.41,2.54-2.25,3.72c-.84,1.18-1.81,2.14-2.91,2.88-1.1,.74-2.33,1.11-3.69,1.11-.32,0-.66-.02-1.02-.06-.36-.04-.72-.12-1.08-.24-.4,.16-.81,.29-1.23,.39s-.81,.15-1.17,.15Zm-.48-.96c.24,0,.46-.03,.66-.09,.2-.06,.38-.11,.54-.15-.6-.44-1.13-1.03-1.59-1.77-.46-.74-.73-1.69-.81-2.85-.72,.76-1.08,1.58-1.08,2.46,0,.64,.2,1.2,.6,1.68,.4,.48,.96,.72,1.68,.72Zm2.28-.84c.68-.56,1.29-1.38,1.83-2.46,.54-1.08,.81-2.5,.81-4.26,0-1.56-.16-3.22-.48-4.98-.32-1.76-.48-3.32-.48-4.68,0-.28,0-.53,.03-.75,.02-.22,.05-.43,.09-.63-.52,1.08-1.12,2.33-1.8,3.75-.68,1.42-1.36,2.79-2.04,4.11-.68,1.32-1.26,2.44-1.74,3.36,.44,.04,.76,.19,.96,.45,.2,.26,.28,.77,.24,1.53-.04,1,.19,1.93,.69,2.79,.5,.86,1.13,1.45,1.89,1.77Z"/>
  <path class="cls-33" d="M423.23,48c-1.68,0-2.82-.45-3.42-1.35-.6-.9-.9-1.97-.9-3.21s.18-2.6,.54-3.96c.36-1.36,.68-2.5,.96-3.42,.64-2.24,1.45-4.63,2.43-7.17,.98-2.54,2.06-5.04,3.24-7.5,1.18-2.46,2.35-4.67,3.51-6.63,.92-1.56,1.91-2.73,2.97-3.51,1.06-.78,1.99-1.17,2.79-1.17,.64,0,1.15,.23,1.53,.69,.38,.46,.57,1.15,.57,2.07,0,.64-.11,1.4-.33,2.28-.22,.88-.59,1.88-1.11,3-1.4,3.12-3.07,6.24-5.01,9.36-1.94,3.12-4.39,6.04-7.35,8.76-.16,.52-.37,1.13-.63,1.83-.26,.7-.49,1.41-.69,2.13-.24,1.08-.36,2-.36,2.76,0,1.24,.25,2.17,.75,2.79,.5,.62,1.11,.93,1.83,.93,.64,0,1.32-.23,2.04-.69,.72-.46,1.4-1.13,2.04-2.01,.96-1.4,1.83-2.83,2.61-4.29,.78-1.46,1.37-2.59,1.77-3.39,.24-.44,.5-.66,.78-.66,.2,0,.3,.12,.3,.36,0,.2-.06,.42-.18,.66-.36,.8-.83,1.83-1.41,3.09-.58,1.26-1.3,2.52-2.16,3.78s-1.88,2.32-3.06,3.18c-1.18,.86-2.53,1.29-4.05,1.29Zm.9-13.68c1.44-1.48,2.84-3.19,4.2-5.13,1.36-1.94,2.63-3.96,3.81-6.06,1.18-2.1,2.17-4.09,2.97-5.97,.28-.6,.51-1.26,.69-1.98,.18-.72,.27-1.32,.27-1.8,0-.56-.14-.84-.42-.84-.16,0-.4,.15-.72,.45s-.74,.81-1.26,1.53c-.76,1-1.59,2.36-2.49,4.08-.9,1.72-1.81,3.56-2.73,5.52-.92,1.96-1.76,3.85-2.52,5.67-.76,1.82-1.36,3.33-1.8,4.53Z"/>
  <path class="cls-24" d="M445.97,48c-.44,.04-.94-.06-1.5-.3-.56-.24-1.05-.68-1.47-1.32-.42-.64-.63-1.54-.63-2.7,0-.96,.18-2.12,.54-3.48-.48,.76-1.1,1.69-1.86,2.79-.76,1.1-1.58,2.07-2.46,2.91-.76,.72-1.48,1.24-2.16,1.56-.68,.32-1.3,.48-1.86,.48-1.04,0-1.88-.47-2.52-1.41-.64-.94-.96-2.17-.96-3.69,0-1.6,.4-3.42,1.2-5.46s2.1-4.16,3.9-6.36c1.16-1.4,2.57-2.53,4.23-3.39,1.66-.86,3.29-1.29,4.89-1.29,.92,0,1.8,.15,2.64,.45s1.58,.79,2.22,1.47c.28,.28,.42,.6,.42,.96,0,.24-.1,.44-.3,.6-.2,.16-.46,.2-.78,.12-.44-1.4-1.38-2.1-2.82-2.1-.68,0-1.46,.22-2.34,.66-1.36,.72-2.77,1.9-4.23,3.54-1.46,1.64-2.73,3.34-3.81,5.1-.16,.24-.41,.7-.75,1.38-.34,.68-.67,1.44-.99,2.28-.32,.84-.54,1.66-.66,2.46-.04,.24-.06,.41-.06,.51v.45c0,1.32,.5,1.98,1.5,1.98,1.2,0,2.56-.88,4.08-2.64,1.04-1.28,1.98-2.62,2.82-4.02,.84-1.4,1.7-2.9,2.58-4.5,.6-1.08,1.16-1.98,1.68-2.7,.52-.72,1.26-1.08,2.22-1.08,.44,0,.88,.06,1.32,.18,.44,.12,.9,.14,1.38,.06-.32,.32-.75,.92-1.29,1.8s-1.11,1.88-1.71,3c-.6,1.12-1.14,2.26-1.62,3.42-.48,1.16-.82,2.16-1.02,3-.04,.24-.09,.58-.15,1.02-.06,.44-.09,.76-.09,.96,0,1.12,.32,1.68,.96,1.68s1.33-.38,2.07-1.14c.74-.76,1.47-1.7,2.19-2.82,.72-1.12,1.38-2.25,1.98-3.39,.6-1.14,1.08-2.07,1.44-2.79,.16-.4,.4-.6,.72-.6,.2,0,.3,.14,.3,.42,0,.12-.06,.34-.18,.66-.48,1-1.06,2.13-1.74,3.39-.68,1.26-1.42,2.48-2.22,3.66-.8,1.18-1.63,2.16-2.49,2.94-.86,.78-1.73,1.21-2.61,1.29Z"/>
  <path class="cls-42" d="M460.61,64.2c-.48,0-.97-.07-1.47-.21-.5-.14-1.01-.17-1.53-.09,.24-.24,.7-.93,1.38-2.07,.68-1.14,1.47-2.55,2.37-4.23,.9-1.68,1.85-3.5,2.85-5.46,1-1.96,1.94-3.89,2.82-5.79,.88-1.9,1.63-3.64,2.25-5.22,.62-1.58,1.01-2.83,1.17-3.75-.36,.52-.71,.81-1.05,.87-.34,.06-.43-.05-.27-.33,.08-.16,.25-.55,.51-1.17,.26-.62,.49-1.15,.69-1.59,.32-.8,.59-1.68,.81-2.64s.33-1.88,.33-2.76c0-.56-.06-1.04-.18-1.44-.12-.4-.34-.62-.66-.66,.88-.16,1.56-.28,2.04-.36,.48-.08,.8-.12,.96-.12,.24-.04,.46-.07,.66-.09,.2-.02,.38-.03,.54-.03,.36,0,.61,.13,.75,.39,.14,.26,.21,.79,.21,1.59,0,1-.17,2.27-.51,3.81-.34,1.54-.73,2.89-1.17,4.05,.44-.72,1.01-1.64,1.71-2.76,.7-1.12,1.51-2.26,2.43-3.42,.92-1.16,1.88-2.13,2.88-2.91,1-.78,1.98-1.17,2.94-1.17,.2,0,.46,.04,.78,.12,1.12,.28,1.91,.83,2.37,1.65,.46,.82,.69,1.79,.69,2.91,0,1.2-.23,2.52-.69,3.96s-1.07,2.85-1.83,4.23c-.76,1.38-1.6,2.63-2.52,3.75-1.12,1.4-2.46,2.52-4.02,3.36-1.56,.84-3.16,1.26-4.8,1.26-1.48,0-2.86-.38-4.14-1.14l-5.7,14.34c-.56,1.2-1.1,2.02-1.62,2.46-.52,.44-1.18,.66-1.98,.66Zm11.52-17.58c1.12,0,2.38-.52,3.78-1.56,1.4-1.04,2.75-2.37,4.05-3.99s2.39-3.25,3.27-4.89c.6-1.12,1.04-2.15,1.32-3.09,.28-.94,.42-1.75,.42-2.43,0-1.56-.56-2.34-1.68-2.34-.52,0-1.19,.28-2.01,.84-.82,.56-1.77,1.58-2.85,3.06-1.16,1.6-2.43,3.61-3.81,6.03-1.38,2.42-2.79,4.97-4.23,7.65,.48,.48,1.06,.72,1.74,.72Z"/>
  <path class="cls-37" d="M494.27,48.06c-1.48,0-2.81-.48-3.99-1.44-1.18-.96-1.77-2.42-1.77-4.38,0-1.8,.44-3.73,1.32-5.79,.88-2.06,2-3.87,3.36-5.43,1.16-1.36,2.46-2.48,3.9-3.36,1.44-.88,2.8-1.32,4.08-1.32,.88,0,1.64,.24,2.28,.72,.68,.52,1.02,1.26,1.02,2.22s-.38,2.1-1.14,3.3-1.84,2.32-3.24,3.36c-.6,.44-1.36,.86-2.28,1.26-.92,.4-1.84,.73-2.76,.99-.92,.26-1.68,.39-2.28,.39-.2,.48-.39,1.12-.57,1.92-.18,.8-.27,1.62-.27,2.46,0,1,.2,1.9,.6,2.7,.4,.8,1.14,1.2,2.22,1.2,1.32,0,2.52-.38,3.6-1.14s2.04-1.71,2.88-2.85c.84-1.14,1.55-2.29,2.13-3.45,.58-1.16,1.05-2.14,1.41-2.94,.24-.56,.56-.84,.96-.84,.2,0,.3,.1,.3,.3,0,.16-.06,.36-.18,.6-.56,1.2-1.16,2.47-1.8,3.81-.64,1.34-1.4,2.6-2.28,3.78-.88,1.18-1.93,2.13-3.15,2.85-1.22,.72-2.67,1.08-4.35,1.08Zm-1.08-10.56c.56,0,1.5-.21,2.82-.63,1.32-.42,2.52-1.09,3.6-2.01,1.04-.92,1.84-1.93,2.4-3.03,.56-1.1,.84-2.03,.84-2.79,0-.88-.32-1.32-.96-1.32-.48,0-1.14,.32-1.98,.96s-1.88,1.72-3.12,3.24c-.76,.96-1.48,2-2.16,3.12-.68,1.12-1.16,1.94-1.44,2.46Z"/>
  <path class="cls-11" d="M499.19,48.3c1.44-2.92,2.83-5.81,4.17-8.67,1.34-2.86,2.71-5.59,4.11-8.19,.8-1.44,1.47-2.45,2.01-3.03,.54-.58,1.27-.87,2.19-.87,.32,0,.66,.05,1.02,.15,.36,.1,.72,.15,1.08,.15,.24,0,.42-.02,.54-.06-.56,.32-1.28,1.11-2.16,2.37-.88,1.26-1.78,2.71-2.7,4.35-.92,1.64-1.74,3.18-2.46,4.62,.76-.92,1.55-1.84,2.37-2.76,.82-.92,1.73-1.8,2.73-2.64,.96-.84,2.11-1.71,3.45-2.61,1.34-.9,2.65-1.65,3.93-2.25,1.28-.6,2.3-.9,3.06-.9,.28,0,.48,.02,.6,.06-.88,1.56-1.65,2.97-2.31,4.23-.66,1.26-1.33,2.6-2.01,4.02-.68,1.42-1.29,2.78-1.83,4.08s-.89,2.39-1.05,3.27c-.12,.52-.18,1-.18,1.44,0,.64,.12,1.06,.36,1.26,.24,.2,.5,.3,.78,.3,.76,0,1.56-.41,2.4-1.23,.84-.82,1.65-1.83,2.43-3.03,.78-1.2,1.48-2.37,2.1-3.51,.62-1.14,1.07-2.01,1.35-2.61,.16-.32,.28-.51,.36-.57,.08-.06,.2-.09,.36-.09,.24,0,.36,.16,.36,.48,0,.2-.06,.42-.18,.66-.48,.92-1.05,2.02-1.71,3.3s-1.41,2.53-2.25,3.75c-.84,1.22-1.76,2.24-2.76,3.06-1,.82-2.08,1.23-3.24,1.23-.8,0-1.63-.28-2.49-.84-.86-.56-1.29-1.6-1.29-3.12,0-.44,.04-.91,.12-1.41,.08-.5,.22-1.05,.42-1.65,.32-.8,.7-1.66,1.14-2.58,.44-.92,1.16-2.18,2.16-3.78,.28-.44,.45-.78,.51-1.02,.06-.24,.09-.44,.09-.6,0-.48-.22-.72-.66-.72-.36,0-.89,.2-1.59,.6-.7,.4-1.57,1.1-2.61,2.1-1,.96-2.19,2.32-3.57,4.08-1.38,1.76-2.97,4.36-4.77,7.8-.28,.52-.59,.8-.93,.84-.34,.04-.81,.08-1.41,.12-.4,.04-.78,.07-1.14,.09-.36,.02-.66,.13-.9,.33Z"/>
  <path class="cls-30" d="M538.01,48c-.44,.04-.94-.06-1.5-.3-.56-.24-1.05-.68-1.47-1.32-.42-.64-.63-1.54-.63-2.7,0-.96,.18-2.12,.54-3.48-.48,.76-1.1,1.69-1.86,2.79-.76,1.1-1.58,2.07-2.46,2.91-.76,.72-1.48,1.24-2.16,1.56-.68,.32-1.3,.48-1.86,.48-1.04,0-1.88-.47-2.52-1.41-.64-.94-.96-2.17-.96-3.69,0-1.6,.4-3.42,1.2-5.46s2.1-4.16,3.9-6.36c1.16-1.4,2.57-2.53,4.23-3.39,1.66-.86,3.29-1.29,4.89-1.29,.92,0,1.8,.15,2.64,.45s1.58,.79,2.22,1.47c.28,.28,.42,.6,.42,.96,0,.24-.1,.44-.3,.6-.2,.16-.46,.2-.78,.12-.44-1.4-1.38-2.1-2.82-2.1-.68,0-1.46,.22-2.34,.66-1.36,.72-2.77,1.9-4.23,3.54-1.46,1.64-2.73,3.34-3.81,5.1-.16,.24-.41,.7-.75,1.38-.34,.68-.67,1.44-.99,2.28-.32,.84-.54,1.66-.66,2.46-.04,.24-.06,.41-.06,.51v.45c0,1.32,.5,1.98,1.5,1.98,1.2,0,2.56-.88,4.08-2.64,1.04-1.28,1.98-2.62,2.82-4.02,.84-1.4,1.7-2.9,2.58-4.5,.6-1.08,1.16-1.98,1.68-2.7,.52-.72,1.26-1.08,2.22-1.08,.44,0,.88,.06,1.32,.18,.44,.12,.9,.14,1.38,.06-.32,.32-.75,.92-1.29,1.8s-1.11,1.88-1.71,3c-.6,1.12-1.14,2.26-1.62,3.42-.48,1.16-.82,2.16-1.02,3-.04,.24-.09,.58-.15,1.02-.06,.44-.09,.76-.09,.96,0,1.12,.32,1.68,.96,1.68s1.33-.38,2.07-1.14c.74-.76,1.47-1.7,2.19-2.82,.72-1.12,1.38-2.25,1.98-3.39,.6-1.14,1.08-2.07,1.44-2.79,.16-.4,.4-.6,.72-.6,.2,0,.3,.14,.3,.42,0,.12-.06,.34-.18,.66-.48,1-1.06,2.13-1.74,3.39-.68,1.26-1.42,2.48-2.22,3.66-.8,1.18-1.63,2.16-2.49,2.94-.86,.78-1.73,1.21-2.61,1.29Z"/>
  <path class="cls-2" d="M83.4,105.26c-1.96,0-3.35-.51-4.17-1.53-.82-1.02-1.23-2.09-1.23-3.21,0-.92,.23-1.76,.69-2.52,.46-.76,1.01-1.16,1.65-1.2,.8-1.56,1.67-3.26,2.61-5.1,.94-1.84,1.81-3.62,2.61-5.34,.56-1.16,1.27-2.28,2.13-3.36,.86-1.08,1.81-1.7,2.85-1.86h.6c.32,0,.61,.02,.87,.06,.26,.04,.53,.12,.81,.24,.44,.2,.66,.5,.66,.9,0,.24-.14,.36-.42,.36-.12,0-.28-.06-.48-.18-.48-.2-.9-.3-1.26-.3-.24,0-.46,.06-.66,.18-.76,.4-1.29,.96-1.59,1.68-.3,.72-.45,1.48-.45,2.28,0,.64,.07,1.29,.21,1.95,.14,.66,.31,1.25,.51,1.77,.44,1.12,.91,2.22,1.41,3.3,.5,1.08,.75,2.24,.75,3.48s-.4,2.47-1.2,3.81c-.8,1.34-1.82,2.41-3.06,3.21l.42,.06c.2,.04,.34,.06,.42,.06h.18c.92,0,1.79-.27,2.61-.81,.82-.54,1.55-1.21,2.19-2.01,.64-.8,1.37-1.92,2.19-3.36,.82-1.44,1.61-2.96,2.37-4.56,.12-.2,.26-.3,.42-.3,.2,0,.35,.07,.45,.21,.1,.14,.11,.31,.03,.51-.52,1.12-1.11,2.33-1.77,3.63-.66,1.3-1.41,2.54-2.25,3.72-.84,1.18-1.81,2.14-2.91,2.88-1.1,.74-2.33,1.11-3.69,1.11-.32,0-.66-.02-1.02-.06-.36-.04-.72-.12-1.08-.24-.4,.16-.81,.29-1.23,.39s-.81,.15-1.17,.15Zm-.48-.96c.24,0,.46-.03,.66-.09,.2-.06,.38-.11,.54-.15-.6-.44-1.13-1.03-1.59-1.77-.46-.74-.73-1.69-.81-2.85-.72,.76-1.08,1.58-1.08,2.46,0,.64,.2,1.2,.6,1.68,.4,.48,.96,.72,1.68,.72Zm2.28-.84c.68-.56,1.29-1.38,1.83-2.46,.54-1.08,.81-2.5,.81-4.26,0-1.56-.16-3.22-.48-4.98-.32-1.76-.48-3.32-.48-4.68,0-.28,0-.53,.03-.75,.02-.22,.05-.43,.09-.63-.52,1.08-1.12,2.33-1.8,3.75-.68,1.42-1.36,2.79-2.04,4.11-.68,1.32-1.26,2.44-1.74,3.36,.44,.04,.76,.19,.96,.45,.2,.26,.28,.77,.24,1.53-.04,1,.19,1.93,.69,2.79,.5,.86,1.13,1.45,1.89,1.77Z"/>
  <path class="cls-20" d="M99.3,105.02c-1.48,0-2.52-.43-3.12-1.29-.6-.86-.9-1.85-.9-2.97,0-.6,.07-1.21,.21-1.83,.14-.62,.31-1.19,.51-1.71l4.02-10.26c.12-.32,.18-.6,.18-.84,0-.4-.1-.75-.3-1.05-.2-.3-.34-.51-.42-.63l3.3-.12c.6-.04,1.03,.03,1.29,.21,.26,.18,.39,.39,.39,.63s-.14,.68-.42,1.32l-4.98,11.7c-.44,1-.68,1.58-.72,1.74-.12,.6-.2,.98-.24,1.14-.04,.16-.06,.26-.06,.3v.48c0,.52,.13,.96,.39,1.32,.26,.36,.71,.54,1.35,.54,.4,0,.86-.12,1.38-.36,.52-.24,.9-.48,1.14-.72,1-1.04,1.99-2.41,2.97-4.11,.98-1.7,1.89-3.39,2.73-5.07,.16-.4,.36-.6,.6-.6,.2,0,.3,.14,.3,.42,0,.16-.06,.4-.18,.72-.4,.84-.9,1.88-1.5,3.12-.6,1.24-1.31,2.47-2.13,3.69-.82,1.22-1.71,2.23-2.67,3.03-.96,.8-2,1.2-3.12,1.2Zm4.86-24.36c-.6,0-1.09-.21-1.47-.63-.38-.42-.57-.93-.57-1.53,0-.76,.3-1.42,.9-1.98,.6-.56,1.26-.84,1.98-.84,.64,0,1.16,.2,1.56,.6,.4,.4,.6,.88,.6,1.44,0,.76-.3,1.44-.9,2.04-.6,.6-1.3,.9-2.1,.9Z"/>
  <path class="cls-31" d="M126.6,105.2c-1.68,0-2.82-.45-3.42-1.35s-.9-1.97-.9-3.21,.18-2.6,.54-3.96c.36-1.36,.68-2.5,.96-3.42,.64-2.24,1.45-4.63,2.43-7.17,.98-2.54,2.06-5.04,3.24-7.5,1.18-2.46,2.35-4.67,3.51-6.63,.92-1.56,1.91-2.73,2.97-3.51,1.06-.78,1.99-1.17,2.79-1.17,.64,0,1.15,.23,1.53,.69,.38,.46,.57,1.15,.57,2.07,0,.64-.11,1.4-.33,2.28-.22,.88-.59,1.88-1.11,3-1.4,3.12-3.07,6.24-5.01,9.36-1.94,3.12-4.39,6.04-7.35,8.76-.16,.52-.37,1.13-.63,1.83-.26,.7-.49,1.41-.69,2.13-.24,1.08-.36,2-.36,2.76,0,1.24,.25,2.17,.75,2.79,.5,.62,1.11,.93,1.83,.93,.64,0,1.32-.23,2.04-.69,.72-.46,1.4-1.13,2.04-2.01,.96-1.4,1.83-2.83,2.61-4.29,.78-1.46,1.37-2.59,1.77-3.39,.24-.44,.5-.66,.78-.66,.2,0,.3,.12,.3,.36,0,.2-.06,.42-.18,.66-.36,.8-.83,1.83-1.41,3.09-.58,1.26-1.3,2.52-2.16,3.78-.86,1.26-1.88,2.32-3.06,3.18-1.18,.86-2.53,1.29-4.05,1.29Zm.9-13.68c1.44-1.48,2.84-3.19,4.2-5.13,1.36-1.94,2.63-3.96,3.81-6.06,1.18-2.1,2.17-4.09,2.97-5.97,.28-.6,.51-1.26,.69-1.98,.18-.72,.27-1.32,.27-1.8,0-.56-.14-.84-.42-.84-.16,0-.4,.15-.72,.45-.32,.3-.74,.81-1.26,1.53-.76,1-1.59,2.36-2.49,4.08s-1.81,3.56-2.73,5.52c-.92,1.96-1.76,3.85-2.52,5.67-.76,1.82-1.36,3.33-1.8,4.53Z"/>
  <path class="cls-6" d="M139.26,105.02c-1.52,0-2.64-.51-3.36-1.53-.72-1.02-1.08-2.27-1.08-3.75,0-1.8,.42-3.68,1.26-5.64,.8-1.84,1.82-3.52,3.06-5.04,1.24-1.52,2.58-2.75,4.02-3.69,1.44-.94,2.84-1.41,4.2-1.41,1.52,0,2.64,.5,3.36,1.5,.72,1,1.08,2.26,1.08,3.78,0,1.84-.42,3.72-1.26,5.64-.48,1.08-1.16,2.27-2.04,3.57-.88,1.3-1.88,2.49-3,3.57,.24,.44,.58,.81,1.02,1.11,.44,.3,1.04,.45,1.8,.45,.96,0,1.87-.4,2.73-1.2,.86-.8,1.65-1.77,2.37-2.91,.72-1.14,1.36-2.29,1.92-3.45,.56-1.16,1.02-2.1,1.38-2.82,.12-.24,.32-.36,.6-.36,.16,0,.28,.07,.36,.21,.08,.14,.06,.35-.06,.63-.24,.6-.64,1.49-1.2,2.67-.56,1.18-1.24,2.4-2.04,3.66-.8,1.26-1.72,2.33-2.76,3.21-1.04,.88-2.2,1.32-3.48,1.32-.88,0-1.64-.15-2.28-.45-.64-.3-1.16-.67-1.56-1.11-.84,.64-1.68,1.14-2.52,1.5-.84,.36-1.68,.54-2.52,.54Zm.9-1.32c1.08,0,2.24-.52,3.48-1.56-.32-.48-.56-.98-.72-1.5-.16-.52-.24-1-.24-1.44,0-.72,.17-1.34,.51-1.86,.34-.52,.87-.78,1.59-.78,.52,0,.95,.19,1.29,.57,.34,.38,.51,.81,.51,1.29,0,.12-.01,.23-.03,.33-.02,.1-.05,.21-.09,.33,.68-.92,1.32-2,1.92-3.24,1.32-2.84,1.98-5.18,1.98-7.02,0-.92-.18-1.64-.54-2.16-.36-.52-.9-.78-1.62-.78-.84,0-1.75,.36-2.73,1.08-.98,.72-1.92,1.68-2.82,2.88-.9,1.2-1.69,2.54-2.37,4.02-.64,1.36-1.15,2.67-1.53,3.93-.38,1.26-.57,2.35-.57,3.27,0,.8,.16,1.44,.48,1.92,.32,.48,.82,.72,1.5,.72Z"/>
  <path class="cls-35" d="M179.22,105.08c-.76,0-1.52-.31-2.28-.93-.76-.62-1.14-1.63-1.14-3.03,0-1.08,.26-2.32,.78-3.72,.48-1.36,1.13-2.68,1.95-3.96,.82-1.28,1.41-2.32,1.77-3.12,.12-.32,.18-.6,.18-.84,0-.72-.45-1.24-1.35-1.56-.9-.32-2.07-.5-3.51-.54l-.72,1.98c-.44,1.28-1.05,2.78-1.83,4.5-.78,1.72-1.64,3.38-2.58,4.98-.94,1.6-1.91,2.88-2.91,3.84-.08,.08-.18,.12-.3,.12-.16,0-.27-.1-.33-.3s.03-.44,.27-.72c1.56-2.08,2.96-4.39,4.2-6.93,1.24-2.54,2.29-5.13,3.15-7.77,.86-2.64,1.49-5.08,1.89-7.32,.12-.64,.34-1.11,.66-1.41,.32-.3,.66-.45,1.02-.45,.52,0,1,.25,1.44,.75,.44,.5,.66,1.21,.66,2.13,0,.16-.01,.34-.03,.54-.02,.2-.05,.4-.09,.6-.16,.84-.63,1.63-1.41,2.37-.78,.74-1.41,1.29-1.89,1.65,.4,.04,.82,.07,1.26,.09,.44,.02,.92,.03,1.44,.03,1.88,0,3.74-.12,5.58-.36,.08,.24,.12,.42,.12,.54,0,.52-.15,1.18-.45,1.98-.3,.8-.61,1.52-.93,2.16-.16,.36-.48,1.01-.96,1.95-.48,.94-1,2-1.56,3.18-.56,1.18-1.03,2.34-1.41,3.48-.38,1.14-.57,2.11-.57,2.91,0,1.04,.4,1.56,1.2,1.56,.6,0,1.26-.39,1.98-1.17,.72-.78,1.43-1.74,2.13-2.88,.7-1.14,1.34-2.26,1.92-3.36,.58-1.1,1.03-1.97,1.35-2.61,.16-.4,.38-.6,.66-.6,.16,0,.24,.14,.24,.42,0,.16-.06,.4-.18,.72-.44,.92-.96,1.96-1.56,3.12s-1.27,2.3-2.01,3.42c-.74,1.12-1.54,2.09-2.4,2.91-.86,.82-1.79,1.35-2.79,1.59-.12,.04-.34,.06-.66,.06Z"/>
  <path class="cls-22" d="M192,105.26c-1.48,0-2.81-.48-3.99-1.44-1.18-.96-1.77-2.42-1.77-4.38,0-1.8,.44-3.73,1.32-5.79,.88-2.06,2-3.87,3.36-5.43,1.16-1.36,2.46-2.48,3.9-3.36,1.44-.88,2.8-1.32,4.08-1.32,.88,0,1.64,.24,2.28,.72,.68,.52,1.02,1.26,1.02,2.22s-.38,2.1-1.14,3.3c-.76,1.2-1.84,2.32-3.24,3.36-.6,.44-1.36,.86-2.28,1.26-.92,.4-1.84,.73-2.76,.99-.92,.26-1.68,.39-2.28,.39-.2,.48-.39,1.12-.57,1.92-.18,.8-.27,1.62-.27,2.46,0,1,.2,1.9,.6,2.7,.4,.8,1.14,1.2,2.22,1.2,1.32,0,2.52-.38,3.6-1.14,1.08-.76,2.04-1.71,2.88-2.85,.84-1.14,1.55-2.29,2.13-3.45,.58-1.16,1.05-2.14,1.41-2.94,.24-.56,.56-.84,.96-.84,.2,0,.3,.1,.3,.3,0,.16-.06,.36-.18,.6-.56,1.2-1.16,2.47-1.8,3.81-.64,1.34-1.4,2.6-2.28,3.78-.88,1.18-1.93,2.13-3.15,2.85-1.22,.72-2.67,1.08-4.35,1.08Zm-1.08-10.56c.56,0,1.5-.21,2.82-.63,1.32-.42,2.52-1.09,3.6-2.01,1.04-.92,1.84-1.93,2.4-3.03,.56-1.1,.84-2.03,.84-2.79,0-.88-.32-1.32-.96-1.32-.48,0-1.14,.32-1.98,.96-.84,.64-1.88,1.72-3.12,3.24-.76,.96-1.48,2-2.16,3.12-.68,1.12-1.16,1.94-1.44,2.46Z"/>
  <path class="cls-36" d="M207.6,105.26c-2.28,0-3.88-.55-4.8-1.65-.92-1.1-1.38-2.45-1.38-4.05,0-1.76,.41-3.64,1.23-5.64,.82-2,1.79-3.74,2.91-5.22,1.16-1.56,2.44-2.77,3.84-3.63,1.4-.86,2.82-1.29,4.26-1.29,1.52,0,2.64,.38,3.36,1.14,.72,.76,1,1.78,.84,3.06-.08,.8-.46,1.59-1.14,2.37-.68,.78-1.36,1.17-2.04,1.17-.32,0-.6-.12-.84-.36,.32-.4,.66-.88,1.02-1.44,.36-.56,.62-1.1,.78-1.62,.16-.48,.24-.96,.24-1.44,0-1-.48-1.5-1.44-1.5-1.08,0-2.21,.55-3.39,1.65-1.18,1.1-2.21,2.29-3.09,3.57-.36,.48-.79,1.23-1.29,2.25-.5,1.02-.95,2.14-1.35,3.36-.4,1.22-.6,2.41-.6,3.57s.27,2.27,.81,3.21c.54,.94,1.45,1.41,2.73,1.41,1.76,0,3.27-.55,4.53-1.65,1.26-1.1,2.38-2.47,3.36-4.11,.98-1.64,1.87-3.24,2.67-4.8,.24-.48,.48-.72,.72-.72,.2,0,.3,.16,.3,.48,0,.16-.06,.36-.18,.6-.96,2.08-1.94,3.98-2.94,5.7-1,1.72-2.21,3.08-3.63,4.08-1.42,1-3.25,1.5-5.49,1.5Z"/>
  <path class="cls-14" d="M221.15,105.02c-1.52,0-2.64-.51-3.36-1.53-.72-1.02-1.08-2.27-1.08-3.75,0-1.8,.42-3.68,1.26-5.64,.8-1.84,1.82-3.52,3.06-5.04,1.24-1.52,2.58-2.75,4.02-3.69,1.44-.94,2.84-1.41,4.2-1.41,1.52,0,2.64,.5,3.36,1.5s1.08,2.26,1.08,3.78c0,1.84-.42,3.72-1.26,5.64-.48,1.08-1.16,2.27-2.04,3.57-.88,1.3-1.88,2.49-3,3.57,.24,.44,.58,.81,1.02,1.11,.44,.3,1.04,.45,1.8,.45,.96,0,1.87-.4,2.73-1.2,.86-.8,1.65-1.77,2.37-2.91,.72-1.14,1.36-2.29,1.92-3.45,.56-1.16,1.02-2.1,1.38-2.82,.12-.24,.32-.36,.6-.36,.16,0,.28,.07,.36,.21,.08,.14,.06,.35-.06,.63-.24,.6-.64,1.49-1.2,2.67-.56,1.18-1.24,2.4-2.04,3.66-.8,1.26-1.72,2.33-2.76,3.21s-2.2,1.32-3.48,1.32c-.88,0-1.64-.15-2.28-.45-.64-.3-1.16-.67-1.56-1.11-.84,.64-1.68,1.14-2.52,1.5s-1.68,.54-2.52,.54Zm.9-1.32c1.08,0,2.24-.52,3.48-1.56-.32-.48-.56-.98-.72-1.5-.16-.52-.24-1-.24-1.44,0-.72,.17-1.34,.51-1.86s.87-.78,1.59-.78c.52,0,.95,.19,1.29,.57s.51,.81,.51,1.29c0,.12,0,.23-.03,.33-.02,.1-.05,.21-.09,.33,.68-.92,1.32-2,1.92-3.24,1.32-2.84,1.98-5.18,1.98-7.02,0-.92-.18-1.64-.54-2.16-.36-.52-.9-.78-1.62-.78-.84,0-1.75,.36-2.73,1.08-.98,.72-1.92,1.68-2.82,2.88-.9,1.2-1.69,2.54-2.37,4.02-.64,1.36-1.15,2.67-1.53,3.93-.38,1.26-.57,2.35-.57,3.27,0,.8,.16,1.44,.48,1.92,.32,.48,.82,.72,1.5,.72Z"/>
  <path class="cls-10" d="M245.51,105.08c-.76,0-1.52-.31-2.28-.93-.76-.62-1.14-1.63-1.14-3.03,0-1.08,.26-2.32,.78-3.72,.48-1.36,1.13-2.68,1.95-3.96,.82-1.28,1.41-2.32,1.77-3.12,.12-.32,.18-.6,.18-.84,0-.72-.45-1.24-1.35-1.56-.9-.32-2.07-.5-3.51-.54l-.72,1.98c-.44,1.28-1.05,2.78-1.83,4.5-.78,1.72-1.64,3.38-2.58,4.98s-1.91,2.88-2.91,3.84c-.08,.08-.18,.12-.3,.12-.16,0-.27-.1-.33-.3-.06-.2,.03-.44,.27-.72,1.56-2.08,2.96-4.39,4.2-6.93,1.24-2.54,2.29-5.13,3.15-7.77,.86-2.64,1.49-5.08,1.89-7.32,.12-.64,.34-1.11,.66-1.41,.32-.3,.66-.45,1.02-.45,.52,0,1,.25,1.44,.75,.44,.5,.66,1.21,.66,2.13,0,.16,0,.34-.03,.54-.02,.2-.05,.4-.09,.6-.16,.84-.63,1.63-1.41,2.37-.78,.74-1.41,1.29-1.89,1.65,.4,.04,.82,.07,1.26,.09,.44,.02,.92,.03,1.44,.03,1.88,0,3.74-.12,5.58-.36,.08,.24,.12,.42,.12,.54,0,.52-.15,1.18-.45,1.98-.3,.8-.61,1.52-.93,2.16-.16,.36-.48,1.01-.96,1.95-.48,.94-1,2-1.56,3.18s-1.03,2.34-1.41,3.48c-.38,1.14-.57,2.11-.57,2.91,0,1.04,.4,1.56,1.2,1.56,.6,0,1.26-.39,1.98-1.17,.72-.78,1.43-1.74,2.13-2.88,.7-1.14,1.34-2.26,1.92-3.36,.58-1.1,1.03-1.97,1.35-2.61,.16-.4,.38-.6,.66-.6,.16,0,.24,.14,.24,.42,0,.16-.06,.4-.18,.72-.44,.92-.96,1.96-1.56,3.12-.6,1.16-1.27,2.3-2.01,3.42-.74,1.12-1.54,2.09-2.4,2.91-.86,.82-1.79,1.35-2.79,1.59-.12,.04-.34,.06-.66,.06Z"/>
  <path class="cls-21" d="M261.17,105.08c-.76,0-1.52-.31-2.28-.93-.76-.62-1.14-1.63-1.14-3.03,0-1.08,.26-2.32,.78-3.72,.48-1.36,1.13-2.68,1.95-3.96,.82-1.28,1.41-2.32,1.77-3.12,.12-.32,.18-.6,.18-.84,0-.72-.45-1.24-1.35-1.56-.9-.32-2.07-.5-3.51-.54l-.72,1.98c-.44,1.28-1.05,2.78-1.83,4.5-.78,1.72-1.64,3.38-2.58,4.98s-1.91,2.88-2.91,3.84c-.08,.08-.18,.12-.3,.12-.16,0-.27-.1-.33-.3-.06-.2,.03-.44,.27-.72,1.56-2.08,2.96-4.39,4.2-6.93,1.24-2.54,2.29-5.13,3.15-7.77,.86-2.64,1.49-5.08,1.89-7.32,.12-.64,.34-1.11,.66-1.41,.32-.3,.66-.45,1.02-.45,.52,0,1,.25,1.44,.75,.44,.5,.66,1.21,.66,2.13,0,.16,0,.34-.03,.54-.02,.2-.05,.4-.09,.6-.16,.84-.63,1.63-1.41,2.37-.78,.74-1.41,1.29-1.89,1.65,.4,.04,.82,.07,1.26,.09,.44,.02,.92,.03,1.44,.03,1.88,0,3.74-.12,5.58-.36,.08,.24,.12,.42,.12,.54,0,.52-.15,1.18-.45,1.98-.3,.8-.61,1.52-.93,2.16-.16,.36-.48,1.01-.96,1.95-.48,.94-1,2-1.56,3.18s-1.03,2.34-1.41,3.48c-.38,1.14-.57,2.11-.57,2.91,0,1.04,.4,1.56,1.2,1.56,.6,0,1.26-.39,1.98-1.17,.72-.78,1.43-1.74,2.13-2.88,.7-1.14,1.34-2.26,1.92-3.36,.58-1.1,1.03-1.97,1.35-2.61,.16-.4,.38-.6,.66-.6,.16,0,.24,.14,.24,.42,0,.16-.06,.4-.18,.72-.44,.92-.96,1.96-1.56,3.12-.6,1.16-1.27,2.3-2.01,3.42-.74,1.12-1.54,2.09-2.4,2.91-.86,.82-1.79,1.35-2.79,1.59-.12,.04-.34,.06-.66,.06Z"/>
  <path class="cls-15" d="M273.95,105.26c-1.48,0-2.81-.48-3.99-1.44-1.18-.96-1.77-2.42-1.77-4.38,0-1.8,.44-3.73,1.32-5.79,.88-2.06,2-3.87,3.36-5.43,1.16-1.36,2.46-2.48,3.9-3.36,1.44-.88,2.8-1.32,4.08-1.32,.88,0,1.64,.24,2.28,.72,.68,.52,1.02,1.26,1.02,2.22s-.38,2.1-1.14,3.3-1.84,2.32-3.24,3.36c-.6,.44-1.36,.86-2.28,1.26-.92,.4-1.84,.73-2.76,.99-.92,.26-1.68,.39-2.28,.39-.2,.48-.39,1.12-.57,1.92-.18,.8-.27,1.62-.27,2.46,0,1,.2,1.9,.6,2.7,.4,.8,1.14,1.2,2.22,1.2,1.32,0,2.52-.38,3.6-1.14s2.04-1.71,2.88-2.85c.84-1.14,1.55-2.29,2.13-3.45,.58-1.16,1.05-2.14,1.41-2.94,.24-.56,.56-.84,.96-.84,.2,0,.3,.1,.3,.3,0,.16-.06,.36-.18,.6-.56,1.2-1.16,2.47-1.8,3.81-.64,1.34-1.4,2.6-2.28,3.78-.88,1.18-1.93,2.13-3.15,2.85-1.22,.72-2.67,1.08-4.35,1.08Zm-1.08-10.56c.56,0,1.5-.21,2.82-.63,1.32-.42,2.52-1.09,3.6-2.01,1.04-.92,1.84-1.93,2.4-3.03,.56-1.1,.84-2.03,.84-2.79,0-.88-.32-1.32-.96-1.32-.48,0-1.14,.32-1.98,.96s-1.88,1.72-3.12,3.24c-.76,.96-1.48,2-2.16,3.12-.68,1.12-1.16,1.94-1.44,2.46Z"/>
  <path class="cls-29" d="M278.93,105.32c1.48-2.84,2.88-5.69,4.2-8.55,1.32-2.86,2.66-5.57,4.02-8.13,.8-1.44,1.47-2.45,2.01-3.03,.54-.58,1.27-.87,2.19-.87,.32,0,.66,.05,1.02,.15,.36,.1,.72,.15,1.08,.15,.24,0,.42-.02,.54-.06-.56,.32-1.28,1.11-2.16,2.37-.88,1.26-1.78,2.71-2.7,4.35-.92,1.64-1.74,3.18-2.46,4.62,.76-.92,1.55-1.84,2.37-2.76,.82-.92,1.73-1.8,2.73-2.64,.88-.76,1.81-1.59,2.79-2.49,.98-.9,1.95-1.67,2.91-2.31,.96-.64,1.8-.96,2.52-.96,.28,0,.46,.02,.54,.06,.76,.32,1.14,.84,1.14,1.56,0,.24-.1,.6-.3,1.08-.52,1.36-1.19,2.75-2.01,4.17-.82,1.42-1.59,2.85-2.31,4.29,.6-.72,1.35-1.6,2.25-2.64,.9-1.04,1.81-1.96,2.73-2.76,.88-.8,2-1.64,3.36-2.52,1.36-.88,2.7-1.64,4.02-2.28,1.32-.64,2.38-.96,3.18-.96,.28,0,.48,.02,.6,.06-.88,1.56-1.65,2.97-2.31,4.23-.66,1.26-1.33,2.6-2.01,4.02-.68,1.42-1.29,2.78-1.83,4.08s-.89,2.39-1.05,3.27c-.12,.52-.18,1-.18,1.44,0,.64,.12,1.06,.36,1.26,.24,.2,.5,.3,.78,.3,.8,0,1.62-.42,2.46-1.26s1.65-1.85,2.43-3.03c.78-1.18,1.47-2.34,2.07-3.48,.6-1.14,1.04-2.01,1.32-2.61,.24-.44,.48-.66,.72-.66s.36,.16,.36,.48c0,.2-.06,.42-.18,.66-.48,.92-1.05,2.02-1.71,3.3s-1.41,2.53-2.25,3.75c-.84,1.22-1.77,2.24-2.79,3.06-1.02,.82-2.11,1.23-3.27,1.23-.84,0-1.69-.28-2.55-.84s-1.29-1.6-1.29-3.12c0-.84,.18-1.86,.54-3.06,.28-.8,.71-1.72,1.29-2.76,.58-1.04,1.29-2.24,2.13-3.6,.4-.68,.6-1.22,.6-1.62,0-.48-.24-.72-.72-.72-.4,0-.95,.2-1.65,.6-.7,.4-1.57,1.1-2.61,2.1-.64,.6-1.39,1.43-2.25,2.49-.86,1.06-1.73,2.21-2.61,3.45-.88,1.24-1.64,2.46-2.28,3.66-.64,1.2-1.06,2.26-1.26,3.18-.6,0-1.08-.25-1.44-.75-.36-.5-.54-1.09-.54-1.77v-.36c0-.12,.02-.26,.06-.42,.2-1.24,.52-2.4,.96-3.48,.44-1.08,.94-2.2,1.5-3.36,.44-.84,.88-1.75,1.32-2.73,.44-.98,.66-1.73,.66-2.25,0-.32-.12-.48-.36-.48-.28,0-.74,.21-1.38,.63s-1.52,1.15-2.64,2.19c-1,.96-2.21,2.34-3.63,4.14-1.42,1.8-2.97,4.36-4.65,7.68-.24,.44-.52,.71-.84,.81-.32,.1-.82,.15-1.5,.15-.44,0-.81,0-1.11,.03-.3,.02-.61,.11-.93,.27Z"/>
  <path class="cls-39" d="M317.99,105.02c-1.52,0-2.64-.51-3.36-1.53-.72-1.02-1.08-2.27-1.08-3.75,0-1.8,.42-3.68,1.26-5.64,.8-1.84,1.82-3.52,3.06-5.04,1.24-1.52,2.58-2.75,4.02-3.69,1.44-.94,2.84-1.41,4.2-1.41,1.52,0,2.64,.5,3.36,1.5s1.08,2.26,1.08,3.78c0,1.84-.42,3.72-1.26,5.64-.48,1.08-1.16,2.27-2.04,3.57-.88,1.3-1.88,2.49-3,3.57,.24,.44,.58,.81,1.02,1.11,.44,.3,1.04,.45,1.8,.45,.96,0,1.87-.4,2.73-1.2,.86-.8,1.65-1.77,2.37-2.91,.72-1.14,1.36-2.29,1.92-3.45,.56-1.16,1.02-2.1,1.38-2.82,.12-.24,.32-.36,.6-.36,.16,0,.28,.07,.36,.21,.08,.14,.06,.35-.06,.63-.24,.6-.64,1.49-1.2,2.67-.56,1.18-1.24,2.4-2.04,3.66-.8,1.26-1.72,2.33-2.76,3.21s-2.2,1.32-3.48,1.32c-.88,0-1.64-.15-2.28-.45-.64-.3-1.16-.67-1.56-1.11-.84,.64-1.68,1.14-2.52,1.5s-1.68,.54-2.52,.54Zm.9-1.32c1.08,0,2.24-.52,3.48-1.56-.32-.48-.56-.98-.72-1.5-.16-.52-.24-1-.24-1.44,0-.72,.17-1.34,.51-1.86s.87-.78,1.59-.78c.52,0,.95,.19,1.29,.57s.51,.81,.51,1.29c0,.12,0,.23-.03,.33-.02,.1-.05,.21-.09,.33,.68-.92,1.32-2,1.92-3.24,1.32-2.84,1.98-5.18,1.98-7.02,0-.92-.18-1.64-.54-2.16-.36-.52-.9-.78-1.62-.78-.84,0-1.75,.36-2.73,1.08-.98,.72-1.92,1.68-2.82,2.88-.9,1.2-1.69,2.54-2.37,4.02-.64,1.36-1.15,2.67-1.53,3.93-.38,1.26-.57,2.35-.57,3.27,0,.8,.16,1.44,.48,1.92,.32,.48,.82,.72,1.5,.72Z"/>
  <path class="cls-19" d="M336.59,105.26c-1.96,0-3.35-.51-4.17-1.53-.82-1.02-1.23-2.09-1.23-3.21,0-.92,.23-1.76,.69-2.52,.46-.76,1.01-1.16,1.65-1.2,.8-1.56,1.67-3.26,2.61-5.1,.94-1.84,1.81-3.62,2.61-5.34,.56-1.16,1.27-2.28,2.13-3.36,.86-1.08,1.81-1.7,2.85-1.86h.6c.32,0,.61,.02,.87,.06,.26,.04,.53,.12,.81,.24,.44,.2,.66,.5,.66,.9,0,.24-.14,.36-.42,.36-.12,0-.28-.06-.48-.18-.48-.2-.9-.3-1.26-.3-.24,0-.46,.06-.66,.18-.76,.4-1.29,.96-1.59,1.68-.3,.72-.45,1.48-.45,2.28,0,.64,.07,1.29,.21,1.95,.14,.66,.31,1.25,.51,1.77,.44,1.12,.91,2.22,1.41,3.3s.75,2.24,.75,3.48-.4,2.47-1.2,3.81-1.82,2.41-3.06,3.21l.42,.06c.2,.04,.34,.06,.42,.06h.18c.92,0,1.79-.27,2.61-.81,.82-.54,1.55-1.21,2.19-2.01,.64-.8,1.37-1.92,2.19-3.36,.82-1.44,1.61-2.96,2.37-4.56,.12-.2,.26-.3,.42-.3,.2,0,.35,.07,.45,.21,.1,.14,.11,.31,.03,.51-.52,1.12-1.11,2.33-1.77,3.63s-1.41,2.54-2.25,3.72c-.84,1.18-1.81,2.14-2.91,2.88-1.1,.74-2.33,1.11-3.69,1.11-.32,0-.66-.02-1.02-.06-.36-.04-.72-.12-1.08-.24-.4,.16-.81,.29-1.23,.39s-.81,.15-1.17,.15Zm-.48-.96c.24,0,.46-.03,.66-.09,.2-.06,.38-.11,.54-.15-.6-.44-1.13-1.03-1.59-1.77-.46-.74-.73-1.69-.81-2.85-.72,.76-1.08,1.58-1.08,2.46,0,.64,.2,1.2,.6,1.68,.4,.48,.96,.72,1.68,.72Zm2.28-.84c.68-.56,1.29-1.38,1.83-2.46,.54-1.08,.81-2.5,.81-4.26,0-1.56-.16-3.22-.48-4.98-.32-1.76-.48-3.32-.48-4.68,0-.28,0-.53,.03-.75,.02-.22,.05-.43,.09-.63-.52,1.08-1.12,2.33-1.8,3.75-.68,1.42-1.36,2.79-2.04,4.11-.68,1.32-1.26,2.44-1.74,3.36,.44,.04,.76,.19,.96,.45,.2,.26,.28,.77,.24,1.53-.04,1,.19,1.93,.69,2.79,.5,.86,1.13,1.45,1.89,1.77Z"/>
  <path class="cls-13" d="M344.75,124.16c-2.08,0-3.55-.41-4.41-1.23-.86-.82-1.29-1.79-1.29-2.91s.3-2.16,.9-3.24c.56-1.16,1.34-2.15,2.34-2.97,1-.82,2.1-1.51,3.3-2.07,2.04-.96,4.39-1.74,7.05-2.34,2.66-.6,5.21-1.26,7.65-1.98,.32-.56,.65-1.14,.99-1.74,.34-.6,.65-1.18,.93-1.74,.8-1.6,1.52-3.05,2.16-4.35,.64-1.3,1.32-2.73,2.04-4.29-.12,0-.25-.04-.39-.12-.14-.08-.21-.2-.21-.36s.04-.32,.12-.48l3.12-6.96c.04-.08,.08-.19,.12-.33,.04-.14,.06-.29,.06-.45,0-.4-.1-.76-.3-1.08-.2-.32-.34-.54-.42-.66l3.3-.12c.6-.04,1.03,.03,1.29,.21,.26,.18,.39,.39,.39,.63s-.14,.68-.42,1.32l-4.8,11.28c-.56,1.32-1.16,2.64-1.8,3.96s-1.3,2.66-1.98,4.02c1.2-.48,2.3-.95,3.3-1.41,1-.46,1.96-1.06,2.88-1.8,.92-.74,1.84-1.77,2.76-3.09,.8-1.16,1.52-2.38,2.16-3.66,.64-1.28,1.1-2.18,1.38-2.7,.16-.32,.31-.52,.45-.6,.14-.08,.23-.12,.27-.12,.24,0,.36,.14,.36,.42,0,.2-.08,.44-.24,.72-1,2.12-1.92,3.91-2.76,5.37-.84,1.46-1.73,2.7-2.67,3.72-.94,1.02-2.11,1.92-3.51,2.7-1.4,.78-3.18,1.57-5.34,2.37-.96,1.72-2.06,3.51-3.3,5.37-1.24,1.86-2.64,3.6-4.2,5.22-1.56,1.62-3.27,2.94-5.13,3.96-1.86,1.02-3.91,1.53-6.15,1.53Zm-1.44-1.2c1.32,0,2.69-.4,4.11-1.2,1.42-.8,2.79-1.81,4.11-3.03,1.32-1.22,2.53-2.47,3.63-3.75,1.1-1.28,1.99-2.4,2.67-3.36,.24-.32,.46-.68,.66-1.08s.4-.8,.6-1.2c-1.92,.52-4.04,1.09-6.36,1.71-2.32,.62-4.36,1.31-6.12,2.07-1.92,.8-3.42,1.93-4.5,3.39-1.08,1.46-1.62,2.77-1.62,3.93,0,.76,.23,1.37,.69,1.83,.46,.46,1.17,.69,2.13,.69Zm29.34-40.62c-.6,0-1.09-.21-1.47-.63-.38-.42-.57-.93-.57-1.53,0-.76,.3-1.42,.9-1.98,.6-.56,1.26-.84,1.98-.84,.64,0,1.16,.2,1.56,.6,.4,.4,.6,.88,.6,1.44,0,.76-.3,1.44-.9,2.04-.6,.6-1.3,.9-2.1,.9Z"/>
  <path class="cls-4" d="M378.83,105.02c-.44,0-.97-.1-1.59-.3-.62-.2-1.16-.57-1.62-1.11-.46-.54-.69-1.35-.69-2.43s.25-2.05,.75-3.03c.5-.98,.97-1.93,1.41-2.85-.12,0-.25-.04-.39-.12-.14-.08-.21-.2-.21-.36s.04-.32,.12-.48c.16-.32,.34-.66,.54-1.02,.2-.36,.38-.74,.54-1.14,.6-1.24,1.2-2.43,1.8-3.57,.6-1.14,1.12-2.15,1.56-3.03s1.2-1.32,2.28-1.32h3.72c-.68,.52-1.29,1.09-1.83,1.71s-1.21,1.75-2.01,3.39c-.56,1.12-1.05,2.11-1.47,2.97-.42,.86-.84,1.73-1.26,2.61-.42,.88-.77,1.62-1.05,2.22-.52,1.12-.86,2.01-1.02,2.67-.16,.66-.24,1.27-.24,1.83,0,1.32,.44,1.98,1.32,1.98,.96,0,2.12-.78,3.48-2.34,1.12-1.32,2.22-2.9,3.3-4.74s2.11-3.74,3.09-5.7c.98-1.96,1.85-3.72,2.61-5.28,.44-.88,1.22-1.32,2.34-1.32h3.3c-.6,.48-1.1,.93-1.5,1.35s-.79,.98-1.17,1.68c-.38,.7-.89,1.69-1.53,2.97-.52,1.08-1.07,2.23-1.65,3.45-.58,1.22-1.09,2.37-1.53,3.45s-.72,1.96-.84,2.64c-.04,.4-.08,.7-.12,.9-.04,.2-.06,.42-.06,.66,0,.76,.13,1.3,.39,1.62,.26,.32,.57,.48,.93,.48,.96,0,1.93-.54,2.91-1.62s1.92-2.4,2.82-3.96c.9-1.56,1.67-3.04,2.31-4.44,.24-.44,.46-.66,.66-.66,.24,0,.36,.14,.36,.42,0,.2-.08,.44-.24,.72-.44,.96-.98,2.06-1.62,3.3-.64,1.24-1.36,2.46-2.16,3.66-.8,1.2-1.68,2.19-2.64,2.97s-2,1.17-3.12,1.17c-1,0-1.82-.37-2.46-1.11-.64-.74-.96-1.79-.96-3.15,0-1.08,.2-2.24,.6-3.48-.68,1.2-1.46,2.4-2.34,3.6-.88,1.2-1.82,2.19-2.82,2.97-1,.78-2,1.17-3,1.17Z"/>
  <path class="cls-8" d="M392.75,105.5c1.44-2.92,2.83-5.81,4.17-8.67,1.34-2.86,2.71-5.59,4.11-8.19,.8-1.44,1.47-2.45,2.01-3.03,.54-.58,1.27-.87,2.19-.87,.32,0,.66,.05,1.02,.15,.36,.1,.72,.15,1.08,.15,.24,0,.42-.02,.54-.06-.56,.32-1.28,1.11-2.16,2.37-.88,1.26-1.78,2.71-2.7,4.35-.92,1.64-1.74,3.18-2.46,4.62,.76-.92,1.55-1.84,2.37-2.76,.82-.92,1.73-1.8,2.73-2.64,.96-.84,2.11-1.71,3.45-2.61,1.34-.9,2.65-1.65,3.93-2.25,1.28-.6,2.3-.9,3.06-.9,.28,0,.48,.02,.6,.06-.88,1.56-1.65,2.97-2.31,4.23-.66,1.26-1.33,2.6-2.01,4.02-.68,1.42-1.29,2.78-1.83,4.08s-.89,2.39-1.05,3.27c-.12,.52-.18,1-.18,1.44,0,.64,.12,1.06,.36,1.26,.24,.2,.5,.3,.78,.3,.76,0,1.56-.41,2.4-1.23,.84-.82,1.65-1.83,2.43-3.03,.78-1.2,1.48-2.37,2.1-3.51,.62-1.14,1.07-2.01,1.35-2.61,.16-.32,.28-.51,.36-.57,.08-.06,.2-.09,.36-.09,.24,0,.36,.16,.36,.48,0,.2-.06,.42-.18,.66-.48,.92-1.05,2.02-1.71,3.3s-1.41,2.53-2.25,3.75c-.84,1.22-1.76,2.24-2.76,3.06-1,.82-2.08,1.23-3.24,1.23-.8,0-1.63-.28-2.49-.84-.86-.56-1.29-1.6-1.29-3.12,0-.44,.04-.91,.12-1.41,.08-.5,.22-1.05,.42-1.65,.32-.8,.7-1.66,1.14-2.58,.44-.92,1.16-2.18,2.16-3.78,.28-.44,.45-.78,.51-1.02,.06-.24,.09-.44,.09-.6,0-.48-.22-.72-.66-.72-.36,0-.89,.2-1.59,.6-.7,.4-1.57,1.1-2.61,2.1-1,.96-2.19,2.32-3.57,4.08-1.38,1.76-2.97,4.36-4.77,7.8-.28,.52-.59,.8-.93,.84-.34,.04-.81,.08-1.41,.12-.4,.04-.78,.07-1.14,.09-.36,.02-.66,.13-.9,.33Z"/>
  <path class="cls-18" d="M421.55,105.02c-1.12,0-2.12-.39-3-1.17s-1.32-2.01-1.32-3.69c0-1.32,.25-2.95,.75-4.89,.5-1.94,1.12-3.96,1.86-6.06,.74-2.1,1.47-4.01,2.19-5.73h-3.18c-.28,0-.42-.2-.42-.6,0-.2,.05-.38,.15-.54,.1-.16,.25-.24,.45-.24h3.6c.68-1.52,1.4-3,2.16-4.44,.76-1.44,1.5-2.8,2.22-4.08,.92-1.6,1.9-2.8,2.94-3.6,1.04-.8,1.94-1.2,2.7-1.2,.6,0,1.1,.23,1.5,.69,.4,.46,.6,1.15,.6,2.07,0,.56-.12,1.33-.36,2.31-.24,.98-.62,2.01-1.14,3.09-.28,.56-.67,1.36-1.17,2.4-.5,1.04-.99,1.96-1.47,2.76h2.88c.28,0,.42,.2,.42,.6,0,.16-.04,.33-.12,.51-.08,.18-.2,.27-.36,.27h-3.54c-1,1.72-2.14,3.4-3.42,5.04-1.28,1.64-2.8,3.28-4.56,4.92-.12,.36-.27,.88-.45,1.56s-.34,1.37-.48,2.07c-.14,.7-.31,1.53-.51,2.49-.12,.52-.18,1-.18,1.44,0,.84,.2,1.45,.6,1.83,.4,.38,.86,.57,1.38,.57,.32,0,.64-.05,.96-.15,.32-.1,.68-.29,1.08-.57,1.4-1,2.63-2.36,3.69-4.08,1.06-1.72,1.99-3.38,2.79-4.98,.24-.48,.48-.72,.72-.72,.16,0,.24,.12,.24,.36,0,.12-.06,.34-.18,.66-.88,1.84-1.62,3.32-2.22,4.44-.6,1.12-1.18,2.05-1.74,2.79-.56,.74-1.22,1.47-1.98,2.19-.56,.56-1.2,.98-1.92,1.26-.72,.28-1.44,.42-2.16,.42Zm.84-13.5c1.16-1.2,2.25-2.48,3.27-3.84,1.02-1.36,1.97-2.76,2.85-4.2h-2.82c-.64,1.48-1.24,2.92-1.8,4.32-.56,1.4-1.06,2.64-1.5,3.72Zm3.9-9.42h3.06c.56-1.04,1.09-2.06,1.59-3.06,.5-1,.95-2,1.35-3,.28-.64,.52-1.36,.72-2.16s.3-1.42,.3-1.86c0-.6-.14-.9-.42-.9-.2,0-.49,.17-.87,.51s-.85,.91-1.41,1.71c-.72,1-1.43,2.29-2.13,3.87-.7,1.58-1.43,3.21-2.19,4.89Z"/>
  <path class="cls-17" d="M433.55,105.02c-1.52,0-2.64-.51-3.36-1.53-.72-1.02-1.08-2.27-1.08-3.75,0-1.8,.42-3.68,1.26-5.64,.8-1.84,1.82-3.52,3.06-5.04,1.24-1.52,2.58-2.75,4.02-3.69,1.44-.94,2.84-1.41,4.2-1.41,1.52,0,2.64,.5,3.36,1.5s1.08,2.26,1.08,3.78c0,1.84-.42,3.72-1.26,5.64-.48,1.08-1.16,2.27-2.04,3.57-.88,1.3-1.88,2.49-3,3.57,.24,.44,.58,.81,1.02,1.11,.44,.3,1.04,.45,1.8,.45,.96,0,1.87-.4,2.73-1.2,.86-.8,1.65-1.77,2.37-2.91,.72-1.14,1.36-2.29,1.92-3.45,.56-1.16,1.02-2.1,1.38-2.82,.12-.24,.32-.36,.6-.36,.16,0,.28,.07,.36,.21,.08,.14,.06,.35-.06,.63-.24,.6-.64,1.49-1.2,2.67-.56,1.18-1.24,2.4-2.04,3.66-.8,1.26-1.72,2.33-2.76,3.21s-2.2,1.32-3.48,1.32c-.88,0-1.64-.15-2.28-.45-.64-.3-1.16-.67-1.56-1.11-.84,.64-1.68,1.14-2.52,1.5s-1.68,.54-2.52,.54Zm.9-1.32c1.08,0,2.24-.52,3.48-1.56-.32-.48-.56-.98-.72-1.5-.16-.52-.24-1-.24-1.44,0-.72,.17-1.34,.51-1.86s.87-.78,1.59-.78c.52,0,.95,.19,1.29,.57s.51,.81,.51,1.29c0,.12,0,.23-.03,.33-.02,.1-.05,.21-.09,.33,.68-.92,1.32-2,1.92-3.24,1.32-2.84,1.98-5.18,1.98-7.02,0-.92-.18-1.64-.54-2.16-.36-.52-.9-.78-1.62-.78-.84,0-1.75,.36-2.73,1.08-.98,.72-1.92,1.68-2.82,2.88-.9,1.2-1.69,2.54-2.37,4.02-.64,1.36-1.15,2.67-1.53,3.93-.38,1.26-.57,2.35-.57,3.27,0,.8,.16,1.44,.48,1.92,.32,.48,.82,.72,1.5,.72Z"/>
  <path class="cls-27" d="M452.15,105.26c-1.96,0-3.35-.51-4.17-1.53-.82-1.02-1.23-2.09-1.23-3.21,0-.92,.23-1.76,.69-2.52,.46-.76,1.01-1.16,1.65-1.2,.8-1.56,1.67-3.26,2.61-5.1,.94-1.84,1.81-3.62,2.61-5.34,.56-1.16,1.27-2.28,2.13-3.36,.86-1.08,1.81-1.7,2.85-1.86h.6c.32,0,.61,.02,.87,.06,.26,.04,.53,.12,.81,.24,.44,.2,.66,.5,.66,.9,0,.24-.14,.36-.42,.36-.12,0-.28-.06-.48-.18-.48-.2-.9-.3-1.26-.3-.24,0-.46,.06-.66,.18-.76,.4-1.29,.96-1.59,1.68-.3,.72-.45,1.48-.45,2.28,0,.64,.07,1.29,.21,1.95,.14,.66,.31,1.25,.51,1.77,.44,1.12,.91,2.22,1.41,3.3s.75,2.24,.75,3.48-.4,2.47-1.2,3.81-1.82,2.41-3.06,3.21l.42,.06c.2,.04,.34,.06,.42,.06h.18c.92,0,1.79-.27,2.61-.81,.82-.54,1.55-1.21,2.19-2.01,.64-.8,1.37-1.92,2.19-3.36,.82-1.44,1.61-2.96,2.37-4.56,.12-.2,.26-.3,.42-.3,.2,0,.35,.07,.45,.21,.1,.14,.11,.31,.03,.51-.52,1.12-1.11,2.33-1.77,3.63s-1.41,2.54-2.25,3.72c-.84,1.18-1.81,2.14-2.91,2.88-1.1,.74-2.33,1.11-3.69,1.11-.32,0-.66-.02-1.02-.06-.36-.04-.72-.12-1.08-.24-.4,.16-.81,.29-1.23,.39s-.81,.15-1.17,.15Zm-.48-.96c.24,0,.46-.03,.66-.09,.2-.06,.38-.11,.54-.15-.6-.44-1.13-1.03-1.59-1.77-.46-.74-.73-1.69-.81-2.85-.72,.76-1.08,1.58-1.08,2.46,0,.64,.2,1.2,.6,1.68,.4,.48,.96,.72,1.68,.72Zm2.28-.84c.68-.56,1.29-1.38,1.83-2.46,.54-1.08,.81-2.5,.81-4.26,0-1.56-.16-3.22-.48-4.98-.32-1.76-.48-3.32-.48-4.68,0-.28,0-.53,.03-.75,.02-.22,.05-.43,.09-.63-.52,1.08-1.12,2.33-1.8,3.75-.68,1.42-1.36,2.79-2.04,4.11-.68,1.32-1.26,2.44-1.74,3.36,.44,.04,.76,.19,.96,.45,.2,.26,.28,.77,.24,1.53-.04,1,.19,1.93,.69,2.79,.5,.86,1.13,1.45,1.89,1.77Z"/>
</svg>