<?xml version="1.0" encoding="UTF-8"?>
<svg id="Layer_1" data-name="Layer 1" xmlns="http://www.w3.org/2000/svg" xmlns:xlink="http://www.w3.org/1999/xlink" viewBox="0 0 69.81 75">
  <defs>
    <style>
      .cls-1 {
        fill: url(#Bronze-2);
      }

      .cls-2 {
        fill: url(#Bronze-4);
      }

      .cls-3 {
        fill: url(#Bronze-3);
      }

      .cls-4 {
        fill: url(#Bronze-6);
      }

      .cls-5 {
        fill: url(#Bronze-8);
      }

      .cls-6 {
        fill: url(#Bronze-9);
      }

      .cls-7 {
        fill: url(#Bronze-5);
      }

      .cls-8 {
        fill: url(#Bronze-11);
      }

      .cls-9 {
        fill: url(#Bronze);
      }

      .cls-10 {
        fill: url(#Bronze-7);
      }

      .cls-11 {
        fill: url(#Bronze-12);
      }

      .cls-12 {
        fill: url(#Bronze-10);
      }
    </style>
    <linearGradient id="Bronze" x1="-26.92" y1="59.5" x2="65" y2="-17.09" gradientUnits="userSpaceOnUse">
      <stop offset="0" stop-color="#401617"/>
      <stop offset=".08" stop-color="#6b4c2d"/>
      <stop offset=".38" stop-color="#a58a55"/>
      <stop offset=".56" stop-color="#e5d4b5"/>
      <stop offset=".8" stop-color="#987a59"/>
      <stop offset=".8" stop-color="#967857"/>
      <stop offset=".96" stop-color="#814f2f"/>
    </linearGradient>
    <linearGradient id="Bronze-2" data-name="Bronze" x1="-27.56" y1="58.73" x2="64.35" y2="-17.86" xlink:href="#Bronze"/>
    <linearGradient id="Bronze-3" data-name="Bronze" x1="-19.12" y1="68.86" x2="72.79" y2="-7.74" xlink:href="#Bronze"/>
    <linearGradient id="Bronze-4" data-name="Bronze" x1="-16.51" y1="71.99" x2="75.4" y2="-4.61" xlink:href="#Bronze"/>
    <linearGradient id="Bronze-5" data-name="Bronze" x1="-1.76" y1="89.69" x2="90.15" y2="13.09" xlink:href="#Bronze"/>
    <linearGradient id="Bronze-6" data-name="Bronze" x1="-22.61" y1="64.67" x2="69.31" y2="-11.92" xlink:href="#Bronze"/>
    <linearGradient id="Bronze-7" data-name="Bronze" x1="-9.37" y1="80.56" x2="82.55" y2="3.97" xlink:href="#Bronze"/>
    <linearGradient id="Bronze-8" data-name="Bronze" x1="-5.78" y1="84.87" x2="86.13" y2="8.27" xlink:href="#Bronze"/>
    <linearGradient id="Bronze-9" data-name="Bronze" x1="-6.88" y1="83.57" x2="85.04" y2="6.98" xlink:href="#Bronze"/>
    <linearGradient id="Bronze-10" data-name="Bronze" x1="14.15" y1="108.79" x2="106.07" y2="32.19" xlink:href="#Bronze"/>
    <linearGradient id="Bronze-11" data-name="Bronze" x1="8.59" y1="102.11" x2="100.5" y2="25.51" xlink:href="#Bronze"/>
    <linearGradient id="Bronze-12" data-name="Bronze" x1="-22.61" y1="64.67" x2="69.3" y2="-11.92" xlink:href="#Bronze"/>
  </defs>
  <g id="stemware">
    <path class="cls-9" d="M42.57,2.29h-1.07V1.2c0-.66-.54-1.2-1.2-1.2s-1.2,.54-1.2,1.2v1.09h-1.11c-.66,0-1.2,.54-1.2,1.2s.54,1.2,1.2,1.2h1.11v1.09c0,.66,.54,1.2,1.2,1.2s1.2-.54,1.2-1.2v-1.09h1.07c.66,0,1.2-.54,1.2-1.2s-.54-1.2-1.2-1.2Z"/>
    <path class="cls-1" d="M32.98,8.99h-1.07v-1.11c0-.66-.54-1.2-1.2-1.2s-1.2,.54-1.2,1.2v1.11h-1.11c-.66,0-1.2,.54-1.2,1.2s.54,1.2,1.2,1.2h1.11v1.07c0,.66,.54,1.2,1.2,1.2s1.2-.54,1.2-1.2v-1.07h1.07c.66,0,1.2-.54,1.2-1.2s-.54-1.2-1.2-1.2Z"/>
    <path class="cls-3" d="M49.57,12.32h-1.07v-1.11c0-.66-.54-1.2-1.2-1.2s-1.2,.54-1.2,1.2v1.11h-1.11c-.66,0-1.2,.54-1.2,1.2s.54,1.2,1.2,1.2h1.11v1.07c0,.66,.54,1.2,1.2,1.2s1.2-.54,1.2-1.2v-1.07h1.07c.66,0,1.2-.54,1.2-1.2s-.54-1.2-1.2-1.2Z"/>
    <path class="cls-2" d="M18.13,44.19c-.59,0-1.19-.08-1.77-.23-.64-.17-1.02-.83-.85-1.47,.17-.64,.83-1.02,1.47-.85,.38,.1,.76,.15,1.15,.15,1.99,0,3.73-1.34,4.25-3.27,.17-.64,.83-1.02,1.47-.85,.64,.17,1.02,.83,.85,1.47-.8,2.97-3.5,5.05-6.57,5.05Z"/>
    <path class="cls-7" d="M51.69,50.17c-3.07,0-5.78-2.08-6.57-5.05-.17-.64,.21-1.3,.85-1.47,.64-.17,1.3,.21,1.47,.85,.52,1.92,2.26,3.27,4.25,3.27,.38,0,.77-.05,1.15-.15,.64-.17,1.3,.21,1.47,.85,.17,.64-.21,1.3-.85,1.47-.58,.16-1.18,.23-1.77,.23Z"/>
    <path class="cls-4" d="M18.13,48.39h0c-.96,0-1.92-.13-2.86-.38-2.84-.76-5.22-2.58-6.69-5.13-1.47-2.55-1.86-5.52-1.1-8.36L12.82,14.59c.02-.06,.04-.13,.06-.19,.18-.63,.84-1.02,1.47-.85l18.94,5.08c.63,.17,1.01,.81,.86,1.45-.02,.1-.03,.16-.05,.22l-5.34,19.93c-1.29,4.81-5.66,8.17-10.64,8.17Zm-3.24-32.22l-5.08,18.96c-.6,2.22-.29,4.54,.86,6.54,1.15,1.99,3.01,3.42,5.23,4.01,.73,.2,1.49,.3,2.24,.3,3.89,0,7.31-2.63,8.31-6.39l5.08-18.97-16.64-4.46Z"/>
    <path class="cls-10" d="M20.39,66.65l-8.28-2.22,4.33-16.18c-.4-.06-.79-.14-1.18-.24-.39-.11-.77-.23-1.14-.38l-4.33,16.18-8.28-2.22c-.64-.17-1.3,.21-1.47,.85-.17,.64,.21,1.3,.85,1.47l18.87,5.06c.1,.03,.21,.04,.31,.04,.53,0,1.02-.35,1.16-.89,.17-.64-.21-1.3-.85-1.47Z"/>
    <polygon class="cls-5" points="58.89 36.93 41.06 36.93 41.7 39.34 59.54 39.34 58.89 36.93"/>
    <path class="cls-6" d="M51.69,54.38c-4.97,0-9.35-3.36-10.64-8.17l-5.34-19.93c-.02-.06-.03-.13-.04-.19-.16-.64,.22-1.31,.85-1.48l18.94-5.08c.63-.17,1.28,.2,1.46,.82,.03,.09,.05,.16,.07,.22l5.34,19.93c.76,2.84,.37,5.81-1.1,8.36-1.47,2.55-3.85,4.37-6.69,5.13-.94,.25-1.9,.38-2.86,.38Zm-13.39-27.76l5.08,18.97c1.01,3.76,4.43,6.39,8.31,6.39,.75,0,1.5-.1,2.24-.3,2.22-.6,4.08-2.02,5.23-4.01,1.15-1.99,1.46-4.31,.86-6.54l-5.08-18.97-16.64,4.46Z"/>
    <path class="cls-12" d="M49.74,75c-.53,0-1.02-.35-1.16-.89-.17-.64,.21-1.3,.85-1.47l18.87-5.06c.64-.17,1.3,.21,1.47,.85,.17,.64-.21,1.3-.85,1.47l-18.87,5.06c-.1,.03-.21,.04-.31,.04Z"/>
    <path class="cls-8" d="M60.03,69.8l-4.33-16.18c-.37,.14-.75,.27-1.14,.38-.39,.1-.78,.18-1.18,.24l4.33,16.18,2.32-.62Z"/>
    <polygon class="cls-11" points="11.81 27.62 11.17 30.02 29.01 30.02 29.65 27.62 11.81 27.62"/>
  </g>
</svg>