<?xml version="1.0" encoding="UTF-8"?>
<svg id="Layer_1" data-name="Layer 1" xmlns="http://www.w3.org/2000/svg" viewBox="0 0 57.27 17.84">
  <defs>
    <style>
      .cls-1, .cls-2 {
        fill: #716007;
      }

      .cls-2 {
        font-family: GreatVibes-Regular, 'Great Vibes';
        font-size: 50px;
      }
    </style>
  </defs>
  <text class="cls-2" transform="translate(-50.4 -6.14)"><tspan x="0" y="0">Ceremonia</tspan></text>
  <path class="cls-1" d="M56.9,8.2c-.67-.72-1.91-.51-2.53,.13-.73,.76-.06,2.07-.44,3.01-.38,.95-1.6,1.77-2.6,2.17-1.86,.74-3.83,1.13-5.82,1.35-2.58,.28-5.51-.14-8.04-.75-1.54-.37-3.05-.9-4.54-1.44-.9-.33-1.78-.68-2.66-1.05-.32-.13-2.1-.93-2.34-1.15,.93-.58,2.15-1.33,2.95-1.84,.57-.36,1.06-.3,1.75-.09,4.51,1.37,8.51,2.27,12.95,1.15,1.88-.48,4.59-1.77,5.11-3.74,.54-2.07-.06-4.05-1.85-5.07-2.72-1.55-6.38-.82-9.08,.42-2.64,1.22-5.2,2.75-7.63,4.34-.49,.32-.88,.74-1.42,.47-2.05-1.04-5.8-3.07-11.23-4.83C15.73,.06,11.11-.36,7.37,.82,5.06,1.55,2.6,2.84,1.08,4.76c-.77,.97-1.51,2.87-.78,4.04,.46,.74,1.34,.92,2.07,.37,.82-.62,.3-1.65,.33-2.54,.04-.8,.6-1.46,1.17-1.99,1.04-.96,2.41-1.71,3.75-2.16,3.18-1.09,7.8-.78,10.94,.16,2.85,.86,5.61,1.99,8.29,3.3,.85,.42,1.76,.73,2.57,1.43-1.05,.93-2.27,1.48-3.4,2.18-.37,.23-.74,.02-1.11-.07-2.05-.5-4.06-1.24-6.16-1.48-3.08-.35-5.49-.51-7.97,.57-1.97,.86-3.78,2.3-3.86,4.7-.07,2.33,1.85,4.1,3.78,4.46,1.75,.33,4.28-.02,6-.7,1.38-.55,6.74-3.62,8.4-4.76,.48-.33,.66-.62,1.27-.5,.58,.11,1.29,.52,1.84,.75,3.25,1.39,6.64,2.41,10.07,3.33,5.38,1.46,9.99,.48,11.34,.16,3.07-.73,5.41-1.76,7.11-4.42,.49-.76,.85-2.64,.17-3.38Zm-13.38-5.92c.86-.17,1.77-.2,2.65-.13,1.64,.14,3.17,1.67,2.24,3.33-.57,1.01-1.74,1.57-2.77,2-2.13,.87-4.45,.87-6.72,.67-1.89-.17-3.77-.53-5.58-1.07,1.26-.9,7.56-4.27,10.19-4.8ZM15.97,14.99c-1.69,.54-3.44,.67-5.11,.18-.94-.27-1.8-.97-1.87-2-.14-2.01,1.83-3,3.5-3.41,1.86-.46,3.83-.47,5.73-.26,.99,.11,5.15,.88,5.61,1.2-.16,.45-5.95,3.68-7.87,4.29Z"/>
</svg>