<?xml version="1.0" encoding="UTF-8"?>
<svg id="Layer_1" data-name="Layer 1" xmlns="http://www.w3.org/2000/svg" xmlns:xlink="http://www.w3.org/1999/xlink" viewBox="0 0 75 75">
  <defs>
    <style>
      .cls-1 {
        fill: #fff;
      }

      .cls-2 {
        fill: #3d3d3d;
      }

      .cls-3 {
        fill: url(#_Áåçûìÿííûé_ãðàäèåíò_9);
      }

      .cls-4 {
        fill: #515252;
      }
    </style>
    <linearGradient id="_Áåçûìÿííûé_ãðàäèåíò_9" data-name="Áåçûìÿííûé ãðàäèåíò 9" x1="37.5" y1="75" x2="37.5" y2="0" gradientUnits="userSpaceOnUse">
      <stop offset="0" stop-color="#72f1f8"/>
      <stop offset=".3" stop-color="#6aebf6"/>
      <stop offset=".76" stop-color="#54def2"/>
      <stop offset="1" stop-color="#46d5f0"/>
    </linearGradient>
  </defs>
  <rect class="cls-3" width="75" height="75" rx="16.03" ry="16.03"/>
  <g>
    <path class="cls-1" d="M37.87,17.14c-3.75,.51-7.43,2.06-10.37,4.39-3.27,2.58-5.38,5.89-6.1,9.56-.22,1.11-.31,2.32-.4,3.6-.38,5-.9,8.04-4.99,8.04-.48,0-.91,.27-1.13,.7-.21,.43-.17,.94,.12,1.32,5.53,7.33,15.01,8.18,21.66,8.18,.17,0,.34,0,.5,0,.12,0,.25,0,.38,0,.19,0,.39,0,.59,0,.22,0,.45,0,.68,0,3.11,0,6.39-.15,9.31-1.24,5.2-1.94,9.57-6.29,11.15-11.1,1.78-5.42,.96-10.91-2.33-15.45-3.66-5.05-9.93-8.19-16.38-8.19-.9,0-1.81,.06-2.7,.18"/>
    <g>
      <path class="cls-2" d="M37.34,30.74c0,1.33-1.08,2.42-2.42,2.42s-2.42-1.08-2.42-2.42,1.08-2.42,2.42-2.42,2.42,1.08,2.42,2.42"/>
      <path class="cls-2" d="M48.62,30.74c0,1.33-1.08,2.42-2.42,2.42s-2.42-1.08-2.42-2.42,1.08-2.42,2.42-2.42,2.42,1.08,2.42,2.42"/>
      <path class="cls-2" d="M40.48,43.7c-4.09,0-7.78-2.68-8.46-6.2-.13-.68,.32-1.34,1-1.47,.68-.13,1.34,.32,1.47,1,.4,2.06,2.87,4.24,6.17,4.15,3.43-.09,5.7-2.14,6.17-4.12,.16-.68,.84-1.09,1.51-.94,.68,.16,1.1,.84,.94,1.51-.38,1.62-1.42,3.12-2.93,4.22-1.57,1.15-3.52,1.79-5.62,1.84-.08,0-.16,0-.25,0"/>
      <g>
        <path class="cls-2" d="M61.21,32.05s-.01-.08-.02-.12c-.48-2.7-1.56-5.23-3.22-7.53-1.9-2.63-4.51-4.83-7.53-6.35-.91-.46-1.85-.85-2.81-1.18-2.28-.77-4.67-1.18-7.06-1.18-.96,0-1.92,.07-2.87,.19-1.33,.18-2.65,.48-3.94,.9-2.55,.83-4.97,2.11-7.04,3.74-3.51,2.77-5.78,6.34-6.55,10.31-.23,1.18-.33,2.49-.42,3.75-.15,1.98-.3,4.02-.93,5.36-.43,.91-1.07,1.52-2.8,1.52-.54,0-1.06,.18-1.49,.49-.32,.23-.58,.54-.76,.9-.43,.85-.33,1.88,.24,2.64,.16,.22,.33,.43,.5,.63,3.08,3.75,7.14,5.77,11.27,6.86,3.8,.99,7.67,1.19,10.9,1.19h.51c.12,0,.24,0,.37,0,.19,0,.39,0,.59,0h.69c2.97,0,6.1-.13,9-1.06,.25-.08,.5-.17,.75-.26,2.59-.97,5.06-2.53,7.14-4.53,2.25-2.16,3.89-4.7,4.77-7.35,.29-.88,.51-1.76,.67-2.64,.39-2.11,.41-4.22,.06-6.29Zm-3.12,8.15c-1.57,4.78-5.95,8.65-10.4,10.31-2.9,1.08-6.29,1.16-8.87,1.16-.45,0-.88,0-1.27,0-.13,0-.26,0-.39,0-.16,0-.33,0-.5,0-6.5,0-15.47-.8-20.66-7.68,7.11,0,5.71-7.95,6.63-12.66,1.4-7.18,8.51-12.02,15.4-12.95,.85-.12,1.7-.17,2.54-.17,11.33,0,21.42,10.12,17.52,21.99Z"/>
        <g>
          <path class="cls-2" d="M23.34,53.9c0-2.75,2.23-4.99,4.99-4.99s4.99,2.23,4.99,4.99-2.23,4.99-4.99,4.99-4.99-2.23-4.99-4.99"/>
          <path class="cls-4" d="M26.68,53.9c0-.91,.74-1.65,1.65-1.65s1.65,.74,1.65,1.65-.74,1.65-1.65,1.65-1.65-.74-1.65-1.65"/>
          <path class="cls-2" d="M40.65,53.9c0-2.75,2.23-4.99,4.99-4.99s4.99,2.23,4.99,4.99-2.23,4.99-4.99,4.99-4.99-2.23-4.99-4.99"/>
          <path class="cls-4" d="M44,53.9c0-.91,.74-1.65,1.65-1.65s1.65,.74,1.65,1.65-.74,1.65-1.65,1.65-1.65-.74-1.65-1.65"/>
        </g>
      </g>
    </g>
  </g>
</svg>