<?xml version="1.0" encoding="UTF-8"?>
<svg id="Layer_1" data-name="Layer 1" xmlns="http://www.w3.org/2000/svg" xmlns:xlink="http://www.w3.org/1999/xlink" viewBox="0 0 82.76 75">
  <defs>
    <style>
      .cls-1 {
        fill: url(#Bronze-2);
      }

      .cls-2 {
        fill: url(#Bronze-4);
      }

      .cls-3 {
        fill: url(#Bronze-3);
      }

      .cls-4 {
        fill: url(#Bronze-5);
      }

      .cls-5 {
        fill: url(#Bronze);
      }
    </style>
    <linearGradient id="Bronze" x1="13.19" y1="11.62" x2="27.01" y2="11.62" gradientUnits="userSpaceOnUse">
      <stop offset="0" stop-color="#401617"/>
      <stop offset=".08" stop-color="#6b4c2d"/>
      <stop offset=".38" stop-color="#a58a55"/>
      <stop offset=".56" stop-color="#e5d4b5"/>
      <stop offset=".8" stop-color="#987a59"/>
      <stop offset=".8" stop-color="#967857"/>
      <stop offset=".96" stop-color="#814f2f"/>
    </linearGradient>
    <linearGradient id="Bronze-2" data-name="Bronze" x1="0" y1="45.37" x2="82.76" y2="45.37" xlink:href="#Bronze"/>
    <linearGradient id="Bronze-3" data-name="Bronze" x1="53.68" y1="7.44" x2="68.55" y2="7.44" xlink:href="#Bronze"/>
    <linearGradient id="Bronze-4" data-name="Bronze" x1="57.09" y1="20.86" x2="65.73" y2="20.86" xlink:href="#Bronze"/>
    <linearGradient id="Bronze-5" data-name="Bronze" x1="22.44" y1="6.7" x2="29.95" y2="6.7" xlink:href="#Bronze"/>
  </defs>
  <path class="cls-5" d="M13.8,14.56c1.11,2.36,3.5,4,6.27,4s5.13-1.61,6.25-3.94c0,0,.86-1.73,.65-3.67-.42-4.04-3.3-6.26-6.9-6.26-3.02,0-5.58,1.94-6.53,4.63h0s-.02,.06-.02,.06c-.1,.31-.22,.61-.25,.94-.34,3.19,.54,4.23,.54,4.23Zm6.27-8.26c2.08,0,3.89,1.2,4.76,2.95l.54,1.96c0,.06,0,.13,0,.19-4.32-.67-6.88-3.25-7.87-4.45,.76-.42,1.63-.65,2.55-.65Zm-5.24,4.38l.22-.83c.26-.72,.66-1.37,1.18-1.91,1.13,1.42,4.02,4.33,8.97,5.07-.61,2.27-2.68,3.94-5.14,3.94-2.94,0-5.32-2.39-5.32-5.32,0-.32,.03-.64,.09-.95Z"/>
  <path class="cls-1" d="M82.22,38.89l-12.07-20.87-.09-.24c-.53-1.25-1.74-2.05-3.09-2.05h-11.26c-1.27,0-2.45,.63-3.16,1.68l-12.54,21.47c-.28,.48-.45,.99-.51,1.53l-6.71-11.6,.28,.07c.02-.06,.02-.12,.04-.18-.54-.47-.97-1.11-1.23-1.95-.02,.12-.04,.25-.06,.37l-.67-1.16s-2.76-5.41-3.27-5.79l.05,.17c-.59-.71-1.47-1.13-2.43-1.13H15.08c-1.17,0-2.26,.57-2.93,1.53l-3.06,5.22-.43,.73c-.05-.25-1.26,1.84-1.2,2.06L.51,40.67c-.5,.86-.64,1.87-.38,2.83,.25,.96,.87,1.77,1.73,2.27l.05,.03c.57,.33,1.22,.51,1.88,.51,1.33,0,2.56-.71,3.23-1.85l4.49-7.51v1.04c-3.51,5.93-5.6,15.39-5.6,25.37,0,3.45,.24,7.13,.65,10.09l.1,.69h26.87l.1-.69c.4-2.9,.64-6.67,.64-10.09,0-9.77-1.93-18.83-5.3-24.86l-.28-.47v-1.03s4.46,7.46,4.46,7.46c.67,1.14,1.9,1.86,3.23,1.86,.66,0,1.31-.18,1.88-.51l.05-.03c.86-.5,1.48-1.31,1.73-2.27,.04-.15,.07-.29,.09-.44,.33,.52,.78,.95,1.33,1.27l.06,.03c.61,.35,1.3,.54,2,.54,1.41,0,2.73-.76,3.43-1.97l4.97-8.33v36.06c0,2.39,1.95,4.34,4.34,4.34h.07c2.18,0,3.96-1.78,3.96-3.96v-22.02h1.69v21.63c0,2.39,1.95,4.34,4.34,4.34h.07c2.18,0,3.96-1.78,3.96-3.96v-22.82l.02-13.57,4.95,8.27c.71,1.22,2.03,1.97,3.44,1.97,.7,0,1.39-.19,2-.54l.05-.03c.92-.53,1.57-1.39,1.84-2.42,.27-1.03,.13-2.1-.41-3.01ZM23.68,20.84c-.12,1.78-1.6,3.19-3.4,3.19s-3.28-1.41-3.4-3.19h6.8Zm8.43,51.69H8.05c-.11-.88-.2-1.82-.28-2.79h24.61c-.08,.98-.17,1.92-.28,2.79Zm.53-9.17c0,1.56-.05,3.18-.14,4.77H7.65c-.09-1.57-.14-3.19-.14-4.77,0-9.59,1.96-18.64,5.26-24.34h14.62l.16,.28c3.24,5.79,5.09,14.56,5.09,24.06Zm5.83-20.27c-.14,.55-.49,1.01-.99,1.29l-.05,.03c-.32,.19-.69,.29-1.07,.29-.75,0-1.46-.4-1.84-1.06l-5.88-9.83c-.15-.25-.43-.41-.73-.41-.47,0-.85,.38-.85,.85v3.17H13.11v-2.71c0-.55-.44-.99-.99-.99-.35,0-.67,.18-.85,.48l-5.64,9.45c-.38,.65-1.08,1.06-1.84,1.06-.37,0-.74-.1-1.07-.29l-.05-.03c-.49-.29-.84-.75-.99-1.29-.14-.55-.07-1.12,.22-1.61L13.45,21.69c.37-.53,.97-.85,1.62-.85h.19c.12,2.66,2.32,4.8,5.01,4.8s4.89-2.13,5.01-4.8h.2c.62,0,1.18,.36,1.42,.93l.1,.29,11.23,19.42c.29,.49,.36,1.06,.22,1.61Zm30.25,4.13v23.83c0,1.29-1.05,2.35-2.35,2.35h-.07c-1.51,0-2.73-1.23-2.73-2.73v-23.24h-4.91s0,23.63,0,23.63c0,1.29-1.05,2.35-2.35,2.35h-.07c-1.51,0-2.73-1.23-2.73-2.73v-28.42h15.21v4.97Zm11.25-4.28l-.05,.03c-.36,.21-.77,.32-1.19,.32-.84,0-1.62-.45-2.05-1.18l-6.36-10.63c-.15-.26-.43-.41-.73-.41-.47,0-.85,.38-.85,.85v8.72h-15.23v-8.23c0-.55-.45-1.01-1.01-1.01-.36,0-.68,.18-.86,.49l-6.1,10.22c-.42,.72-1.21,1.17-2.05,1.17-.42,0-.83-.11-1.19-.32l-.06-.03c-1.13-.66-1.51-2.11-.85-3.23l12.5-21.4c.41-.6,1.09-.95,1.81-.95h11.26c.7,0,1.32,.41,1.6,1.05l.11,.31,12.15,21c.66,1.13,.27,2.58-.85,3.23Z"/>
  <path class="cls-3" d="M61.11,14.87c4.1,0,7.44-3.34,7.44-7.44s-3.34-7.44-7.44-7.44-7.44,3.34-7.44,7.44,3.34,7.44,7.44,7.44Zm5.81-7.83c-5.13-.3-7.59-3.43-8.43-4.81,.79-.4,1.68-.63,2.62-.63,3.08,0,5.6,2.41,5.81,5.44Zm-9.75-3.89c1.05,1.69,3.9,5.15,9.64,5.49-.56,2.63-2.9,4.61-5.7,4.61-3.21,0-5.83-2.61-5.83-5.83,0-1.69,.73-3.21,1.88-4.28Z"/>
  <path class="cls-2" d="M64.17,17.65c-.41,0-.8,.16-1.1,.46l-1.66,1.66-1.66-1.66c-.3-.3-.68-.46-1.1-.46-.86,0-1.56,.7-1.56,1.56v3.25c0,.89,.73,1.62,1.62,1.62,.43,0,.83-.17,1.14-.48l1.56-1.56,1.56,1.56c.31,.31,.71,.48,1.14,.48h0c.42,0,.81-.16,1.12-.44,.33-.31,.51-.73,.51-1.18v-3.25c0-.86-.7-1.56-1.56-1.56Zm-5.45,5.62v-.8s0,0,0,0v.81Zm0-.81v-3.13s1.56,1.57,1.56,1.57l-1.56,1.56Zm5.39,0l-1.56-1.56,1.57-1.57v3.12s0,0-.01,0Z"/>
  <path class="cls-4" d="M22.44,5.77c.42-1.65,1.91-2.88,3.69-2.88,2.1,0,3.81,1.71,3.81,3.81s-1.71,3.81-3.81,3.81c0,0-.92-2.28-1.46-2.89-.48-.54-2.24-1.85-2.24-1.85Z"/>
</svg>