<?xml version="1.0" encoding="UTF-8"?>
<svg id="Layer_1" data-name="Layer 1" xmlns="http://www.w3.org/2000/svg" xmlns:xlink="http://www.w3.org/1999/xlink" viewBox="0 0 99.32 75">
  <defs>
    <style>
      .cls-1 {
        fill: url(#Bronze-2);
      }

      .cls-2 {
        fill: url(#Bronze-4);
      }

      .cls-3 {
        fill: url(#Bronze-3);
      }

      .cls-4 {
        fill: url(#Bronze-6);
      }

      .cls-5 {
        fill: url(#Bronze-8);
      }

      .cls-6 {
        fill: url(#Bronze-9);
      }

      .cls-7 {
        fill: url(#Bronze-5);
      }

      .cls-8 {
        fill: url(#Bronze);
      }

      .cls-9 {
        fill: url(#Bronze-7);
      }

      .cls-10 {
        fill: url(#Bronze-10);
      }
    </style>
    <linearGradient id="Bronze" x1="-48.17" y1="73.41" x2="88.68" y2="-18.5" gradientUnits="userSpaceOnUse">
      <stop offset="0" stop-color="#401617"/>
      <stop offset=".08" stop-color="#6b4c2d"/>
      <stop offset=".38" stop-color="#a58a55"/>
      <stop offset=".56" stop-color="#e5d4b5"/>
      <stop offset=".8" stop-color="#987a59"/>
      <stop offset=".8" stop-color="#967857"/>
      <stop offset=".96" stop-color="#814f2f"/>
    </linearGradient>
    <linearGradient id="Bronze-2" data-name="Bronze" x1="-58.84" y1="57.53" x2="78.01" y2="-34.39" xlink:href="#Bronze"/>
    <linearGradient id="Bronze-3" data-name="Bronze" x1="-39.26" y1="86.68" x2="97.59" y2="-5.23" xlink:href="#Bronze"/>
    <linearGradient id="Bronze-4" data-name="Bronze" x1="-30.36" y1="99.94" x2="106.49" y2="8.02" xlink:href="#Bronze"/>
    <linearGradient id="Bronze-5" data-name="Bronze" x1="-26.65" y1="105.46" x2="110.21" y2="13.55" xlink:href="#Bronze"/>
    <linearGradient id="Bronze-6" data-name="Bronze" x1="-18.57" y1="117.48" x2="118.28" y2="25.57" xlink:href="#Bronze"/>
    <linearGradient id="Bronze-7" data-name="Bronze" x1="-42.78" y1="81.45" x2="94.07" y2="-10.47" xlink:href="#Bronze"/>
    <linearGradient id="Bronze-8" data-name="Bronze" x1="-40.51" y1="84.81" x2="96.34" y2="-7.1" xlink:href="#Bronze"/>
    <linearGradient id="Bronze-9" data-name="Bronze" x1="-39.96" y1="85.64" x2="96.89" y2="-6.28" xlink:href="#Bronze"/>
    <linearGradient id="Bronze-10" data-name="Bronze" x1="-43.33" y1="80.62" x2="93.52" y2="-11.29" xlink:href="#Bronze"/>
  </defs>
  <g id="gift">
    <path class="cls-8" d="M70.39,3.36c-1.23-2.1-3.93-3.36-7.23-3.36-5.36,0-11.02,3.23-13.63,10.16C46.92,3.23,41.26,0,35.9,0c-3.29,0-5.99,1.25-7.23,3.36-.95,1.62-1.08,4.94,.89,8.38,1.87,3.27,6.96,8.76,19.96,8.76,0,0,0,0,.02,0h0c12.99,0,18.07-5.49,19.95-8.76,1.97-3.44,1.84-6.75,.89-8.38Zm-38.25,6.91c-1.38-2.4-1.35-4.65-.91-5.41,.67-1.15,2.51-1.89,4.67-1.89,4.33,0,11.53,3.11,12.11,14.55-10.38-.38-14.39-4.65-15.88-7.25Zm34.79,0c-1.49,2.59-5.5,6.86-15.88,7.25,.58-11.44,7.78-14.55,12.11-14.55,2.16,0,4,.74,4.67,1.89,.45,.76,.47,3.01-.91,5.41Z"/>
    <path class="cls-1" d="M18.41,5.95h-1.16v-1.2c0-.82-.66-1.48-1.48-1.48s-1.48,.66-1.48,1.48v1.2h-1.2c-.82,0-1.48,.66-1.48,1.48s.66,1.48,1.48,1.48h1.2v1.16c0,.82,.66,1.48,1.48,1.48s1.48-.66,1.48-1.48v-1.16h1.16c.82,0,1.48-.66,1.48-1.48s-.66-1.48-1.48-1.48Z"/>
    <path class="cls-3" d="M85.79,17.54H13.31c-.82,0-1.48,.66-1.48,1.48v16.04c0,.82,.66,1.48,1.48,1.48h31.22v-2.96H14.79v-13.08H84.31v13.08h-29.79v2.96h31.27c.82,0,1.48-.66,1.48-1.48V19.02c0-.82-.66-1.48-1.48-1.48Z"/>
    <path class="cls-2" d="M54.56,75h-10.03c-.82,0-1.48-.66-1.48-1.48V19.02c0-.82,.66-1.48,1.48-1.48h10.03c.82,0,1.48,.66,1.48,1.48v54.51c0,.82-.66,1.48-1.48,1.48Zm-8.55-2.96h7.07V20.49h-7.07v51.55Z"/>
    <path class="cls-7" d="M79.46,33.58h-26.38v2.96h24.9v35.5H21.12V36.54h24.89v-2.96H19.64c-.82,0-1.48,.66-1.48,1.48v38.46c0,.82,.66,1.48,1.48,1.48h59.82c.82,0,1.48-.66,1.48-1.48V35.06c0-.82-.66-1.48-1.48-1.48Z"/>
    <path class="cls-4" d="M94.14,46.96c-2.86,0-5.18-2.32-5.18-5.18s2.32-5.18,5.18-5.18,5.18,2.32,5.18,5.18-2.32,5.18-5.18,5.18Zm0-7.4c-1.22,0-2.22,1-2.22,2.22s1,2.22,2.22,2.22,2.22-1,2.22-2.22-1-2.22-2.22-2.22Z"/>
    <path class="cls-9" d="M3.5,52.52H1.48c-.82,0-1.48-.66-1.48-1.48s.66-1.48,1.48-1.48H3.5c.82,0,1.48,.66,1.48,1.48s-.66,1.48-1.48,1.48Z"/>
    <path class="cls-5" d="M10.78,52.52h-2.02c-.82,0-1.48-.66-1.48-1.48s.66-1.48,1.48-1.48h2.02c.82,0,1.48,.66,1.48,1.48s-.66,1.48-1.48,1.48Z"/>
    <path class="cls-6" d="M6.13,57.17c-.82,0-1.48-.66-1.48-1.48v-2.02c0-.82,.66-1.48,1.48-1.48s1.48,.66,1.48,1.48v2.02c0,.82-.66,1.48-1.48,1.48Z"/>
    <path class="cls-10" d="M6.13,49.9c-.82,0-1.48-.66-1.48-1.48v-2.02c0-.82,.66-1.48,1.48-1.48s1.48,.66,1.48,1.48v2.02c0,.82-.66,1.48-1.48,1.48Z"/>
  </g>
</svg>