<?xml version="1.0" encoding="UTF-8"?>
<svg id="Layer_1" data-name="Layer 1" xmlns="http://www.w3.org/2000/svg" xmlns:xlink="http://www.w3.org/1999/xlink" viewBox="0 0 80.39 75">
  <defs>
    <style>
      .cls-1 {
        fill: url(#Bronze-2);
      }

      .cls-2 {
        fill: url(#Bronze-3);
      }

      .cls-3 {
        fill: url(#Bronze);
      }
    </style>
    <linearGradient id="Bronze" x1="-26.81" y1="64.17" x2="109.63" y2="-13.03" gradientUnits="userSpaceOnUse">
      <stop offset="0" stop-color="#401617"/>
      <stop offset=".08" stop-color="#6b4c2d"/>
      <stop offset=".38" stop-color="#a58a55"/>
      <stop offset=".56" stop-color="#e5d4b5"/>
      <stop offset=".8" stop-color="#987a59"/>
      <stop offset=".8" stop-color="#967857"/>
      <stop offset=".96" stop-color="#814f2f"/>
    </linearGradient>
    <linearGradient id="Bronze-2" data-name="Bronze" x1="-16.44" y1="82.49" x2="120" y2="5.29" xlink:href="#Bronze"/>
    <linearGradient id="Bronze-3" data-name="Bronze" x1="-28.52" y1="61.15" x2="107.92" y2="-16.04" xlink:href="#Bronze"/>
  </defs>
  <g id="invitation">
    <path class="cls-3" d="M40.19,41c-.34,0-.68-.11-.96-.33-.48-.38-1.01-.78-1.56-1.21-5.09-3.92-12.06-9.29-12.06-15.32,0-5.27,4.18-7.64,7.15-7.64,2.38,0,5.56,1.18,7.43,3.16,1.87-1.97,5.05-3.16,7.43-3.16,2.97,0,7.15,2.37,7.15,7.64,0,5.66-6.46,10.8-11.18,14.55-.88,.7-1.71,1.36-2.39,1.94-.29,.25-.65,.37-1,.37Zm-7.43-21.42s-4.06,.2-4.06,4.55,6.53,9.54,10.86,12.87c.21,.16,.41,.31,.6,.46,.47-.38,.98-.79,1.5-1.2,3.99-3.17,10.02-7.97,10.02-12.13s-4.02-4.55-4.06-4.55c-2.59,0-5.89,2.02-5.89,3.6,0,.85-.69,1.55-1.55,1.55s-1.55-.69-1.55-1.55c0-1.58-3.3-3.6-5.89-3.6Z"/>
    <path class="cls-1" d="M80.33,30.75c.03-.1,.04-.2,.05-.29,0,0,0-.02,0-.02,0-.09,0-.18-.01-.26,0-.02,0-.04,0-.06-.01-.08-.03-.15-.06-.22,0-.03-.02-.06-.03-.09-.04-.09-.08-.18-.13-.26,0,0,0-.02-.01-.03h0c-.06-.09-.12-.17-.19-.24-.07-.08-.15-.14-.24-.2h0l-13.84-9.15v3.7l10.18,6.73-33.48,22.14c-1.44,.95-3.3,.95-4.74,0L4.35,30.36l10.18-6.73v-3.7L.7,29.07c-.09,.06-.17,.12-.24,.2-.07,.07-.14,.15-.19,.24h0s-.02,.04-.03,.06c-.04,.07-.08,.13-.11,.21-.02,.05-.03,.1-.05,.15-.01,.05-.03,.09-.04,.13,0,.05-.01,.11-.02,.16,0,.05-.01,.09-.01,.14s0,.09,.01,.14c0,.05,0,.11,.02,.16,0,.03,.02,.06,.03,.09-.03,.13-.06,.26-.06,.39v38.45c0,2.98,2.43,5.41,5.41,5.41H74.98c2.98,0,5.41-2.43,5.41-5.41V31.15c0-.14-.02-.27-.06-.39,0,0,0,0,0,0Zm-3.03,38.84c0,1.28-1.04,2.32-2.32,2.32H5.41c-1.28,0-2.32-1.04-2.32-2.32V33.24l33.03,21.84c1.24,.82,2.66,1.23,4.07,1.23s2.84-.41,4.07-1.23l33.03-21.84v36.35Z"/>
    <path class="cls-2" d="M14.53,37.1l3.09,2.04V14.07h10.78c.85,0,1.55-.69,1.55-1.55V3.09H62.76V39s0,.09,.01,.13l3.08-2.03V1.55c0-.85-.69-1.55-1.55-1.55H27.59c-.41,0-.81,.17-1.1,.46L14.97,10.63c-.28,.29-.44,.68-.44,1.08v25.38ZM26.86,4.5v6.48h-7.9l7.9-6.48Z"/>
  </g>
</svg>