<?xml version="1.0" encoding="UTF-8"?>
<svg id="Layer_1" data-name="Layer 1" xmlns="http://www.w3.org/2000/svg" viewBox="0 0 268.17 260.34">
  <defs>
    <style>
      .cls-1 {
        fill: #f8f1e0;
      }
    </style>
  </defs>
  <path class="cls-1" d="M101.77,235.13c-.73-12.48-11.09-22.37-23.75-22.37s-23.01,9.89-23.75,22.37c-.03,.47-.04,.94-.04,1.42,0,.39,0,.78,.03,1.16,.61,12.6,11.01,22.63,23.76,22.63s23.16-10.03,23.76-22.63c.02-.39,.03-.77,.03-1.16,0-.48-.01-.95-.04-1.42Zm-43.31-6.85c1.07-2.53,2.6-4.8,4.55-6.75,1.95-1.95,4.22-3.48,6.75-4.55,2.62-1.11,5.4-1.67,8.26-1.67s5.65,.56,8.26,1.67c2.53,1.07,4.8,2.6,6.75,4.55,1.95,1.95,3.48,4.22,4.55,6.75,.92,2.18,1.47,4.48,1.62,6.85h-11.8c-.12-.78-.33-1.54-.64-2.27-.48-1.13-1.16-2.14-2.04-3.02-.88-.88-1.89-1.56-3.02-2.04-1.16-.49-2.4-.74-3.69-.74s-2.53,.25-3.69,.74c-1.13,.48-2.14,1.16-3.02,2.04-.88,.88-1.56,1.89-2.04,3.02-.31,.73-.52,1.49-.64,2.27h-11.8c.15-2.37,.7-4.66,1.62-6.85Zm26.5,8.26c0,.39-.03,.78-.09,1.16-.09,.53-.24,1.04-.44,1.53-.35,.82-.85,1.57-1.49,2.21-.64,.64-1.38,1.14-2.21,1.49-.84,.36-1.75,.54-2.69,.54s-1.85-.18-2.69-.54c-.82-.35-1.57-.85-2.21-1.49-.64-.64-1.14-1.39-1.49-2.21-.21-.49-.36-1-.44-1.53-.06-.38-.09-.77-.09-1.16,0-.48,.05-.96,.14-1.42,.09-.44,.22-.86,.4-1.27,.35-.82,.85-1.57,1.49-2.21,.64-.64,1.39-1.14,2.21-1.49,.84-.36,1.75-.54,2.69-.54s1.85,.18,2.69,.54c.82,.35,1.57,.85,2.21,1.49,.64,.64,1.14,1.39,1.49,2.21,.17,.41,.31,.84,.4,1.27,.09,.46,.14,.93,.14,1.42Zm12.63,8.26c-1.07,2.53-2.6,4.8-4.55,6.75-1.95,1.95-4.22,3.48-6.75,4.55-2.62,1.11-5.4,1.67-8.26,1.67s-5.65-.56-8.26-1.67c-2.53-1.07-4.8-2.6-6.75-4.55-1.95-1.95-3.48-4.22-4.55-6.75-.96-2.26-1.51-4.64-1.64-7.1h11.78c.1,.87,.33,1.72,.67,2.53,.48,1.13,1.16,2.14,2.04,3.02,.88,.88,1.89,1.56,3.02,2.04,1.16,.49,2.4,.74,3.69,.74s2.53-.25,3.69-.74c1.13-.48,2.14-1.16,3.02-2.04,.88-.88,1.56-1.89,2.04-3.02,.34-.81,.57-1.65,.67-2.53h11.78c-.13,2.46-.68,4.84-1.64,7.1Z"/>
  <g>
    <path class="cls-1" d="M154.94,6.2c-14.31-2.07-28.98-1.67-43.14,1.26-13.76,2.85-27.01,8.01-39.07,15.21-6.74,4.03-13.1,8.68-18.98,13.89-.85,.76-2.16-.46-1.3-1.23,10.66-9.44,22.83-17.09,35.99-22.55,13.31-5.52,27.57-8.76,41.96-9.51,8.33-.43,16.69-.02,24.94,1.18,1.14,.16,.73,1.91-.4,1.74Z"/>
    <path class="cls-1" d="M95.99,249.4c-.03,.31,.17,.77,.43,.94,.42,.29,.96,.44,1.46,.61,6.62,2.13,13.37,3.69,20.25,4.64,26.63,3.71,52.09-.15,76.14-12.26,23.04-11.6,40.81-28.79,53.36-51.33,4.2-7.54,7.49-15.47,10.05-23.73,2.04-6.57,3.49-13.26,4.41-20.07,1.04-7.64,1.4-15.32,.95-23.02-.15-2.51,.26-4.84,1.33-7.09,.46-.96,.92-1.92,1.35-2.9,.15-.34,.32-.71,.33-1.07,0-.25-.19-.63-.4-.73-.2-.1-.67-.01-.8,.16-.42,.53-.75,1.13-1.08,1.73-.33,.58-.61,1.19-.91,1.79-.13-.02-.26-.04-.4-.05-.08-.52-.18-1.04-.25-1.56-.59-4.61-1.39-9.19-2.5-13.7-.3-1.21-.36-2.39-.08-3.61,.58-2.52,1.11-5.06,1.66-7.59,.22-1,.74-1.8,1.5-2.5,5.03-4.65,6.06-10.5,5-16.95-.14-.83-.27-1.75-1.27-1.97-.85-.18-1.39,.48-1.91,1.04-4.8,5.19-6.48,11.23-4.91,18.15,.08,.35,.15,.75,.07,1.09-.42,1.85-.89,3.7-1.35,5.54,0,.03-.12,.04-.34,.11-.13-.3-.31-.61-.41-.94-1.4-4.51-3.02-8.95-4.86-13.3-.92-2.16-.91-4.45-.73-6.74,.08-.98,.14-1.97,.14-2.96,0-.42-.34-.71-.76-.65-.24,.04-.6,.3-.64,.51-.22,1.11-.36,2.24-.52,3.35-.41,.18-.52-.12-.66-.37-1.97-3.52-3.95-7.04-5.92-10.56-.15-.26-.32-.53-.41-.81-1.34-4.13-2.63-8.27-4-12.39-.48-1.44-.44-2.76-.01-4.22,2.49-8.44,.19-15.6-5.98-21.67-.05-.05-.11-.11-.17-.16-.63-.55-1.24-1.27-2.17-.99-1,.29-.96,1.27-1.06,2.08-.58,4.93-.19,9.76,1.96,14.29,1.17,2.47,2.56,4.84,3.95,7.21,.81,1.39,1.57,2.77,1.97,4.34,.34,1.33,.83,2.61,1.25,3.92,.11,.34,.18,.7,.27,1.04-.52,.3-.61-.13-.75-.31-2.04-2.56-4.11-5.11-6.06-7.74-1.08-1.46-2-3.05-2.91-4.64-.72-1.25-1.29-2.59-1.96-3.87-.21-.4-.49-.77-.8-1.09-.11-.12-.45-.12-.63-.05-.18,.08-.43,.32-.42,.48,.04,.59,.18,1.17,.29,1.76-.49,.16-.65-.3-.9-.53-1.5-1.4-2.93-2.89-4.48-4.24-1.4-1.21-2.59-2.57-3.57-4.12-1.96-3.09-3.94-6.16-5.89-9.25-.7-1.11-1.06-2.29-1.04-3.67,.02-1.43-.23-2.88-.45-4.31-.49-3.18-1.87-5.93-4.08-8.28-2.26-2.41-4.93-4.3-7.75-5.98-1.01-.6-1.85-.06-1.81,1.09,.01,.38,.09,.76,.16,1.13,.58,2.86,1.46,5.62,2.95,8.13,2.2,3.68,4.67,7.15,8.07,9.84,1.1,.87,1.92,1.91,2.58,3.14,.97,1.8,2.08,3.54,3.33,5.64-.66-.35-1.03-.49-1.34-.72-4.55-3.46-9.31-6.6-14.26-9.46-.92-.53-1.78-1.18-2.56-1.89-4.85-4.38-10.51-6.88-16.97-7.75-3.26-.44-6.51-.7-9.79-.65-.75,.01-1.51,.12-2.25,.28-.52,.11-.72,.97-.33,1.31,.34,.3,.72,.56,1.13,.76,5.32,2.66,10.75,5.08,16.39,6.94,3.02,1,6.22,1.43,9.35,2.09,.82,.17,1.66,.22,2.49,.33,1.61,.23,3.09,.77,4.45,1.68,1.71,1.14,3.46,2.22,5.18,3.35,.36,.23,.64,.57,1.21,1.08-.89-.15-1.41-.25-1.93-.31-.4-.05-.75,.06-.92,.49-.15,.4,.09,.79,.68,.99,.43,.15,.88,.26,1.32,.37,6.41,1.61,4.63,.71,9.78,4.96,3.22,2.66,6.22,5.6,9.3,8.43,.5,.46,.93,.99,1.77,1.89-.84-.34-1.18-.45-1.51-.61-3.17-1.51-6.43-2.77-9.8-3.77-.79-.23-1.61-.57-2.24-1.07-5.66-4.52-12.23-5.52-19.18-5.07-2.36,.15-4.68,.6-6.94,1.3-.71,.22-1.62,.36-1.58,1.36,.03,.82,.81,1.01,1.46,1.24,1.22,.43,2.42,.94,3.67,1.24,3.62,.89,7.23,1.92,10.98,2.11,1.82,.09,3.66,.18,5.47,.04,4.19-.32,8.16,.45,12.08,1.91,4.24,1.58,8.21,3.63,11.84,6.33,.54,.4,1.09,.83,1.53,1.35,3.44,4.08,6.61,8.37,9.48,12.88,.12,.19,.2,.41,.32,.66-.12,.16-.24,.33-.38,.5-.5,.61-.58,1-.18,1.34,.63,.54,1.29,1.07,1.98,1.54,.97,.66,1.68,1.5,2.24,2.53,1.72,3.14,3.4,6.29,4.97,9.92-.54-.28-.8-.36-1-.52-1.75-1.46-3.47-2.96-5.25-4.4-1.25-1.02-2.34-2.15-3.24-3.5-2.14-3.26-4.95-5.78-8.6-7.25-2.2-.89-4.54-1.3-6.88-1.59-.98-.12-1.97-.25-2.95-.27-.31,0-.77,.27-.9,.54-.13,.26,0,.71,.13,1.04,.1,.27,.35,.5,.57,.71,2.91,2.81,5.98,5.42,9.59,7.31,1.83,.96,3.74,1.7,5.78,2.07,.67,.12,1.33,.33,2,.49,1.36,.33,2.5,1.01,3.59,1.89,3.03,2.44,6,4.93,8.57,7.87,.61,.7,1.13,1.42,1.46,2.29,3.22,8.42,5.59,17.08,6.97,25.99,.07,.43,.06,.87,.11,1.63-.46-.38-.69-.53-.86-.72-.54-.64-1.03-1.33-1.6-1.94-1.31-1.41-2.27-2.96-2.94-4.81-1.2-3.31-3.3-6.03-6.51-7.65-1.48-.75-3.12-1.19-4.7-1.74-.27-.09-.6-.05-.89,0-.43,.06-.81,.6-.71,1.02,.11,.44,.24,.88,.46,1.28,2.3,4.15,5.33,7.64,9.61,9.8,2.25,1.13,4.1,2.59,5.54,4.61,.04,.06,.1,.12,.15,.18,3.18,3.96,3.3,4.24,3.57,9.3,.12,2.13,.2,4.26,.29,6.39,.02,.45-.01,.89-.02,1.55-.46-.31-.78-.57-1.14-.74-.44-.2-1.03,.21-.95,.64,.09,.44,.21,.89,.4,1.29,2.15,4.38,1.72,3.21,1.42,8.12-.41,6.7-1.49,13.31-3.01,19.86-10.91,46.86-48.69,84.04-98.14,93.25-11.36,2.12-22.81,2.66-34.33,1.61-8.83-.8-17.51-2.36-25.97-5.05-.94-.3-1.91-.54-2.87-.77-.41-.1-.83,.12-.87,.51ZM253.05,107.13c-1.6-.38-2.71-1.41-3.83-2.38-2.32-1.99-3.84-3.94-4.66-5.94,4.47,1.26,7.59,4.33,8.49,8.32Zm-14.02-35.59c-3.06-.13-5.06-.83-8.18-2.74-2.92-1.79-5.23-3.73-6.04-5.14,5.89,.47,10.76,2.54,14.22,7.88Zm-29.72-33.53c-4.38,1.33-15.33,.08-20.84-2.42,.37-.2,.49-.3,.63-.33,5.6-1.23,11.14-.99,16.59,.84,1.29,.43,2.5,1.07,3.62,1.91Zm-15.95-19.69c-.24,.04-.46,.14-.64,.1-3.12-.69-6.31-1.17-9.34-2.16-4.4-1.43-8.65-3.32-13.19-5.48,7.23-1.21,20.65,3.25,23.17,7.54Zm15.02,.19c0,.05-.11,.1-.16,.15-4.2-2.55-9.39-10.86-9.88-16.02,2.54,1.48,4.68,3.22,6.26,4.95,2.82,3.1,3.82,6.83,3.78,10.92Zm29.1,27.29c-4.84-6.22-7.21-14.91-5.61-20.02,2.09,1.16,4.58,4.67,5.74,8.16,1.28,3.85,1.31,7.69-.13,11.86Zm23.72,41.01c-1.1-4.36,.44-10.8,3.93-14.6,.22-.24,.56-.37,.88-.58,1.34,4.62-.35,12.67-4.81,15.18Z"/>
    <path class="cls-1" d="M2.43,133.15c1.82-.94,3.14-2.38,4.05-4.2,.86-1.73,1.22-3.59,1.43-5.5,.3-2.81,.61-3.47,2.55-6.17,0,.83,.03,1.51,.01,2.18,0,.2-.01,.4-.02,.6,.48-1.05,1.12-1.81,1.85-2.3,0,0,0-.02,0-.03,.37-4.1,.99-8.17,1.69-12.22,.12-.67,.3-1.33,.45-1.96,.46-.12,.57,.15,.66,.45,.09,.29,.17,.59,.29,.87,.18,.44,.42,.83,.99,.76,.47-.05,.71-.55,.53-1.28-.23-.96-.51-1.91-.78-2.86-.53-1.81-.42-3.57,.09-5.39,5.5-19.59,15.45-36.68,28.99-51.76,.36-.4,.73-.78,1.06-1.2,.47-.59,.49-1.11,.08-1.4-.41-.29-.87-.19-1.41,.33-.22,.21-.42,.44-.62,.67-8.49,9.36-15.7,19.61-21.3,30.95-1.45,2.93-2.71,5.96-4.03,8.96-.4,.92-.85,1.76-1.64,2.43-.81,.69-1.53,1.48-2.28,2.24-.3,.31-.37,.72-.07,1.02,.17,.18,.54,.21,.82,.23,.21,.01,.43-.09,.84-.19-.11,.51-.15,.92-.28,1.31-2.3,6.65-3.77,13.49-4.95,20.42-.14,.81-.34,1.65-.69,2.39-.88,1.86-1.85,3.67-2.8,5.49-.28,.54-.68,.97-1.26,1.26-1.19,.59-2.05,1.57-2.77,2.66-1.9,2.91-3.08,6.11-3.8,9.49-.15,.68-.25,1.42,.39,1.9,.64,.49,1.32,.19,1.94-.12Zm-.28-3c.62-2.11,1.34-4.17,2.47-6.07,.38-.64,.61-1.39,1.43-1.81,.39,1.34-.11,2.56-.36,3.79-.27,1.35-.86,2.58-1.75,3.64-.46,.55-.9,1.18-1.86,1.4,.03-.42,0-.7,.07-.95Z"/>
  </g>
  <path class="cls-1" d="M129.01,56.37c1.03,2.07,1.55,4.44,1.55,6.82,0,8.78-5.89,18.5-15.91,18.5-11.16,0-7.75-22.11,13.43-25.94-1.86-3.31-5.48-5.58-10.75-5.58-10.13,0-17.36,7.23-17.36,12.81,0,.72,.31,2.27,.31,2.48,0,.72-.62,1.34-1.45,1.34-.72,0-1.45-.52-1.45-1.34,0-3.1,5.68-15.91,19.94-15.91,5.68,0,9.3,2.58,11.37,6.1,1.76-.31,3.72-.41,5.79-.41,12.4,0,19.53,5.37,27.69,8.27,5.48-3.41,10.95-5.37,16.43-5.37s4.13,7.75-6.92,7.75c-1.65,0-3.31-.1-4.75-.41-7.96,7.96-16.74,21.49-25.83,33.58-7.75,10.23-15.91,19.43-23.25,23.25,2.07,.62,4.34,1.24,7.44,1.24,7.85,0,16.22-11.16,16.22-11.16h.72s-8.78,11.78-16.95,11.78c-3.51,0-5.99-.72-8.27-1.45-2.07,.93-4.13,1.45-5.99,1.45-4.24,0-3.31-3.41,.21-3.41,1.96,0,3.62,.62,5.37,1.14,5.68-3.31,11.37-11.16,17.98-20.36,1.65-2.38-3.2-5.99-11.88,5.68-.41,.41-.83,.1-.62-.21,1.14-1.45,1.55-3.51,1.34-5.79l-2.48,2.58c-12.81,13.54-23.35,24.08-37.2,24.08-7.54,0-12.92-2.07-16.33-5.37-2.17,19.22,6.92,38.85,28,38.85,25.42,0,31-32.14,11.78-32.14-16.95,0-18.91,23.46-5.79,23.46,.41,0,.31,.31-.21,.31-13.33,0-11.57-24.18,5.89-24.18,20.05,0,14.47,33.17-11.68,33.17-21.6,0-30.79-20.36-28.42-39.99-11.06-11.78,.52-37.1,21.39-37.1,3.2,0,5.89,.52,8.16,1.45,2.27-.41,4.55-.72,7.13-.72,11.99,0,18.7,7.54,20.15,14.16,13.02-13.95,25.52-28.11,37.72-35.86-8.06-2.89-15.19-8.06-27.07-8.06-1.96,0-3.72,.21-5.48,.52Zm-33.58,30.17c-1.96-.62-4.24-1.03-7.03-1.03-19.84,0-31.41,24.08-21.29,35.65,2.17-15.71,11.68-30.79,28.31-34.62Zm-27.9,35.13c3.31,3.31,8.58,5.58,16.22,5.58,13.54,0,23.87-10.44,36.58-23.77l2.89-3.1c-1.14-6.41-7.75-14.16-19.53-14.16-2.17,0-4.24,.21-6.2,.52,14.57,7.13,7.03,31.93-14.98,31.93-4.65,0-7.75-1.45-9.51-3.62l.31-.72c1.55,2.07,4.34,3.41,8.68,3.41,17.57,0,28.93-24.49,14.47-30.79-17.05,3.41-26.87,18.81-28.93,34.72Zm48.36,.62c-1.55-.52-3.1-.93-4.65-.93-2.58,0-3.51,2.17-.21,2.17,1.65,0,3.2-.41,4.86-1.24Zm12.61-65.82c-19.12,3.72-23.66,24.59-13.33,24.59,8.78,0,14.78-9.4,14.78-17.88,0-2.38-.52-4.75-1.45-6.72Zm7.54,43.09l.62-.93c8.68-12.19,18.7-25.73,28-33.69-.83-.21-1.55-.52-2.38-.72-12.3,7.65-25.01,22.11-38.23,36.37,.21,1.45,.1,2.89-.21,4.13,6.92-7.96,12.09-7.34,12.19-5.17Zm26.87-35.75c.72,.21,1.96,.52,2.38,.62,2.69-2.17,5.37-3.93,7.85-4.96-3.41,.83-6.82,2.27-10.23,4.34Zm4.55,1.14c1.34,.21,2.69,.31,4.24,.31,9.92,0,11.78-6.51,6.92-6.51-3.51,0-7.23,2.38-11.16,6.2Z"/>
  <path class="cls-1" d="M129.51,200.91c5.37,0,11.88,2.27,18.19,4.13,11.78-4.65,19.94-14.57,26.97-24.49-1.96-.31-3.62-1.24-4.96-2.48-.21-.31,.1-.62,.41-.41,1.55,1.34,3.1,2.07,4.96,2.38l.72-1.03c7.65-10.85,15.5-23.15,25.01-31-3-7.65-10.64-13.64-23.35-13.64-2.48,0-4.86,.21-7.03,.52,14.88,13.54,4.86,50.43-20.04,50.53-3.62,2.07-8.16,3.41-13.74,3.41-31.62,0-17.77-58.8,19.94-58.8,5.48,0,9.92,1.65,13.12,4.34,2.48-.41,5.06-.62,7.75-.62,12.5,0,20.67,5.79,24.49,13.33,5.58-4.24,11.68-7.03,18.7-7.03,19.94,0,14.98,27.49-.83,27.49-14.16,0-11.68-19.84,.41-19.84,.41,0,.41,.52,0,.52-11.26,0-13.85,18.7-.41,18.7,14.88,0,19.74-26.25,.83-26.25-7.23,0-13.02,3.1-17.98,7.85,5.68,13.33-1.86,31-23.15,32.14-7.23,10.02-17.26,20.05-30.28,24.9,4.44,1.34,8.78,2.48,12.61,2.48,14.47,0,20.98-7.34,20.98-12.61,0-2.17-1.03-4.13-3.41-5.17-.31-.1-.21-.62,.21-.41,2.58,.93,3.93,3.2,3.93,5.99,0,5.79-6.2,13.54-19.84,13.54-5.99,0-11.47-1.55-16.43-3.2-4.54,1.45-9.51,2.38-14.78,2.38-12.61,0-12.4-7.65-3-7.65Zm39.37-66.44c-3.1-2.38-7.23-3.82-12.3-3.82-36.99,0-50.74,57.56-19.94,57.56,4.75,0,9.09-1.03,12.5-2.79-25.83-1.24-14.88-44.64,19.74-50.94Zm-22.94,71.3c-5.99-2.07-11.37-4.24-16.43-4.24-8.47,0-8.89,6.41,3,6.41,4.96,0,9.4-.83,13.43-2.17Zm4.24-20.98c4.96-2.79,8.06-7.13,8.06-11.68,0-.41,.52-1.24,1.65-1.24,1.03,0,1.55,.83,1.55,1.55,0,.93-3.1,7.13-9.92,11.37,23.56-1.24,32.76-37.1,18.08-49.7-34.72,5.89-45.98,49.7-19.43,49.7Zm51.15-35.03c-7.54,7.75-13.54,19.22-20.77,29.55l-.52,.72c17.15-1.65,25.11-17.67,21.29-30.28Z"/>
  <path class="cls-1" d="M55.02,237.19c-6.81-2.1-13.37-4.84-19.41-8.89-14.73-9.89-14.93-20.51-9.32-27.53l.2,.14c23.8,15.98,37.07,1.83,26.09-5.54-8.18-5.5-19.95-2.41-26.1,4.54l-.2-.14c-33.35-22.39-2.25-56.04,16.23-43.63,.2,.14,.5-.16,.36-.25-18.83-12.64-50.95,21.21-16.98,44.6-5.86,7.25-5.69,18.35,9.66,28.65,6.75,4.53,13.43,7.53,19.99,9.68-.28-.55-.44-1.1-.51-1.63Zm-2.85-41.51c10.09,6.78-3.12,19.08-25.35,4.45,5.95-6.79,17.44-9.76,25.35-4.45Z"/>
  <path class="cls-1" d="M96.46,151.31c6.49,2.18,13.82,.95,20-1.7,6.35-2.82,11.77-7.27,17.52-11.14,0,0,.32,.47,.32,.47-5.64,4.07-11.01,8.68-17.45,11.55-6.16,2.7-13.58,4.03-20,1.5-.18-.08-.36-.18-.53-.27,0-.04-.1,.05,0-.17l.14-.23h0Z"/>
</svg>