<?xml version="1.0" encoding="UTF-8"?>
<svg id="Layer_1" data-name="Layer 1" xmlns="http://www.w3.org/2000/svg" xmlns:xlink="http://www.w3.org/1999/xlink" viewBox="0 0 75 75">
  <defs>
    <style>
      .cls-1, .cls-2 {
        opacity: .2;
      }

      .cls-3 {
        fill: #ff331f;
      }

      .cls-4 {
        fill: #3090ff;
      }

      .cls-5 {
        opacity: .1;
      }

      .cls-6 {
        clip-path: url(#clippath);
      }

      .cls-2 {
        fill: #fff;
      }

      .cls-7 {
        fill: none;
      }

      .cls-8 {
        fill: #00a559;
      }

      .cls-9 {
        fill: #ccc;
      }

      .cls-10 {
        fill: #b71c1c;
      }

      .cls-11 {
        fill: #fde50e;
      }

      .cls-12 {
        fill: #f2f2f2;
      }
    </style>
    <clipPath id="clippath">
      <rect class="cls-7" width="75" height="75" rx="16.03" ry="16.03"/>
    </clipPath>
  </defs>
  <g class="cls-6">
    <g>
      <path class="cls-11" d="M68.18,0h-1.7L0,66.48v1.7c0,3.76,3.05,6.82,6.82,6.82h2.25L75,8.2v-1.39C75,3.05,71.95,0,68.18,0Z"/>
      <path class="cls-8" d="M6.82,0C3.05,0,0,3.05,0,6.82v59.66L66.48,0H6.82Z"/>
      <polygon class="cls-4" points="9.07 75 66.48 75 37.59 46.11 9.07 75"/>
      <polygon class="cls-9" points="46.06 37.54 75 66.48 75 8.2 46.06 37.54"/>
      <path class="cls-12" d="M37.59,46.11l28.89,28.89h1.7c3.76,0,6.82-3.05,6.82-6.82v-1.7l-28.94-28.94-8.47,8.58Z"/>
      <path class="cls-2" d="M68.18,0H6.82C3.05,0,0,3.05,0,6.82v.85C0,3.9,3.05,.85,6.82,.85h61.36c3.76,0,6.82,3.05,6.82,6.82v-.85C75,3.05,71.95,0,68.18,0Z"/>
      <path class="cls-5" d="M68.18,74.15H6.82c-3.76,0-6.82-3.05-6.82-6.82v.85c0,3.76,3.05,6.82,6.82,6.82h61.36c3.76,0,6.82-3.05,6.82-6.82v-.85c0,3.77-3.05,6.82-6.82,6.82Z"/>
      <path class="cls-12" d="M18.75,28.98c-5.65,0-10.23-4.58-10.23-10.23,.02-8.42,9.62-13.23,16.37-8.19l-2.05,2.74c-4.49-3.37-10.92-.18-10.92,5.45,0,3.76,3.05,6.82,6.82,6.82,3.18,0,5.84-2.17,6.6-5.11h-4.9v-3.41h8.52v1.7c0,5.65-4.58,10.23-10.23,10.23Z"/>
    </g>
  </g>
  <g>
    <path class="cls-3" d="M58.93,0C50.07,0,42.85,7.22,42.85,16.07c0,.63,.04,1.24,.11,1.83,.56,5.7,3.61,10.41,6.85,15.39,3.18,4.9,6.46,9.96,7.8,16.53,.29,1.44,2.33,1.44,2.62,0,1.34-6.57,4.62-11.64,7.8-16.53,3.24-4.98,6.29-9.68,6.85-15.37,.07-.6,.11-1.21,.11-1.84C75,7.22,67.78,0,58.93,0Z"/>
    <path class="cls-2" d="M58.93,.67c6.96,0,13.17,4.41,15.46,10.99-4.44-15.54-26.45-15.56-30.9-.01C45.77,5.08,51.97,.67,58.93,.67Z"/>
    <path class="cls-5" d="M74.89,17.24c-.56,5.69-3.61,10.39-6.85,15.38-3.18,4.9-6.46,9.95-7.8,16.53-.29,1.44-2.33,1.44-2.62,0-1.34-6.57-4.62-11.64-7.8-16.53-3.24-4.98-6.29-9.68-6.85-15.41-.05-.5-.08-1.02-.1-1.52,0,.14-.01,.25-.01,.38,0,.63,.04,1.24,.11,1.83,.56,5.7,3.61,10.41,6.85,15.39,3.18,4.9,6.46,9.96,7.8,16.53,.29,1.44,2.33,1.44,2.62,0,1.34-6.57,4.62-11.64,7.8-16.53,3.24-4.98,6.29-9.68,6.85-15.37,.07-.6,.11-1.21,.11-1.84,0-.13-.01-.24-.01-.36-.01,.52-.04,1.04-.1,1.55h0Z"/>
    <path class="cls-10" d="M64.28,16.07c0,7.14-10.72,7.14-10.72,0s10.72-7.14,10.72,0"/>
    <path class="cls-1" d="M64.28,16.07c0,7.14-10.72,7.14-10.72,0s10.72-7.14,10.72,0"/>
  </g>
</svg>