<?xml version="1.0" encoding="UTF-8"?>
<svg id="Layer_1" data-name="Layer 1" xmlns="http://www.w3.org/2000/svg" xmlns:xlink="http://www.w3.org/1999/xlink" viewBox="0 0 86.04 75">
  <defs>
    <style>
      .cls-1 {
        fill: url(#Bronze-2);
      }

      .cls-2 {
        fill: url(#Bronze-4);
      }

      .cls-3 {
        fill: url(#Bronze-3);
      }

      .cls-4 {
        fill: url(#Bronze-6);
      }

      .cls-5 {
        fill: url(#Bronze-5);
      }

      .cls-6 {
        fill: url(#Bronze);
      }

      .cls-7 {
        fill: url(#Bronze-7);
      }
    </style>
    <linearGradient id="Bronze" x1="16.81" y1="104.67" x2="104.13" y2="35.74" gradientUnits="userSpaceOnUse">
      <stop offset="0" stop-color="#401617"/>
      <stop offset=".08" stop-color="#6b4c2d"/>
      <stop offset=".38" stop-color="#a58a55"/>
      <stop offset=".56" stop-color="#e5d4b5"/>
      <stop offset=".8" stop-color="#987a59"/>
      <stop offset=".8" stop-color="#967857"/>
      <stop offset=".96" stop-color="#814f2f"/>
    </linearGradient>
    <linearGradient id="Bronze-2" data-name="Bronze" x1="-23.1" y1="54.12" x2="64.22" y2="-14.82" xlink:href="#Bronze"/>
    <linearGradient id="Bronze-3" data-name="Bronze" x1="-7.27" y1="74.18" x2="80.05" y2="5.24" xlink:href="#Bronze"/>
    <linearGradient id="Bronze-4" data-name="Bronze" x1="3.79" y1="88.19" x2="91.11" y2="19.25" xlink:href="#Bronze"/>
    <linearGradient id="Bronze-5" data-name="Bronze" x1="-19.36" y1="58.86" x2="67.96" y2="-10.08" xlink:href="#Bronze"/>
    <linearGradient id="Bronze-6" data-name="Bronze" x1="-12.89" y1="67.05" x2="74.43" y2="-1.89" xlink:href="#Bronze"/>
    <linearGradient id="Bronze-7" data-name="Bronze" x1="-27.16" y1="48.97" x2="60.16" y2="-19.96" xlink:href="#Bronze"/>
  </defs>
  <g id="music">
    <path class="cls-6" d="M82.24,56.81c-2.09,0-3.8-1.7-3.8-3.8s1.7-3.8,3.8-3.8,3.8,1.7,3.8,3.8-1.7,3.8-3.8,3.8Zm0-5.01c-.67,0-1.21,.54-1.21,1.21s.54,1.21,1.21,1.21,1.21-.54,1.21-1.21-.54-1.21-1.21-1.21Z"/>
    <path class="cls-1" d="M43.13,2.48h-1.15V1.29c0-.71-.58-1.29-1.29-1.29s-1.29,.58-1.29,1.29v1.19h-1.19c-.71,0-1.29,.58-1.29,1.29s.58,1.29,1.29,1.29h1.19v1.15c0,.71,.58,1.29,1.29,1.29s1.29-.58,1.29-1.29v-1.15h1.15c.71,0,1.29-.58,1.29-1.29s-.58-1.29-1.29-1.29Z"/>
    <path class="cls-3" d="M14.05,58h-1.15v-1.19c0-.71-.58-1.29-1.29-1.29s-1.29,.58-1.29,1.29v1.19h-1.19c-.71,0-1.29,.58-1.29,1.29s.58,1.29,1.29,1.29h1.19v1.15c0,.71,.58,1.29,1.29,1.29s1.29-.58,1.29-1.29v-1.15h1.15c.71,0,1.29-.58,1.29-1.29s-.58-1.29-1.29-1.29Z"/>
    <path class="cls-2" d="M73.33,25.26c0-.37-.16-.73-.44-.97-.28-.25-.65-.36-1.03-.31l-33.78,4.68c-.64,.09-1.12,.64-1.12,1.28v30.55c-1.67-1.43-4.01-2.28-6.63-2.28-.88,0-1.78,.1-2.66,.29-2.6,.57-4.88,1.92-6.42,3.79-1.61,1.96-2.23,4.27-1.75,6.49,.8,3.66,4.53,6.22,9.06,6.22,.88,0,1.78-.1,2.66-.29,2.6-.57,4.88-1.92,6.42-3.79,1.25-1.52,1.9-3.25,1.9-4.98,0-.02,0-.04,0-.06v-26.86s31.19-4.12,31.19-4.12v21.87c-1.67-1.43-4.01-2.28-6.63-2.28-.88,0-1.78,.1-2.66,.29-2.6,.57-4.88,1.92-6.42,3.79-1.61,1.96-2.23,4.27-1.75,6.49,.8,3.66,4.53,6.21,9.06,6.21,.89,0,1.78-.1,2.66-.29,5.16-1.13,8.71-5.29,8.29-9.5,.02-.1,.04-.2,.04-.3V25.26Zm-37.68,44.02c-1.17,1.43-2.94,2.46-4.98,2.91-.7,.15-1.41,.23-2.11,.23-3.31,0-5.99-1.72-6.53-4.18-.31-1.43,.12-2.96,1.22-4.29,1.17-1.43,2.94-2.46,4.98-2.91,.7-.15,1.41-.23,2.11-.23,3.31,0,5.99,1.72,6.53,4.18,.31,1.43-.12,2.96-1.22,4.29Zm3.91-32.86v-5.34l31.19-4.33v5.55l-31.19,4.12Zm24.9,32.05c-.7,.15-1.41,.23-2.11,.23-3.31,0-5.99-1.72-6.53-4.18-.31-1.43,.12-2.96,1.22-4.3,1.17-1.43,2.94-2.46,4.98-2.91,.7-.15,1.41-.23,2.11-.23,3.3,0,5.99,1.72,6.53,4.18,.67,3.08-2.11,6.31-6.2,7.2Z"/>
    <path class="cls-5" d="M28.52,11.23c-2.24-1.03-3.72-1.71-3.72-4.87,0-.71-.58-1.29-1.29-1.29s-1.29,.58-1.29,1.29v29c-1.6-1.32-3.81-2.1-6.26-2.1-.85,0-1.71,.09-2.55,.28-2.49,.55-4.68,1.84-6.16,3.63-1.55,1.89-2.15,4.1-1.68,6.24,.77,3.52,4.35,5.98,8.69,5.98,.85,0,1.71-.09,2.55-.28,2.49-.55,4.68-1.84,6.16-3.64,1.2-1.46,1.82-3.12,1.83-4.78,0-.02,0-.04,0-.06V12.12c.84,.63,1.79,1.06,2.65,1.46,2.34,1.07,4.04,1.85,4.04,5.59,0,.71,.58,1.29,1.29,1.29s1.29-.58,1.29-1.29c0-5.4-3.08-6.81-5.55-7.94Zm-7.56,32.6c-1.11,1.35-2.78,2.33-4.71,2.75-.66,.15-1.34,.22-2,.22-3.12,0-5.66-1.62-6.17-3.94-.3-1.35,.11-2.78,1.15-4.05,1.11-1.35,2.78-2.33,4.71-2.75,.66-.15,1.34-.22,2-.22,3.12,0,5.66,1.62,6.17,3.94,.3,1.35-.11,2.78-1.15,4.04Z"/>
    <path class="cls-4" d="M58.62,18.49c-.18,0-.37-.04-.54-.12-2.9-1.33-6.92-4.99-6.92-8.42,0-2.88,2.3-4.18,3.94-4.18,1.11,0,2.51,.47,3.51,1.29,1-.82,2.4-1.29,3.51-1.29,1.64,0,3.94,1.3,3.94,4.18,0,3.43-4.02,7.09-6.92,8.42-.17,.08-.35,.12-.54,.12Zm-3.51-10.13s-1.36,.04-1.36,1.59c0,1.85,2.55,4.52,4.87,5.8,2.32-1.27,4.87-3.95,4.87-5.8,0-1.55-1.34-1.59-1.36-1.59-1.02,0-2.18,.79-2.22,1.14,0,.02,0,.04,0,.05-.03,.69-.6,1.24-1.29,1.24s-1.29-.58-1.29-1.3c-.04-.35-1.2-1.14-2.22-1.14Z"/>
    <path class="cls-7" d="M7.2,27.01h0c-1.84,0-4.35-.33-5.91-1.88C.06,23.89-.08,22.59,.03,21.72c.11-.88,.52-1.75,1.1-2.33,.85-.85,2.17-1.45,3.4-1.56,.13-1.29,.78-2.62,1.57-3.4,.55-.55,1.57-1.13,2.8-1.13,.75,0,1.87,.22,2.94,1.29,2.42,2.42,2.17,7.86,1.06,10.85-.13,.35-.41,.63-.76,.76-1.39,.52-3.19,.82-4.94,.82Zm-2.24-6.62c-.66,0-1.54,.36-2,.83-.08,.08-.31,.39-.36,.82-.05,.45,.12,.86,.53,1.27,.71,.71,2.2,1.12,4.08,1.12h0c1.19,0,2.44-.17,3.46-.47,.74-2.54,.65-6.24-.66-7.54-.36-.36-.72-.54-1.11-.54-.46,0-.85,.25-.97,.37-.72,.72-.98,2.1-.76,2.38,.01,.01,.03,.03,.04,.04,.47,.51,.45,1.3-.04,1.79-.5,.5-1.29,.5-1.8,.03h0s0,0,0,0c0,0,0,0,0,0,0,0,0,0,0,0,0,0,0,0,0,0h0s0,0,0,0h0s0,0,0,0h0s0,0,0,0c0,0,0,0,0,0t0,0s0,0,0,0c0,0,0,0,0,0,0,0,0,0,0,0,0,0,0,0,0,0h0s0,0,0,0c-.02-.02-.14-.06-.37-.06Z"/>
  </g>
</svg>