<?xml version="1.0" encoding="UTF-8"?>
<svg id="Layer_1" data-name="Layer 1" xmlns="http://www.w3.org/2000/svg" xmlns:xlink="http://www.w3.org/1999/xlink" viewBox="0 0 938.47 271.06">
  <defs>
    <style>
      .cls-1 {
        fill: url(#Bronze-2);
      }

      .cls-2 {
        fill: url(#Bronze-24);
      }

      .cls-3 {
        fill: url(#Bronze-4);
      }

      .cls-4 {
        fill: url(#Bronze-3);
      }

      .cls-5 {
        fill: url(#Bronze-27);
      }

      .cls-6 {
        fill: url(#Bronze-6);
      }

      .cls-7 {
        fill: url(#Bronze-16);
      }

      .cls-8 {
        fill: url(#Bronze-32);
      }

      .cls-9 {
        fill: url(#Bronze-22);
      }

      .cls-10 {
        fill: url(#Bronze-8);
      }

      .cls-11 {
        fill: url(#Bronze-31);
      }

      .cls-12 {
        fill: url(#Bronze-15);
      }

      .cls-13 {
        fill: url(#Bronze-25);
      }

      .cls-14 {
        fill: url(#Bronze-29);
      }

      .cls-15 {
        fill: url(#Bronze-9);
      }

      .cls-16 {
        fill: url(#Bronze-19);
      }

      .cls-17 {
        fill: url(#Bronze-5);
      }

      .cls-18 {
        fill: url(#Bronze-11);
      }

      .cls-19 {
        fill: url(#Bronze);
      }

      .cls-20 {
        fill: url(#Bronze-23);
      }

      .cls-21 {
        fill: url(#Bronze-26);
      }

      .cls-22 {
        fill: url(#Bronze-7);
      }

      .cls-23 {
        fill: url(#Bronze-18);
      }

      .cls-24 {
        fill: url(#Bronze-14);
      }

      .cls-25 {
        fill: url(#Bronze-28);
      }

      .cls-26 {
        fill: url(#Bronze-30);
      }

      .cls-27 {
        fill: url(#Bronze-21);
      }

      .cls-28 {
        fill: url(#Bronze-17);
      }

      .cls-29 {
        fill: url(#Bronze-12);
      }

      .cls-30 {
        fill: url(#Bronze-10);
      }

      .cls-31 {
        fill: url(#Bronze-20);
      }

      .cls-32 {
        fill: url(#Bronze-13);
      }
    </style>
    <linearGradient id="Bronze" x1="19.98" y1="164.27" x2="25.27" y2="164.27" gradientUnits="userSpaceOnUse">
      <stop offset="0" stop-color="#401617"/>
      <stop offset=".08" stop-color="#6b4c2d"/>
      <stop offset=".38" stop-color="#a58a55"/>
      <stop offset=".56" stop-color="#e5d4b5"/>
      <stop offset=".8" stop-color="#987a59"/>
      <stop offset=".8" stop-color="#967857"/>
      <stop offset=".96" stop-color="#814f2f"/>
    </linearGradient>
    <linearGradient id="Bronze-2" data-name="Bronze" x1="12.77" y1="174.79" x2="23.3" y2="174.79" xlink:href="#Bronze"/>
    <linearGradient id="Bronze-3" data-name="Bronze" x1="0" y1="213.19" x2="116.05" y2="213.19" xlink:href="#Bronze"/>
    <linearGradient id="Bronze-4" data-name="Bronze" x1="100.86" y1="248.44" x2="113.34" y2="248.44" xlink:href="#Bronze"/>
    <linearGradient id="Bronze-5" data-name="Bronze" x1="91.13" y1="253.03" x2="102.03" y2="253.03" xlink:href="#Bronze"/>
    <linearGradient id="Bronze-6" data-name="Bronze" x1="36.29" y1="225.5" x2="41.82" y2="225.5" xlink:href="#Bronze"/>
    <linearGradient id="Bronze-7" data-name="Bronze" x1="39.32" y1="232.74" x2="53.26" y2="232.74" xlink:href="#Bronze"/>
    <linearGradient id="Bronze-8" data-name="Bronze" x1="44.35" y1="224.13" x2="51.04" y2="224.13" xlink:href="#Bronze"/>
    <linearGradient id="Bronze-9" data-name="Bronze" x1="913.21" x2="918.49" xlink:href="#Bronze"/>
    <linearGradient id="Bronze-10" data-name="Bronze" x1="915.18" y1="174.79" x2="925.7" y2="174.79" xlink:href="#Bronze"/>
    <linearGradient id="Bronze-11" data-name="Bronze" x1="822.43" y1="213.19" x2="938.47" y2="213.19" xlink:href="#Bronze"/>
    <linearGradient id="Bronze-12" data-name="Bronze" x1="825.13" y1="248.44" x2="837.61" y2="248.44" xlink:href="#Bronze"/>
    <linearGradient id="Bronze-13" data-name="Bronze" x1="836.45" y1="253.03" x2="847.34" y2="253.03" xlink:href="#Bronze"/>
    <linearGradient id="Bronze-14" data-name="Bronze" x1="896.66" y1="225.5" x2="902.18" y2="225.5" xlink:href="#Bronze"/>
    <linearGradient id="Bronze-15" data-name="Bronze" x1="885.21" y1="232.74" x2="899.15" y2="232.74" xlink:href="#Bronze"/>
    <linearGradient id="Bronze-16" data-name="Bronze" x1="887.43" y1="224.13" x2="894.12" y2="224.13" xlink:href="#Bronze"/>
    <linearGradient id="Bronze-17" data-name="Bronze" y1="106.79" y2="106.79" xlink:href="#Bronze"/>
    <linearGradient id="Bronze-18" data-name="Bronze" x1="12.77" y1="96.27" x2="23.3" y2="96.27" xlink:href="#Bronze"/>
    <linearGradient id="Bronze-19" data-name="Bronze" x1="0" y1="57.87" x2="116.05" y2="57.87" xlink:href="#Bronze"/>
    <linearGradient id="Bronze-20" data-name="Bronze" x1="100.86" y1="22.62" x2="113.34" y2="22.62" xlink:href="#Bronze"/>
    <linearGradient id="Bronze-21" data-name="Bronze" x1="91.13" y1="18.03" x2="102.03" y2="18.03" xlink:href="#Bronze"/>
    <linearGradient id="Bronze-22" data-name="Bronze" x1="36.29" y1="45.56" x2="41.82" y2="45.56" xlink:href="#Bronze"/>
    <linearGradient id="Bronze-23" data-name="Bronze" x1="39.32" y1="38.32" x2="53.26" y2="38.32" xlink:href="#Bronze"/>
    <linearGradient id="Bronze-24" data-name="Bronze" x1="44.35" y1="46.93" x2="51.04" y2="46.93" xlink:href="#Bronze"/>
    <linearGradient id="Bronze-25" data-name="Bronze" x1="913.21" y1="106.79" x2="918.49" y2="106.79" xlink:href="#Bronze"/>
    <linearGradient id="Bronze-26" data-name="Bronze" x1="915.18" y1="96.27" x2="925.7" y2="96.27" xlink:href="#Bronze"/>
    <linearGradient id="Bronze-27" data-name="Bronze" x1="822.43" y1="57.87" x2="938.47" y2="57.87" xlink:href="#Bronze"/>
    <linearGradient id="Bronze-28" data-name="Bronze" x1="825.13" y1="22.62" x2="837.61" y2="22.62" xlink:href="#Bronze"/>
    <linearGradient id="Bronze-29" data-name="Bronze" x1="836.45" y1="18.03" x2="847.34" y2="18.03" xlink:href="#Bronze"/>
    <linearGradient id="Bronze-30" data-name="Bronze" x1="896.66" y1="45.56" x2="902.18" y2="45.56" xlink:href="#Bronze"/>
    <linearGradient id="Bronze-31" data-name="Bronze" x1="885.21" y1="38.32" x2="899.15" y2="38.32" xlink:href="#Bronze"/>
    <linearGradient id="Bronze-32" data-name="Bronze" x1="887.43" y1="46.93" x2="894.12" y2="46.93" xlink:href="#Bronze"/>
  </defs>
  <g>
    <g>
      <path class="cls-19" d="M22.76,168.8c.04-2.09,.94-3.49,1.87-5.32,.51-1.01,.78-2.24,.56-3.37-.35-1.8-2.46-2.77-3.92-1.53-.83,.7-1.32,1.87-1.29,2.95,.09,3.2,1.08,5.93,2.96,8.96,.11,.18-.2-.81-.18-1.69Z"/>
      <path class="cls-1" d="M16.39,175.94c2.19,.74,4.02,1.14,5.71,2.78,.71,.68,1.25,1.73,1.19,1.49-.89-3.91-2.27-6.88-4.73-9.51-.83-.89-2.14-1.43-3.36-1.34-2.15,.16-3.07,2.62-1.93,4.33,.72,1.07,1.91,1.84,3.12,2.25Z"/>
      <path class="cls-4" d="M113.71,228.89c-2.05-1.98-5.04-2.13-7.65-1.43-3.66,.98-5.11,5.29-2.8,8.2,.77,.98,2.08,1.72,3.33,1.79,1.69,.1,3.66-1.71,2.33-3.31-1-1.2-2.72,.32-3.81-.81-1.24-1.29,.72-3.08,2.03-3.3,2.01-.35,4.24-.03,5.16,2.03,.91,2.03,.77,4.23-.71,5.91-2.66,3.01-7.51,3.02-11.2,3.25-5.27,.33-10.55-.04-15.82-.19-5.07-.15-10.15-.36-15.21-.73-4.47-.33-24.02-1.26-37.45-.82,.53-13.49-.79-32.86-1.12-37.44-.37-5.06-.59-10.14-.73-15.21-.15-5.27-.52-10.55-.19-15.82,.23-3.69,.24-8.53,3.25-11.2,1.68-1.49,3.88-1.62,5.91-.71,2.06,.92,2.38,3.15,2.03,5.16-.23,1.31-2.02,3.27-3.3,2.03-1.12-1.08,.39-2.81-.81-3.81-1.6-1.33-3.41,.63-3.31,2.33,.07,1.25,.82,2.56,1.79,3.33,2.91,2.31,7.23,.86,8.2-2.8,.7-2.62,.55-5.6-1.43-7.65-2.69-2.77-6.88-3.05-10.08-.99-1.59,1.03-2.94,2.47-3.81,4.16-1.51,2.93-1.88,6.08-2.04,9.3-.27,5.67,.47,11.4,.14,17.04,0-.04-1.57-1.6-1.78-1.85-.6-.7-1.33-1.28-2.08-1.8-1.51-1.05-3.24-1.87-5.02-2.31-5.43-1.36-10.05,.25-13.73,4.36-3.23,3.61-4.57,8.86-3.31,13.55,.54,2.02,1.63,3.91,3.08,5.43,2.35,2.47,4.69,3.3,8.03,3.31,3.13,0,6.34-1.16,8.15-3.84,2.15-3.17,2.56-7.74-.07-10.78-1.66-1.92-4.99-3.1-7.34-1.78-1.37,.77-2.48,2.66-2.23,4.22,.19,1.21,1.27,2.29,2.5,2.42,1.61,.16,1.53-1.28,2.72-1.59,1.59-.42,1.96,1.39,1.98,2.57,.08,5.31-7.1,6.72-10.48,3.51-2.18-2.07-3.08-4.68-2.94-7.72,.12-2.45,.81-4.89,2.32-6.86,2.75-3.6,7.84-4.72,11.94-3.03,4.21,1.73,6.74,5.93,7.71,10.22,.86,3.79,1.21,7.63,1.42,11.47,.06,1.09,.09,2.17,.13,3.26,.18,5.8,.43,22.56,.46,25.14,.04,2.58-.57,4.21-3.1,5.37-2.4,1.1-4.51,3.38-5.26,5.94-.75,2.57-.12,5.3,2.15,6.88,1.53,1.06,3.53,1.06,5.18,.28,2.33-1.1,3.78-3.5,4.52-5.85,.42-1.34,.64-3.69,2.58-3.97,3.06-.45,6.58-.14,9.67-.09,4.23,.08,9.47-.17,13.7-.08,1.38,.03,2.76,.06,4.14,.1,1.09,.03,2.17,.07,3.26,.13,3.85,.2,7.68,.56,11.47,1.42,4.29,.97,8.49,3.5,10.22,7.71,1.69,4.1,.57,9.18-3.03,11.94-1.97,1.51-4.41,2.2-6.86,2.32-3.04,.14-5.65-.76-7.72-2.94-3.21-3.38-1.8-10.56,3.51-10.48,1.18,.02,2.99,.39,2.57,1.98-.31,1.19-1.75,1.11-1.59,2.72,.13,1.23,1.21,2.31,2.42,2.5,1.56,.25,3.45-.85,4.22-2.23,1.32-2.35,.14-5.67-1.78-7.34-3.04-2.63-7.6-2.22-10.78-.07-2.68,1.81-3.84,5.02-3.84,8.15,0,3.34,.84,5.68,3.31,8.03,1.51,1.44,3.41,2.53,5.43,3.08,4.69,1.26,9.94-.08,13.55-3.31,4.11-3.68,5.72-8.3,4.36-13.73-.45-1.78-1.27-3.51-2.31-5.02-.52-.75-1.11-1.48-1.8-2.08-.24-.21-1.81-1.78-1.85-1.78,5.64-.33,11.37,.41,17.04,.14,3.23-.15,6.37-.52,9.3-2.04,1.69-.87,3.13-2.22,4.16-3.81,2.06-3.2,1.79-7.4-.99-10.08Zm-87.69,20.13c-1.09,1.02-2.29,1.49-3.05,.57-.73-.89-.23-2.17,.25-3.05,.56-1.02,3.68-4.9,5.08-3.1,.85,1.09-.59,4-2.27,5.58Z"/>
      <path class="cls-3" d="M111.26,245.87c-1.12-.22-2.36,.06-3.37,.56-1.83,.92-3.23,1.82-5.32,1.87-.87,.02-1.87-.29-1.69-.18,3.03,1.88,5.75,2.86,8.96,2.96,1.08,.03,2.24-.46,2.95-1.29,1.24-1.46,.27-3.57-1.53-3.92Z"/>
      <path class="cls-17" d="M91.16,247.77c-.23-.05,.81,.49,1.49,1.19,1.64,1.69,2.04,3.52,2.78,5.71,.41,1.21,1.17,2.41,2.25,3.12,1.72,1.14,4.17,.22,4.33-1.93,.09-1.22-.45-2.53-1.34-3.36-2.64-2.46-5.6-3.84-9.51-4.73Z"/>
      <path class="cls-6" d="M41.22,219.93c-1.03-1.87-3.46-1.86-4.5,0-1,1.81,0,4.01,.35,5.87,.39,2.08,.45,4.19,.55,6.29,0,.12,.01,.25,.01,.37,.81-1.21,3.57-6.66,3.95-8.29,.33-1.42,.39-2.87-.36-4.25Z"/>
      <path class="cls-22" d="M47.61,230.21c-1.63,.38-7.08,3.14-8.29,3.95,.12,0,.25,0,.37,.01,2.11,.1,4.21,.16,6.29,.55,1.85,.34,4.06,1.35,5.87,.35,1.86-1.03,1.88-3.47,0-4.5-1.38-.76-2.83-.7-4.25-.36Z"/>
      <path class="cls-10" d="M49.76,226.72c1.67-1.56,1.71-3.54,.13-5.18-1.13-1.17-3.04-1.18-4.28-.02-1.53,1.43-1.68,3.62-.35,4.99,1.36,1.4,3.15,1.49,4.5,.22Z"/>
    </g>
    <g>
      <path class="cls-15" d="M915.71,168.8c-.04-2.09-.94-3.49-1.87-5.32-.51-1.01-.78-2.24-.56-3.37,.35-1.8,2.46-2.77,3.92-1.53,.83,.7,1.32,1.87,1.29,2.95-.09,3.2-1.08,5.93-2.96,8.96-.11,.18,.2-.81,.18-1.69Z"/>
      <path class="cls-30" d="M922.09,175.94c-2.19,.74-4.02,1.14-5.71,2.78-.71,.68-1.25,1.73-1.19,1.49,.89-3.91,2.27-6.88,4.73-9.51,.83-.89,2.14-1.43,3.36-1.34,2.15,.16,3.07,2.62,1.93,4.33-.72,1.07-1.91,1.84-3.12,2.25Z"/>
      <path class="cls-18" d="M823.78,238.97c1.03,1.59,2.47,2.94,4.16,3.81,2.93,1.51,6.08,1.88,9.3,2.04,5.67,.27,11.4-.47,17.04-.14-.04,0-1.6,1.57-1.85,1.78-.69,.6-1.28,1.33-1.8,2.08-1.05,1.51-1.87,3.24-2.31,5.02-1.36,5.43,.25,10.05,4.36,13.73,3.61,3.23,8.86,4.57,13.55,3.31,2.02-.54,3.91-1.63,5.43-3.08,2.47-2.35,3.3-4.69,3.31-8.03,0-3.13-1.16-6.34-3.84-8.15-3.17-2.15-7.74-2.56-10.78,.07-1.92,1.66-3.1,4.99-1.78,7.34,.77,1.37,2.66,2.48,4.22,2.23,1.21-.19,2.29-1.27,2.42-2.5,.16-1.61-1.28-1.53-1.59-2.72-.42-1.59,1.39-1.96,2.57-1.98,5.31-.08,6.72,7.1,3.51,10.48-2.07,2.18-4.68,3.08-7.72,2.94-2.45-.12-4.89-.81-6.86-2.32-3.6-2.75-4.72-7.84-3.03-11.94,1.73-4.21,5.93-6.74,10.22-7.71,3.79-.86,7.63-1.21,11.47-1.42,1.09-.06,2.17-.09,3.26-.13,1.38-.04,2.76-.07,4.14-.1,4.23-.09,9.47,.16,13.7,.08,3.1-.06,6.61-.36,9.67,.09,1.94,.29,2.16,2.63,2.58,3.97,.73,2.35,2.19,4.75,4.52,5.85,1.65,.78,3.65,.78,5.18-.28,2.27-1.58,2.89-4.31,2.15-6.88-.74-2.56-2.86-4.84-5.26-5.94-2.53-1.16-3.14-2.79-3.1-5.37,.04-2.58,.28-19.34,.46-25.14,.03-1.09,.07-2.17,.13-3.26,.2-3.85,.56-7.68,1.42-11.47,.97-4.29,3.5-8.49,7.71-10.22,4.1-1.69,9.18-.57,11.94,3.03,1.51,1.97,2.2,4.41,2.32,6.86,.14,3.04-.76,5.65-2.94,7.72-3.38,3.21-10.56,1.8-10.48-3.51,.02-1.18,.39-2.99,1.98-2.57,1.19,.31,1.11,1.75,2.72,1.59,1.23-.13,2.31-1.21,2.5-2.42,.25-1.56-.85-3.45-2.23-4.22-2.35-1.32-5.67-.14-7.34,1.78-2.63,3.04-2.22,7.6-.07,10.78,1.81,2.68,5.02,3.84,8.15,3.84,3.34,0,5.68-.84,8.03-3.31,1.44-1.51,2.53-3.41,3.08-5.43,1.26-4.69-.08-9.94-3.31-13.55-3.68-4.11-8.3-5.72-13.73-4.36-1.78,.45-3.51,1.27-5.02,2.31-.75,.52-1.48,1.11-2.08,1.8-.21,.24-1.78,1.81-1.78,1.85-.33-5.64,.41-11.37,.14-17.04-.15-3.23-.52-6.37-2.04-9.3-.87-1.69-2.22-3.13-3.81-4.16-3.2-2.06-7.4-1.79-10.08,.99-1.98,2.05-2.13,5.04-1.43,7.65,.98,3.66,5.29,5.11,8.2,2.8,.98-.77,1.72-2.08,1.79-3.33,.1-1.69-1.71-3.66-3.31-2.33-1.2,1,.32,2.72-.81,3.81-1.29,1.24-3.08-.72-3.3-2.03-.35-2.01-.03-4.24,2.03-5.16,2.03-.91,4.23-.77,5.91,.71,3.01,2.66,3.02,7.51,3.25,11.2,.33,5.27-.04,10.55-.19,15.82-.15,5.07-.36,10.15-.73,15.21-.33,4.58-1.66,23.95-1.12,37.44-13.43-.43-32.98,.5-37.45,.82-5.06,.37-10.14,.59-15.21,.73-5.27,.15-10.55,.52-15.82,.19-3.69-.23-8.53-.24-11.2-3.25-1.49-1.68-1.62-3.88-.71-5.91,.92-2.06,3.15-2.38,5.16-2.03,1.31,.23,3.27,2.02,2.03,3.3-1.08,1.12-2.81-.39-3.81,.81-1.33,1.6,.63,3.41,2.33,3.31,1.25-.07,2.56-.82,3.33-1.79,2.31-2.91,.86-7.23-2.8-8.2-2.62-.7-5.6-.55-7.65,1.43-2.77,2.69-3.05,6.88-.99,10.08Zm86.4,4.46c1.39-1.8,4.52,2.08,5.08,3.1,.48,.88,.98,2.16,.25,3.05-.76,.93-1.96,.46-3.05-.57-1.69-1.58-3.12-4.49-2.27-5.58Z"/>
      <path class="cls-29" d="M827.22,245.87c1.12-.22,2.36,.06,3.37,.56,1.83,.92,3.23,1.82,5.32,1.87,.87,.02,1.87-.29,1.69-.18-3.03,1.88-5.75,2.86-8.96,2.96-1.08,.03-2.24-.46-2.95-1.29-1.24-1.46-.27-3.57,1.53-3.92Z"/>
      <path class="cls-32" d="M847.31,247.77c.23-.05-.81,.49-1.49,1.19-1.64,1.69-2.04,3.52-2.78,5.71-.41,1.21-1.17,2.41-2.25,3.12-1.72,1.14-4.17,.22-4.33-1.93-.09-1.22,.45-2.53,1.34-3.36,2.64-2.46,5.6-3.84,9.51-4.73Z"/>
      <path class="cls-24" d="M897.25,219.93c1.03-1.87,3.46-1.86,4.5,0,1,1.81,0,4.01-.35,5.87-.39,2.08-.45,4.19-.55,6.29,0,.12-.01,.25-.01,.37-.81-1.21-3.57-6.66-3.95-8.29-.33-1.42-.39-2.87,.36-4.25Z"/>
      <path class="cls-12" d="M890.86,230.21c1.63,.38,7.08,3.14,8.29,3.95-.12,0-.25,0-.37,.01-2.11,.1-4.21,.16-6.29,.55-1.85,.34-4.06,1.35-5.87,.35-1.86-1.03-1.88-3.47,0-4.5,1.38-.76,2.83-.7,4.25-.36Z"/>
      <path class="cls-7" d="M888.72,226.72c-1.67-1.56-1.71-3.54-.13-5.18,1.13-1.17,3.04-1.18,4.28-.02,1.53,1.43,1.68,3.62,.35,4.99-1.36,1.4-3.15,1.49-4.5,.22Z"/>
    </g>
  </g>
  <g>
    <g>
      <path class="cls-28" d="M22.76,102.26c.04,2.09,.94,3.49,1.87,5.32,.51,1.01,.78,2.24,.56,3.37-.35,1.8-2.46,2.77-3.92,1.53-.83-.7-1.32-1.87-1.29-2.95,.09-3.2,1.08-5.93,2.96-8.96,.11-.18-.2,.81-.18,1.69Z"/>
      <path class="cls-23" d="M16.39,95.13c2.19-.74,4.02-1.14,5.71-2.78,.71-.68,1.25-1.73,1.19-1.49-.89,3.91-2.27,6.88-4.73,9.51-.83,.89-2.14,1.43-3.36,1.34-2.15-.16-3.07-2.62-1.93-4.33,.72-1.07,1.91-1.84,3.12-2.25Z"/>
      <path class="cls-16" d="M114.7,32.09c-1.03-1.59-2.47-2.94-4.16-3.81-2.93-1.51-6.08-1.88-9.3-2.04-5.67-.27-11.4,.47-17.04,.14,.04,0,1.6-1.57,1.85-1.78,.7-.6,1.28-1.33,1.8-2.08,1.05-1.51,1.87-3.24,2.31-5.02,1.36-5.43-.25-10.05-4.36-13.73-3.61-3.23-8.86-4.57-13.55-3.31-2.02,.54-3.91,1.63-5.43,3.08-2.47,2.35-3.3,4.69-3.31,8.03,0,3.13,1.16,6.34,3.84,8.15,3.17,2.15,7.74,2.56,10.78-.07,1.92-1.66,3.1-4.99,1.78-7.34-.77-1.37-2.66-2.48-4.22-2.23-1.21,.19-2.29,1.27-2.42,2.5-.16,1.61,1.28,1.53,1.59,2.72,.42,1.59-1.39,1.96-2.57,1.98-5.31,.08-6.72-7.1-3.51-10.48,2.07-2.18,4.68-3.08,7.72-2.94,2.45,.12,4.89,.81,6.86,2.32,3.6,2.75,4.72,7.84,3.03,11.94-1.73,4.21-5.93,6.74-10.22,7.71-3.79,.86-7.63,1.21-11.47,1.42-1.09,.06-2.17,.09-3.26,.13-1.38,.04-2.76,.07-4.14,.1-4.23,.09-9.47-.16-13.7-.08-3.1,.06-6.61,.36-9.67-.09-1.94-.29-2.16-2.63-2.58-3.97-.73-2.35-2.19-4.75-4.52-5.85-1.65-.78-3.65-.78-5.18,.28-2.27,1.58-2.89,4.31-2.15,6.88,.74,2.56,2.86,4.84,5.26,5.94,2.53,1.16,3.14,2.79,3.1,5.37-.04,2.58-.28,19.34-.46,25.14-.03,1.09-.07,2.17-.13,3.26-.2,3.85-.56,7.68-1.42,11.47-.97,4.29-3.5,8.49-7.71,10.22-4.1,1.69-9.18,.57-11.94-3.03-1.51-1.97-2.2-4.41-2.32-6.86-.14-3.04,.76-5.65,2.94-7.72,3.38-3.21,10.56-1.8,10.48,3.51-.02,1.18-.39,2.99-1.98,2.57-1.2-.31-1.11-1.75-2.72-1.59-1.23,.13-2.31,1.21-2.5,2.42-.25,1.56,.85,3.45,2.23,4.22,2.35,1.32,5.67,.14,7.34-1.78,2.63-3.04,2.22-7.6,.07-10.78-1.81-2.68-5.02-3.84-8.15-3.84-3.34,0-5.68,.84-8.03,3.31-1.44,1.51-2.53,3.41-3.08,5.43-1.26,4.69,.08,9.94,3.31,13.55,3.68,4.11,8.3,5.72,13.73,4.36,1.78-.45,3.51-1.27,5.02-2.31,.75-.52,1.48-1.11,2.08-1.8,.21-.24,1.78-1.81,1.78-1.85,.33,5.64-.41,11.37-.14,17.04,.15,3.23,.52,6.37,2.04,9.3,.87,1.69,2.22,3.13,3.81,4.16,3.2,2.06,7.4,1.79,10.08-.99,1.98-2.05,2.13-5.04,1.43-7.65-.98-3.66-5.29-5.11-8.2-2.8-.98,.77-1.72,2.08-1.79,3.33-.1,1.69,1.71,3.66,3.31,2.33,1.2-1-.32-2.72,.81-3.81,1.29-1.24,3.08,.72,3.3,2.03,.35,2.01,.03,4.24-2.03,5.16-2.03,.91-4.23,.77-5.91-.71-3.01-2.66-3.02-7.51-3.25-11.2-.33-5.27,.04-10.55,.19-15.82,.15-5.07,.36-10.15,.73-15.21,.33-4.58,1.66-23.95,1.12-37.44,13.43,.43,32.98-.5,37.45-.82,5.06-.37,10.14-.59,15.21-.73,5.27-.15,10.55-.52,15.82-.19,3.69,.23,8.53,.24,11.2,3.25,1.49,1.68,1.62,3.88,.71,5.91-.92,2.06-3.15,2.38-5.16,2.03-1.31-.23-3.27-2.02-2.03-3.3,1.08-1.12,2.81,.39,3.81-.81,1.33-1.6-.63-3.41-2.33-3.31-1.25,.07-2.56,.82-3.33,1.79-2.31,2.91-.86,7.23,2.8,8.2,2.62,.7,5.6,.55,7.65-1.43,2.77-2.69,3.05-6.88,.99-10.08ZM28.3,27.63c-1.39,1.8-4.52-2.08-5.08-3.1-.48-.88-.98-2.16-.25-3.05,.76-.93,1.96-.46,3.05,.57,1.69,1.58,3.12,4.49,2.27,5.58Z"/>
      <path class="cls-31" d="M111.26,25.19c-1.12,.22-2.36-.06-3.37-.56-1.83-.92-3.23-1.82-5.32-1.87-.87-.02-1.87,.29-1.69,.18,3.03-1.88,5.75-2.86,8.96-2.96,1.08-.03,2.24,.46,2.95,1.29,1.24,1.46,.27,3.57-1.53,3.92Z"/>
      <path class="cls-27" d="M91.16,23.29c-.23,.05,.81-.49,1.49-1.19,1.64-1.69,2.04-3.52,2.78-5.71,.41-1.21,1.17-2.41,2.25-3.12,1.72-1.14,4.17-.22,4.33,1.93,.09,1.22-.45,2.53-1.34,3.36-2.64,2.46-5.6,3.84-9.51,4.73Z"/>
      <path class="cls-9" d="M41.22,51.13c-1.03,1.87-3.46,1.86-4.5,0-1-1.81,0-4.01,.35-5.87,.39-2.08,.45-4.19,.55-6.29,0-.12,.01-.25,.01-.37,.81,1.21,3.57,6.66,3.95,8.29,.33,1.42,.39,2.87-.36,4.25Z"/>
      <path class="cls-20" d="M47.61,40.85c-1.63-.38-7.08-3.14-8.29-3.95,.12,0,.25,0,.37-.01,2.11-.1,4.21-.16,6.29-.55,1.85-.34,4.06-1.35,5.87-.35,1.86,1.03,1.88,3.47,0,4.5-1.38,.76-2.83,.7-4.25,.36Z"/>
      <path class="cls-2" d="M49.76,44.35c1.67,1.56,1.71,3.54,.13,5.18-1.13,1.17-3.04,1.18-4.28,.02-1.53-1.43-1.68-3.62-.35-4.99,1.36-1.4,3.15-1.49,4.5-.22Z"/>
    </g>
    <g>
      <path class="cls-13" d="M915.71,102.26c-.04,2.09-.94,3.49-1.87,5.32-.51,1.01-.78,2.24-.56,3.37,.35,1.8,2.46,2.77,3.92,1.53,.83-.7,1.32-1.87,1.29-2.95-.09-3.2-1.08-5.93-2.96-8.96-.11-.18,.2,.81,.18,1.69Z"/>
      <path class="cls-21" d="M922.09,95.13c-2.19-.74-4.02-1.14-5.71-2.78-.71-.68-1.25-1.73-1.19-1.49,.89,3.91,2.27,6.88,4.73,9.51,.83,.89,2.14,1.43,3.36,1.34,2.15-.16,3.07-2.62,1.93-4.33-.72-1.07-1.91-1.84-3.12-2.25Z"/>
      <path class="cls-5" d="M824.77,42.17c2.05,1.98,5.04,2.13,7.65,1.43,3.66-.98,5.11-5.29,2.8-8.2-.77-.98-2.08-1.72-3.33-1.79-1.69-.1-3.66,1.71-2.33,3.31,1,1.2,2.72-.32,3.81,.81,1.24,1.29-.71,3.08-2.03,3.3-2.01,.35-4.24,.03-5.16-2.03-.91-2.03-.77-4.23,.71-5.91,2.66-3.01,7.51-3.02,11.2-3.25,5.27-.33,10.55,.04,15.82,.19,5.07,.15,10.15,.36,15.21,.73,4.47,.33,24.02,1.26,37.45,.82-.53,13.49,.79,32.86,1.12,37.44,.37,5.06,.59,10.14,.73,15.21,.15,5.27,.52,10.55,.19,15.82-.23,3.69-.24,8.53-3.25,11.2-1.68,1.49-3.88,1.62-5.91,.71-2.06-.92-2.38-3.15-2.03-5.16,.23-1.31,2.02-3.27,3.3-2.03,1.12,1.08-.39,2.81,.81,3.81,1.6,1.33,3.41-.63,3.31-2.33-.07-1.25-.82-2.56-1.79-3.33-2.91-2.31-7.23-.86-8.2,2.8-.7,2.62-.55,5.6,1.43,7.65,2.69,2.77,6.88,3.05,10.08,.99,1.59-1.03,2.94-2.47,3.81-4.16,1.51-2.93,1.88-6.08,2.04-9.3,.27-5.67-.47-11.4-.14-17.04,0,.04,1.57,1.6,1.78,1.85,.6,.7,1.33,1.28,2.08,1.8,1.51,1.05,3.24,1.87,5.02,2.31,5.43,1.36,10.05-.25,13.73-4.36,3.23-3.61,4.57-8.86,3.31-13.55-.54-2.02-1.63-3.91-3.08-5.43-2.35-2.47-4.69-3.3-8.03-3.31-3.13,0-6.34,1.16-8.15,3.84-2.15,3.17-2.56,7.74,.07,10.78,1.66,1.92,4.99,3.1,7.34,1.78,1.37-.77,2.48-2.66,2.23-4.22-.19-1.21-1.27-2.29-2.5-2.42-1.61-.16-1.53,1.28-2.72,1.59-1.59,.42-1.96-1.39-1.98-2.57-.08-5.31,7.1-6.72,10.48-3.51,2.18,2.07,3.08,4.68,2.94,7.72-.12,2.45-.81,4.89-2.32,6.86-2.75,3.6-7.84,4.72-11.94,3.03-4.21-1.73-6.74-5.93-7.71-10.22-.86-3.79-1.21-7.63-1.42-11.47-.06-1.09-.09-2.17-.13-3.26-.18-5.8-.43-22.56-.46-25.14-.04-2.58,.57-4.21,3.1-5.37,2.4-1.1,4.51-3.38,5.26-5.94,.75-2.57,.12-5.3-2.15-6.88-1.53-1.06-3.53-1.06-5.18-.28-2.33,1.1-3.78,3.5-4.52,5.85-.42,1.34-.64,3.69-2.58,3.97-3.06,.45-6.58,.14-9.67,.09-4.23-.08-9.47,.17-13.7,.08-1.38-.03-2.76-.06-4.14-.1-1.09-.03-2.17-.07-3.26-.13-3.85-.2-7.68-.56-11.47-1.42-4.29-.97-8.49-3.5-10.22-7.71-1.69-4.1-.57-9.18,3.03-11.94,1.97-1.51,4.41-2.2,6.86-2.32,3.04-.14,5.65,.76,7.72,2.94,3.21,3.38,1.8,10.56-3.51,10.48-1.18-.02-2.99-.39-2.57-1.98,.31-1.19,1.75-1.11,1.59-2.72-.13-1.23-1.21-2.31-2.42-2.5-1.56-.25-3.45,.85-4.22,2.23-1.32,2.35-.14,5.67,1.78,7.34,3.04,2.63,7.6,2.22,10.78,.07,2.68-1.81,3.84-5.02,3.84-8.15,0-3.34-.84-5.68-3.31-8.03-1.51-1.44-3.41-2.53-5.43-3.08-4.69-1.26-9.94,.08-13.55,3.31-4.11,3.68-5.72,8.3-4.36,13.73,.45,1.78,1.27,3.51,2.31,5.02,.52,.75,1.11,1.48,1.8,2.08,.24,.21,1.81,1.78,1.85,1.78-5.64,.33-11.37-.41-17.04-.14-3.23,.15-6.37,.52-9.3,2.04-1.69,.87-3.13,2.22-4.16,3.81-2.06,3.2-1.79,7.4,.99,10.08Zm87.69-20.13c1.09-1.02,2.29-1.49,3.05-.57,.73,.89,.23,2.17-.25,3.05-.56,1.02-3.68,4.9-5.08,3.1-.85-1.09,.59-4,2.27-5.58Z"/>
      <path class="cls-25" d="M827.22,25.19c1.12,.22,2.36-.06,3.37-.56,1.83-.92,3.23-1.82,5.32-1.87,.87-.02,1.87,.29,1.69,.18-3.03-1.88-5.75-2.86-8.96-2.96-1.08-.03-2.24,.46-2.95,1.29-1.24,1.46-.27,3.57,1.53,3.92Z"/>
      <path class="cls-14" d="M847.31,23.29c.23,.05-.81-.49-1.49-1.19-1.64-1.69-2.04-3.52-2.78-5.71-.41-1.21-1.17-2.41-2.25-3.12-1.72-1.14-4.17-.22-4.33,1.93-.09,1.22,.45,2.53,1.34,3.36,2.64,2.46,5.6,3.84,9.51,4.73Z"/>
      <path class="cls-26" d="M897.25,51.13c1.03,1.87,3.46,1.86,4.5,0,1-1.81,0-4.01-.35-5.87-.39-2.08-.45-4.19-.55-6.29,0-.12-.01-.25-.01-.37-.81,1.21-3.57,6.66-3.95,8.29-.33,1.42-.39,2.87,.36,4.25Z"/>
      <path class="cls-11" d="M890.86,40.85c1.63-.38,7.08-3.14,8.29-3.95-.12,0-.25,0-.37-.01-2.11-.1-4.21-.16-6.29-.55-1.85-.34-4.06-1.35-5.87-.35-1.86,1.03-1.88,3.47,0,4.5,1.38,.76,2.83,.7,4.25,.36Z"/>
      <path class="cls-8" d="M888.72,44.35c-1.67,1.56-1.71,3.54-.13,5.18,1.13,1.17,3.04,1.18,4.28,.02,1.53-1.43,1.68-3.62,.35-4.99-1.36-1.4-3.15-1.49-4.5-.22Z"/>
    </g>
  </g>
</svg>