<?xml version="1.0" encoding="UTF-8"?>
<svg id="Layer_1" data-name="Layer 1" xmlns="http://www.w3.org/2000/svg" xmlns:xlink="http://www.w3.org/1999/xlink" viewBox="0 0 274.88 52.39">
  <defs>
    <style>
      .cls-1 {
        fill: url(#Bronze-2);
      }

      .cls-2 {
        fill: url(#Bronze-4);
      }

      .cls-3 {
        fill: url(#Bronze-3);
      }

      .cls-4 {
        fill: url(#Bronze-6);
      }

      .cls-5 {
        fill: url(#Bronze-16);
      }

      .cls-6 {
        fill: url(#Bronze-8);
      }

      .cls-7 {
        fill: url(#Bronze-15);
      }

      .cls-8 {
        fill: url(#Bronze-9);
      }

      .cls-9 {
        fill: url(#Bronze-5);
      }

      .cls-10 {
        fill: url(#Bronze-11);
      }

      .cls-11 {
        fill: url(#Bronze);
      }

      .cls-12 {
        fill: url(#Bronze-7);
      }

      .cls-13 {
        fill: url(#Bronze-18);
      }

      .cls-14 {
        fill: url(#Bronze-14);
      }

      .cls-15 {
        fill: url(#Bronze-17);
      }

      .cls-16 {
        fill: url(#Bronze-12);
      }

      .cls-17 {
        fill: url(#Bronze-10);
      }

      .cls-18 {
        fill: url(#Bronze-13);
      }
    </style>
    <linearGradient id="Bronze" x1="1.23" y1="31.17" x2="281.06" y2="-21.94" gradientUnits="userSpaceOnUse">
      <stop offset="0" stop-color="#401617"/>
      <stop offset=".08" stop-color="#6b4c2d"/>
      <stop offset=".38" stop-color="#a58a55"/>
      <stop offset=".56" stop-color="#e5d4b5"/>
      <stop offset=".8" stop-color="#987a59"/>
      <stop offset=".8" stop-color="#967857"/>
      <stop offset=".96" stop-color="#814f2f"/>
    </linearGradient>
    <linearGradient id="Bronze-2" data-name="Bronze" x1="7.92" y1="66.45" x2="287.75" y2="13.34" xlink:href="#Bronze"/>
    <linearGradient id="Bronze-3" data-name="Bronze" x1="6.87" y1="60.9" x2="286.7" y2="7.79" xlink:href="#Bronze"/>
    <linearGradient id="Bronze-4" data-name="Bronze" x1="5.18" y1="52.02" x2="285.01" y2="-1.08" xlink:href="#Bronze"/>
    <linearGradient id="Bronze-5" data-name="Bronze" x1="3.66" y1="43.96" x2="283.48" y2="-9.15" xlink:href="#Bronze"/>
    <linearGradient id="Bronze-6" data-name="Bronze" x1=".81" y1="28.95" x2="280.64" y2="-24.16" xlink:href="#Bronze"/>
    <linearGradient id="Bronze-7" data-name="Bronze" x1="-.29" y1="23.17" x2="279.54" y2="-29.94" xlink:href="#Bronze"/>
    <linearGradient id="Bronze-8" data-name="Bronze" x1="2.45" y1="37.63" x2="282.28" y2="-15.48" xlink:href="#Bronze"/>
    <linearGradient id="Bronze-9" data-name="Bronze" x1="3.87" y1="45.07" x2="283.7" y2="-8.04" xlink:href="#Bronze"/>
    <linearGradient id="Bronze-10" data-name="Bronze" x1="9.09" y1="72.58" x2="288.92" y2="19.48" xlink:href="#Bronze"/>
    <linearGradient id="Bronze-11" data-name="Bronze" x1="9.94" y1="77.1" x2="289.77" y2="24" xlink:href="#Bronze"/>
    <linearGradient id="Bronze-12" data-name="Bronze" x1="10.32" y1="79.07" x2="290.15" y2="25.96" xlink:href="#Bronze"/>
    <linearGradient id="Bronze-13" data-name="Bronze" x1="9.96" y1="77.2" x2="289.79" y2="24.09" xlink:href="#Bronze"/>
    <linearGradient id="Bronze-14" data-name="Bronze" x1="9.56" y1="75.09" x2="289.39" y2="21.98" xlink:href="#Bronze"/>
    <linearGradient id="Bronze-15" data-name="Bronze" x1="6.3" y1="57.87" x2="286.13" y2="4.77" xlink:href="#Bronze"/>
    <linearGradient id="Bronze-16" data-name="Bronze" x1="6.44" y1="58.64" x2="286.27" y2="5.54" xlink:href="#Bronze"/>
    <linearGradient id="Bronze-17" data-name="Bronze" x1="6.71" y1="60.07" x2="286.54" y2="6.96" xlink:href="#Bronze"/>
    <linearGradient id="Bronze-18" data-name="Bronze" x1="6.92" y1="61.14" x2="286.74" y2="8.03" xlink:href="#Bronze"/>
  </defs>
  <g>
    <path class="cls-11" d="M134.07,21.82c-.89,.84-1.83,1.64-2.71,2.5-4.09,3.98-8.52,7.48-13.83,9.72-2.33,.98-4.69,1.72-7.21,2.18-8.32,1.49-17.15,.38-25.17-2.17-6.36-2.02-12.57-4.49-18.88-6.68-3.77-1.31-7.48-2.8-11.36-3.74-4.36-1.06-8.5-1.39-12.99-1.43-3.68-.03-7.36,.51-10.99,1.03-4.24,.6-8.45,.85-12.67,.43-3.87-.38-7.66-1.19-10.58-3.97-2.44-2.33-4.79-5.87-4.6-9.39,.18-3.31,2.88-7.02,6.41-7.15,2.26-.08,4.85,1.61,5.02,4,.15,1.99-1.72,4.89-3.38,2.25-.63-1-.92-1.83-2.29-1.84-1.29-.01-1.94,1.66-1.72,2.83,.29,1.54,1.71,2.79,3.14,3.18,1.9,.52,4.35,.15,5.65-1.46,2.07-2.57,1.79-6.19,0-8.83C13.98,.44,9.84-.82,6.61,.57,4.32,1.55,2.35,3.38,1.28,5.65c-3,6.4-.38,12.72,4.16,16.43,2.75,2.25,6,3.6,9.5,4.27,1.83,.35,3.67,.63,5.88,1-1.07-.18-4.91,4.48-5.55,5.44-1.62,2.43-2.26,5.63-2.08,8.5,.33,5.18,3.54,9.26,8.55,10.69,4.35,1.25,9.27-1.23,10.73-5.43,.77-2.21,.94-5.16-.76-7.05-1.91-2.11-4.05-2.85-6.97-2.18-1.32,.31-2.66,1.66-2.85,3.02-.18,1.29,.38,2.1,1.51,2.69,1.46,.76,2.34-.46,3.78-.81,2.1-.51,2.51,1.73,1.99,3.26-1.2,3.51-5.07,4.11-8.08,2.56-4.2-2.17-5.18-7.43-3.26-11.57,2.81-6.05,8.37-8.63,14.71-9.98,7.32-1.55,14.58-.58,21.76,1.09,6.83,1.59,13.39,4.06,19.99,6.39,7.98,2.82,16.09,5.29,24.52,6.45,7.04,.97,13.85,.11,20.13-3.35,6.52-3.59,13.24-11.42,15.12-15.26Z"/>
    <path class="cls-1" d="M103.18,46.88c-.84,.79-1.36,2.05-1.26,3.2,.16,2.05,2.5,2.92,4.13,1.82,1.02-.68,1.75-1.83,2.13-2.98,.69-2.09,1.07-3.83,2.63-5.44,.65-.67,1.64-1.19,1.42-1.14-3.72,.86-6.54,2.18-9.04,4.54Z"/>
    <path class="cls-3" d="M83.44,43.82c-1.02,.55-1.83,1.63-2.04,2.77-.37,2.02,1.67,3.46,3.53,2.82,1.16-.4,2.16-1.32,2.82-2.33,1.2-1.84,2.02-3.43,3.93-4.59,.8-.49,1.89-.73,1.66-.74-3.82-.12-6.88,.43-9.9,2.07Z"/>
    <path class="cls-2" d="M66.82,37.43c-1.13,.27-2.19,1.1-2.69,2.15-.88,1.86,.72,3.77,2.68,3.63,1.22-.09,2.42-.72,3.33-1.53,1.64-1.47,2.83-2.79,4.98-3.42,.9-.26,2.01-.22,1.8-.29-3.66-1.1-6.76-1.35-10.1-.55Z"/>
    <path class="cls-9" d="M49.3,32.49c-1.08,.41-2.04,1.36-2.4,2.47-.64,1.95,1.18,3.66,3.1,3.28,1.2-.24,2.32-1.01,3.11-1.92,1.45-1.66,2.47-3.12,4.53-4.01,.86-.37,1.97-.47,1.75-.51-3.77-.64-6.87-.52-10.09,.69Z"/>
    <path class="cls-4" d="M53.54,17.63c-.69-.93-.98-2.25-.69-3.37,.51-1.99,2.96-2.44,4.38-1.09,.89,.85,1.41,2.1,1.59,3.3,.32,2.18,.4,3.95,1.65,5.81,.52,.78,1.41,1.46,1.2,1.37-3.52-1.49-6.06-3.27-8.12-6.02Z"/>
    <path class="cls-12" d="M35.44,15.84c-.83-.81-1.33-2.07-1.22-3.22,.19-2.05,2.54-2.88,4.16-1.76,1.01,.7,1.72,1.85,2.09,3.01,.66,2.1,1.02,3.84,2.55,5.48,.64,.68,1.62,1.22,1.4,1.16-3.71-.91-6.5-2.27-8.97-4.66Z"/>
    <path class="cls-6" d="M71.23,23.26c-.69-.93-.98-2.25-.69-3.37,.51-1.99,2.96-2.44,4.38-1.09,.89,.85,1.41,2.1,1.59,3.3,.32,2.18,.4,3.95,1.65,5.81,.52,.78,1.41,1.46,1.2,1.37-3.52-1.49-6.06-3.27-8.12-6.02Z"/>
    <path class="cls-8" d="M88.85,27.14c-.59-1-.73-2.34-.32-3.43,.73-1.92,3.21-2.1,4.47-.6,.79,.94,1.17,2.24,1.22,3.45,.08,2.2-.04,3.97,1.01,5.96,.44,.83,1.24,1.6,1.04,1.49-3.33-1.86-5.67-3.91-7.42-6.87Z"/>
  </g>
  <g>
    <path class="cls-17" d="M140.81,21.82c.89,.84,1.83,1.64,2.71,2.5,4.09,3.98,8.52,7.48,13.83,9.72,2.33,.98,4.69,1.72,7.21,2.18,8.32,1.49,17.15,.38,25.17-2.17,6.36-2.02,12.57-4.49,18.88-6.68,3.77-1.31,7.48-2.8,11.36-3.74,4.36-1.06,8.5-1.39,12.99-1.43,3.68-.03,7.36,.51,10.99,1.03,4.24,.6,8.45,.85,12.67,.43,3.87-.38,7.66-1.19,10.58-3.97,2.44-2.33,4.79-5.87,4.6-9.39-.18-3.31-2.88-7.02-6.41-7.15-2.26-.08-4.85,1.61-5.02,4-.15,1.99,1.72,4.89,3.38,2.25,.63-1,.92-1.83,2.29-1.84,1.29-.01,1.94,1.66,1.72,2.83-.29,1.54-1.71,2.79-3.14,3.18-1.9,.52-4.35,.15-5.65-1.46-2.07-2.57-1.79-6.19,0-8.83,1.92-2.83,6.06-4.09,9.29-2.7,2.3,.99,4.27,2.82,5.33,5.09,3,6.4,.38,12.72-4.16,16.43-2.75,2.25-6,3.6-9.5,4.27-1.83,.35-3.67,.63-5.88,1,1.07-.18,4.91,4.48,5.55,5.44,1.62,2.43,2.26,5.63,2.08,8.5-.33,5.18-3.54,9.26-8.55,10.69-4.35,1.25-9.27-1.23-10.73-5.43-.77-2.21-.94-5.16,.76-7.05,1.91-2.11,4.05-2.85,6.97-2.18,1.32,.31,2.66,1.66,2.85,3.02,.18,1.29-.38,2.1-1.51,2.69-1.46,.76-2.34-.46-3.78-.81-2.1-.51-2.51,1.73-1.99,3.26,1.2,3.51,5.07,4.11,8.08,2.56,4.2-2.17,5.18-7.43,3.26-11.57-2.81-6.05-8.37-8.63-14.71-9.98-7.32-1.55-14.58-.58-21.76,1.09-6.83,1.59-13.39,4.06-19.99,6.39-7.98,2.82-16.09,5.29-24.52,6.45-7.04,.97-13.85,.11-20.13-3.35-6.52-3.59-13.24-11.42-15.12-15.26Z"/>
    <path class="cls-10" d="M171.7,46.88c.84,.79,1.36,2.05,1.26,3.2-.16,2.05-2.5,2.92-4.13,1.82-1.02-.68-1.75-1.83-2.13-2.98-.69-2.09-1.07-3.83-2.63-5.44-.65-.67-1.64-1.19-1.42-1.14,3.72,.86,6.54,2.18,9.04,4.54Z"/>
    <path class="cls-16" d="M191.44,43.82c1.02,.55,1.83,1.63,2.04,2.77,.37,2.02-1.67,3.46-3.53,2.82-1.16-.4-2.16-1.32-2.82-2.33-1.2-1.84-2.02-3.43-3.93-4.59-.8-.49-1.89-.73-1.66-.74,3.82-.12,6.88,.43,9.9,2.07Z"/>
    <path class="cls-18" d="M208.06,37.43c1.13,.27,2.19,1.1,2.69,2.15,.88,1.86-.72,3.77-2.68,3.63-1.22-.09-2.42-.72-3.33-1.53-1.64-1.47-2.83-2.79-4.98-3.42-.9-.26-2.01-.22-1.8-.29,3.66-1.1,6.76-1.35,10.1-.55Z"/>
    <path class="cls-14" d="M225.58,32.49c1.08,.41,2.04,1.36,2.4,2.47,.64,1.95-1.18,3.66-3.1,3.28-1.2-.24-2.32-1.01-3.11-1.92-1.45-1.66-2.47-3.12-4.53-4.01-.86-.37-1.97-.47-1.75-.51,3.77-.64,6.87-.52,10.09,.69Z"/>
    <path class="cls-7" d="M221.34,17.63c.69-.93,.98-2.25,.69-3.37-.51-1.99-2.96-2.44-4.38-1.09-.89,.85-1.41,2.1-1.59,3.3-.32,2.18-.4,3.95-1.65,5.81-.52,.78-1.41,1.46-1.2,1.37,3.52-1.49,6.06-3.27,8.12-6.02Z"/>
    <path class="cls-5" d="M239.44,15.84c.83-.81,1.33-2.07,1.22-3.22-.19-2.05-2.54-2.88-4.16-1.76-1.01,.7-1.72,1.85-2.09,3.01-.66,2.1-1.02,3.84-2.55,5.48-.64,.68-1.62,1.22-1.4,1.16,3.71-.91,6.5-2.27,8.97-4.66Z"/>
    <path class="cls-15" d="M203.66,23.26c.69-.93,.98-2.25,.69-3.37-.51-1.99-2.96-2.44-4.38-1.09-.89,.85-1.41,2.1-1.59,3.3-.32,2.18-.4,3.95-1.65,5.81-.52,.78-1.41,1.46-1.2,1.37,3.52-1.49,6.06-3.27,8.12-6.02Z"/>
    <path class="cls-13" d="M186.03,27.14c.59-1,.73-2.34,.32-3.43-.73-1.92-3.21-2.1-4.47-.6-.79,.94-1.17,2.24-1.22,3.45-.08,2.2,.04,3.97-1.01,5.96-.44,.83-1.24,1.6-1.04,1.49,3.33-1.86,5.67-3.91,7.42-6.87Z"/>
  </g>
</svg>