<?xml version="1.0" encoding="UTF-8"?>
<svg id="Layer_1" data-name="Layer 1" xmlns="http://www.w3.org/2000/svg" viewBox="0 0 306.49 210.11">
  <defs>
    <style>
      .cls-1 {
        fill: #f8f1e0;
      }
    </style>
  </defs>
  <g>
    <path class="cls-1" d="M75.48,165.57c1.31-.12,2.73-.28,4.31-.46,8.44-.93,30.62-3.95,30.87-.86-11.5,2.4-24.66,2.78-34.59,4.2-9.93,1.42-11.15-1.05-14.49-2.28-14.38-5.33-11.16-19.98-11.16-19.98,.64-16.8,11.86-30.02,10.57-46.44-.52-6.7-.83-13.46-.55-20.17,.22-5.36,2.42-10.21,7.49-13.53-.48,1.14-.86,2.33-1.45,3.42-3.9,7.22-4.82,14.95-3.77,22.95,1.2,9.23,.92,18.26-2.37,27.11-.56,1.49-1.13,3.6-.25,5.01,1.98,3.19,1.37,3.62-1.49,3.99-1.7,.22-3.14,5.2-2.21,6.56,3,4.39-1.42,4.13-1.67,5.25-3.04,13.88,2.81,18.32,5.87,20.83,2.28,1.86,4.24,3.03,6.16,3.72,0,0,1.19,2.72,2.39,3.32s3.85,1.09,4.85-.01c1-1.11,1.49-2.61,1.49-2.61Z"/>
    <path class="cls-1" d="M85.66,56.82c-8.87-10.28-17.97-20.32-30.97-27.95-1.25,5.95-2.55,11.14-3.3,16.41-.16,1.12,1.42,2.81,2.6,3.73,6.9,5.45,13.91,10.74,21.58,16.62-1.97-.62-3.53-.91-4.9-1.58-16.48-8.06-28.78-20.39-36.92-36.77-1.01-2.03-1.5-5.73-.37-7.03,1.18-1.35,4.81-1.44,7.05-.87,17.66,4.5,30.82,15.49,41.63,29.65,1.68,2.2,3.1,4.61,4.64,6.92-.35,.29-.69,.57-1.04,.86Z"/>
    <path class="cls-1" d="M115.57,54.94c0-5.92,.18-11.84-.04-17.75-.41-11.01-3.44-14.5-15.2-17.56-.68,10.71,1.5,20.91,3.05,31.53-.71-1.38-1.62-2.7-2.1-4.16-4.58-13.88-5.03-28.03-2.21-42.28,.36-1.8,2.15-4.78,3.08-4.71,2.05,.16,4.66,1.44,5.83,3.11,9.31,13.3,11.25,28.38,9.93,44.12-.22,2.65-.85,5.26-1.29,7.89-.35-.06-.69-.12-1.04-.18Z"/>
    <path class="cls-1" d="M104.71,113.08c4.16-1.25,8.21-1.86,11.64-3.66,4.47-2.35,8.94-5.14,12.52-8.65,4.35-4.27,3.9-9.41,.57-12.22-.91-.77-1.16-2.33-1.16-3.5,.03-18.08-17.06-32-37-31.11-1.03,.05-2.06,0-3.1-1.13,5.24,0,10.6-.71,15.69,.14,13.99,2.33,24.05,13.11,26.35,27.19,.52,3.21,.47,6.42,3.64,8.93,1.23,.97,1.33,4.86,.45,6.71-1.82,3.8-4.13,7.66-7.16,10.53-5.73,5.41-15.19,7.94-22.44,6.8Z"/>
    <path class="cls-1" d="M110.17,139.95c8.33-7.85,5.92-17.17,2.29-25.66,4.32,4.91,5.86,10.47,4.14,16.74-.44,1.6-1.92,6.52,.36,6.95,1.23,.23,1.67,1.42,1.59,2.43-.05,.63-.29,2.52-.29,2.52,0,0-.63,.16-.69-.84s.39-3.27-1.44-3.73-5.96,1.59-5.96,1.59Z"/>
    <path class="cls-1" d="M89.62,103.48c10.94,.16,13.47-2.8,12.07-12.76,2.78,2.71,3.33,7.23,1.25,10.45-2.46,3.82-7.08,4.86-13.32,2.31Z"/>
    <path class="cls-1" d="M86.05,99.86c-2.28-3.57-1.52-7.3,1.2-10.58,2.91-3.51,6.79-3.45,11.13-2.35-3.47,1.27-7.32,1.61-9.3,3.71-1.97,2.08-2.06,5.93-3.03,9.22Z"/>
    <path class="cls-1" d="M99.32,135.53c1.35-5.37,2.7-10.75,4.01-15.95,1.95,3.58,1.24,7.36-4.01,15.95Z"/>
    <path class="cls-1" d="M90.7,123.1c1.29,5.39,2.58,10.78,3.82,15.99-3.38-2.27-4.51-5.95-3.82-15.99Z"/>
    <path class="cls-1" d="M51.11,148.21l-10.13-5.58-.39-.21c1.49-3.36,3.14-6.65,4.82-9.92,.15-.26,.87-1.69,1-1.92,.31-.62,0-1.41-.65-1.67-.79-.34-3.56-1.64-4.39-2.02-2.27-1.07-4.52-2.21-6.73-3.42l.22-.44c3.85-7.68,8.01-15.26,12.24-22.74,1.33-1.9,.5-4.1-1.66-4.7,0,0-.86-.33-.86-.33-1.12-.43-7.36-2.81-8.61-3.28,0,0-13.78-5.26-13.78-5.26l-6.86-2.61c-1.65-.63-3.67,.53-3.91,2.4-.87,4.87-3.05,17.08-3.89,21.77-.35,1.79,.92,3.47,2.67,3.89,0,0,.87,.32,.87,.32l13.85,5.07h.03s.44,.17,.44,.17l-.14,.45c-.66,2.09-2.37,7.47-3.01,9.49-.15,.5-.6,1.89-.75,2.37-.2,.52-.33,1.09,.2,1.46,.88,.41,3.52,1.35,4.47,1.74,.6,.23,6.74,2.58,7.14,2.73-.12,.23-4.26,8.31-4.51,8.79-.3,.72-.01,1.63,.65,2.06,3.45,1.29,18.55,5.66,22.33,6.89,0,0,.04,.01,.04,.01l-.62,.48c-.06-2.01-.09-4-.1-6.02h0Zm.83-.5c.11,2.37,.2,4.77,.26,7.15l-.64-.18h-.04c-3.27-.92-18.74-5.27-21.64-6.08-2.07-.34-3.41-2.76-2.4-4.7,.49-1.01,1.34-2.76,1.84-3.79l1.96-4.04,.46,1.22h-.03c-2.03-.86-7.23-3.03-9.19-3.85l-.77-.32c-1.1-.32-1.97-1.38-1.8-2.55,.08-.55,.38-1.2,.54-1.72,.97-2.83,2.85-8.09,3.84-10.96,0,0,.3,.61,.3,.61-.04-.02-14.05-4.47-14.08-4.49,0,0-.88-.28-.88-.28-2.53-.55-4.45-3.11-3.99-5.74,.72-4.68,2.64-17.04,3.38-21.86,.19-1.49,1.12-3.02,2.47-3.84,1.34-.85,3.09-1.05,4.6-.52l6.94,2.58c6.48,2.45,17.95,6.63,24.29,9.09,2.24,1.08,3.49,3.74,2.92,6.15-.34,1.56-2.08,3.86-2.8,5.21-3.8,6.33-7.7,12.58-11.8,18.73,0,0-.23-.7-.22-.68,3.21,1.11,6.68,2.53,9.82,3.86,0,0,.81,.35,.81,.35,2.05,.64,2.94,2.97,1.74,4.78-1.98,3.58-4.02,7.16-6.22,10.62,0,0-.19-.65-.19-.65l10.49,5.92h0Z"/>
    <path class="cls-1" d="M68.71,150.84c-.86,4.88-2.6,10.29-.53,14.9,1.46,3.25,4.26,3.58,5.94,1.24,2.32-3.24,3.37-10.58,3.69-13.26,.46-2.61,.14-5.19-.73-7.63-.12-.65-.2-1.34-.54-1.5-.23-.14-.59,.18-.98,.09-.25-.06-.91-.29-1.01-.56-.16-.43-.49-.15-.7-.18-.48-.07-.89,0-1.33,.16-2.29,.82-3.42,4.28-3.8,6.75h0Zm-1.93-.41c.62-3.94,4.07-8.99,8.3-7.1,.49,.34,1.07,.23,1.79,.62,.71,.44,.72,1.31,.86,2.01,1.86,5.08,.57,10.57-.54,15.69-.91,3.03-1.86,7.54-5.28,8.37-2.21,.2-4.35-1.19-5.38-3.03-2.5-5.07-.75-11.39,.25-16.55h0Z"/>
    <path class="cls-1" d="M72.28,151.09c.79-2.27,2.21-4.78,2.21-7.14,.06-.04-.29-.11-.59-.05-.56,.12-.8-.78-.27-.99,.48-.21,1.14-.33,1.6,.07,1.76,1.81-1.48,6.69-2.58,8.33-.15,.21-.48,0-.37-.23h0Z"/>
    <path class="cls-1" d="M75.36,151.1c.53-1.94,1.38-4.05,1.29-6.01-.06-.25-.07-.32-.15-.36-.1-.07-.44-.08-.72-.03-.55,.09-.76-.8-.24-.99,.54-.31,1.64-.34,2.05,.41,.61,.99,.24,2.27-.01,3.18-.44,1.45-1.07,2.77-1.84,4.01-.13,.22-.47,.04-.38-.2h0Z"/>
    <path class="cls-1" d="M113.78,149.45c-1.54,5.01-4.76,10.74-2.36,15.56,1.1,2.21,3.79,1.6,5.22,1.14,3.72-1.22,6.11-9.08,6.96-12.53,.83-2.68,1.62-4.58,.93-7.26-.05-.7-.91-2.27-1.27-2.48-.24-.18-.68,.12-1.1-.02-.28-.09-.99-.42-1.06-.72-.12-.47-.53-.22-.76-.28-.53-.14-.99-.12-1.51,0-2.66,.57-4.32,4.06-5.04,6.6h0Zm-2.1-.67c1.16-4.05,5.61-8.92,10.1-6.41,.51,.42,1.16,.38,1.92,.87,.74,.55,1.5,2.31,1.57,3.06,1.47,5.56-1.46,10.32-3.3,15.55-1.37,3.07-3.39,5.97-7.3,6.41-2.49-.07-3.82-.57-4.75-2.64-2.19-5.63,.04-11.56,1.77-16.84h0Z"/>
    <path class="cls-1" d="M116.09,150.2c1.15-2.28,3.03-4.74,3.31-7.21,.08-.04-.31-.15-.65-.12-.64,.06-.8-.92-.18-1.07,.56-.16,1.32-.2,1.77,.28,1.75,2.12-2.44,6.83-3.87,8.42-.19,.21-.53-.05-.38-.29h0Z"/>
    <path class="cls-1" d="M119.67,150.29c.82-1.97,2.02-4.08,2.15-6.14-.04-.27-.03-.35-.13-.4-.1-.08-.48-.14-.8-.13-.63,.03-.75-.93-.15-1.07,.64-.26,1.87-.15,2.24,.69,.56,1.12,0,2.42-.39,3.33-.66,1.47-1.53,2.77-2.53,3.98-.17,.22-.53-.02-.4-.26h0Z"/>
    <path class="cls-1" d="M91.68,130.16c.31,2.38,1.05,4.79,2.16,6.94,0,0,1.8,3.25,1.8,3.25,.94,1.4,1.05,3.51-1.28,3.38,0,0,.53-.43,.53-.43-.12,1.27-1.15,2.1-2.32,1.33,0,0,.73-.33,.73-.33-.12,.69-.46,1.43-1.17,1.73-.71,.3-1.44,.05-2.04-.28l.68-.22c-.51,1.33-2.1,1.65-3.24,.88,0,0,.74-.47,.74-.47,.29,1.63-1.07,2.16-2.37,1.35-1.46-.82-2.55-2.06-3.91-2.81-2.13-1.02-4.58-1.07-6.87-1.9-4.76-2.01-8.42-6.87-9.18-11.93-.37-3.32-.35-6.34-1.63-9.41,0,0,.38-.24,.38-.24,2.05,2.62,2.57,6.21,3.17,9.28,1,4.28,4.09,8.36,8.04,10.25,2.26,.85,4.85,1.07,7.01,2.4,1.6,.97,2.74,2.83,4.28,3.58-.03,.03-.01,.08,.04-.03,.14-.37-.06-.94,.55-.96,.29,.04,.52,.28,.83,.32,.58,.14,1-.1,1.28-.69,.12-.26,.43-.36,.68-.22,.91,.54,1.62,.31,1.78-.77,.05-.32,.42-.5,.7-.34,.34,.21,.62,.27,.77-.16,.13-.36,.12-.9,.65-.86,.21,.01,.49-.02,.64-.11,.54-.39,0-1.25-.3-1.83,0,0-1.83-3.3-1.83-3.3-1.17-2.28-1.93-4.72-2.26-7.28,0,0,.96-.09,.96-.09h0Z"/>
    <path class="cls-1" d="M102.67,126.62c-.37,2.45-1.11,4.74-2.24,6.93-.66,1.51-2.03,3-2.26,4.6,.04,.62,.83,.56,1.29,.52,.06,.41,.12,1.22,.64,1.15,.21-.03,.63-.31,.84-.42,.19,1.66,.88,1.99,2.28,1.07,.57,1.46,1.4,1.31,2.51,.54,0,0,.16,.63,.16,.63,.21,.92,1.5-.19,1.96-.54,2.51-2.17,5.31-3.97,6.73-7.12,0,0,.5,2.87,.5,2.87-.76,.86-.4,0-1.23,.82-1.69,1.64-3.7,2.55-5.42,4.13-.75,.53-1.65,1.34-2.72,.93-.43-.23-.62-.63-.67-1.03l.65,.32c-.76,.47-1.86,.58-2.52-.12-.23-.21-.36-.47-.49-.72l.56,.18c-.56,.3-1.24,.53-1.89,.25-.65-.28-.95-.96-1.05-1.59l.55,.25c-1.06,.68-1.94-.07-2.06-1.2,0,0,.39,.31,.39,.31-.37,.02-.71-.01-1.07-.19-1.14-.58-.52-2.14-.05-2.88,1.17-2.04,2.37-4.08,3-6.37,.33-1.12,.59-2.28,.69-3.41l.92,.08h0Z"/>
    <path class="cls-1" d="M133.22,89.77s-4.41-.11-5.32,.3,1.4,2.3,3.17,2.83c1.77,.53,2.49-.53,2.49-.53l-.34-2.6Z"/>
    <polygon class="cls-1" points="53.36 148.3 48.93 146.41 45.09 146 47.91 148.13 46.05 148.59 47.53 149.81 44.07 149.73 46.98 151.68 45.21 151.91 52.57 154.56 53.36 148.3"/>
    <path class="cls-1" d="M232.09,165.57c-1.31-.12-2.73-.28-4.31-.46-8.44-.93-30.62-3.95-30.87-.86,11.5,2.4,24.66,2.78,34.59,4.2,9.93,1.42,11.15-1.05,14.49-2.28,14.38-5.33,11.16-19.98,11.16-19.98-.64-16.8-11.86-30.02-10.57-46.44,.52-6.7,.83-13.46,.55-20.17-.22-5.36-2.42-10.21-7.49-13.53,.48,1.14,.86,2.33,1.45,3.42,3.9,7.22,4.82,14.95,3.77,22.95-1.2,9.23-.92,18.26,2.37,27.11,.56,1.49,1.13,3.6,.25,5.01-1.98,3.19-1.37,3.62,1.49,3.99,1.7,.22,3.14,5.2,2.21,6.56-3,4.39,1.42,4.13,1.67,5.25,3.04,13.88-2.81,18.32-5.87,20.83-2.28,1.86-4.24,3.03-6.16,3.72,0,0-1.19,2.72-2.39,3.32-1.2,.6-3.85,1.09-4.85-.01-1-1.11-1.49-2.61-1.49-2.61Z"/>
    <path class="cls-1" d="M221.92,56.82c8.87-10.28,17.97-20.32,30.97-27.95,1.25,5.95,2.55,11.14,3.3,16.41,.16,1.12-1.42,2.81-2.6,3.73-6.9,5.45-13.91,10.74-21.58,16.62,1.97-.62,3.53-.91,4.9-1.58,16.48-8.06,28.78-20.39,36.92-36.77,1.01-2.03,1.5-5.73,.37-7.03-1.18-1.35-4.81-1.44-7.05-.87-17.66,4.5-30.82,15.49-41.63,29.65-1.68,2.2-3.1,4.61-4.64,6.92,.35,.29,.69,.57,1.04,.86Z"/>
    <path class="cls-1" d="M192,54.94c0-5.92-.18-11.84,.04-17.75,.41-11.01,3.44-14.5,15.2-17.56,.68,10.71-1.5,20.91-3.05,31.53,.71-1.38,1.62-2.7,2.1-4.16,4.58-13.88,5.03-28.03,2.21-42.28-.36-1.8-2.15-4.78-3.08-4.71-2.05,.16-4.66,1.44-5.83,3.11-9.31,13.3-11.25,28.38-9.93,44.12,.22,2.65,.85,5.26,1.29,7.89,.35-.06,.69-.12,1.04-.18Z"/>
    <path class="cls-1" d="M202.86,113.08c-4.16-1.25-8.21-1.86-11.64-3.66-4.47-2.35-8.94-5.14-12.52-8.65-4.35-4.27-3.9-9.41-.57-12.22,.91-.77,1.16-2.33,1.16-3.5-.03-18.08,17.06-32,37-31.11,1.03,.05,2.06,0,3.1-1.13-5.24,0-10.6-.71-15.69,.14-13.99,2.33-24.05,13.11-26.35,27.19-.52,3.21-.47,6.42-3.64,8.93-1.23,.97-1.33,4.86-.45,6.71,1.82,3.8,4.13,7.66,7.16,10.53,5.73,5.41,15.19,7.94,22.44,6.8Z"/>
    <path class="cls-1" d="M197.4,139.95c-8.33-7.85-5.92-17.17-2.29-25.66-4.32,4.91-5.86,10.47-4.14,16.74,.44,1.6,1.92,6.52-.36,6.95-1.23,.23-1.67,1.42-1.59,2.43,.05,.63,.29,2.52,.29,2.52,0,0,.63,.16,.69-.84s-.39-3.27,1.44-3.73,5.96,1.59,5.96,1.59Z"/>
    <path class="cls-1" d="M217.95,103.48c-10.94,.16-13.47-2.8-12.07-12.76-2.78,2.71-3.33,7.23-1.25,10.45,2.46,3.82,7.08,4.86,13.32,2.31Z"/>
    <path class="cls-1" d="M221.52,99.86c2.28-3.57,1.52-7.3-1.2-10.58-2.91-3.51-6.79-3.45-11.13-2.35,3.47,1.27,7.32,1.61,9.3,3.71,1.97,2.08,2.06,5.93,3.03,9.22Z"/>
    <path class="cls-1" d="M208.26,135.53c-1.35-5.37-2.7-10.75-4.01-15.95-1.95,3.58-1.24,7.36,4.01,15.95Z"/>
    <path class="cls-1" d="M216.87,123.1c-1.29,5.39-2.58,10.78-3.82,15.99,3.38-2.27,4.51-5.95,3.82-15.99Z"/>
    <path class="cls-1" d="M255.64,147.71l10.49-5.92-.19,.65c-1.89-2.97-3.65-6.01-5.37-9.08-.21-.32-.89-1.64-1.07-1.95-.69-1.33-.24-3.1,1.03-3.91,1.07-.61,3.82-1.65,4.98-2.16,2.17-.89,4.36-1.73,6.58-2.5l-.22,.69c-4.97-7.54-9.82-15.17-14.3-23-1.31-2.91,.43-6.55,3.48-7.44,0,0,10.61-3.96,10.61-3.96,5.19-1.93,14.12-5.27,19.24-7.17,6.28-2.45,8.94,5.15,8.13,10.13-.6,4.17-3.27,7.65-6.83,9.81,0,0-.74-1.96-.74-1.96,3.95-.7,7.34,2.43,8.18,6.06,2.07,7.33-11.82,10.19-16.7,12.49,0,0,.27-.6,.27-.6,.99,2.89,2.86,8.13,3.84,10.98,.15,.51,.48,1.19,.54,1.73,.16,1.17-.72,2.22-1.82,2.53,0,0-.77,.32-.77,.32-1.95,.82-7.18,3-9.2,3.84,0,0,.46-1.22,.46-1.22,.63,1.28,2.34,4.81,2.95,6.07l.49,1.01,.25,.51c.89,1.48,.43,3.55-1.05,4.45-.89,.56-4.57,1.36-5.57,1.71,0,0-17.33,4.86-17.33,4.86-.31,.09-.63-.16-.62-.48,.06-2.16,.14-4.34,.24-6.49h0Zm.83,.5c-.01,2.02-.04,4.01-.1,6.02l-.62-.48c3.27-.98,18.62-5.69,21.52-6.56,1.17-.2,1.92-1.31,1.5-2.4l-4.07-7.93c-.22-.43-.05-.96,.38-1.18,2.11-.82,7.35-2.81,9.39-3.6,.25-.1,.92-.35,1.16-.45,.47-.16,.72-.69,.55-1.17-.22-.69-.65-2.06-.88-2.77-.63-1.99-2.35-7.44-3.01-9.5-.09-.24,.04-.51,.27-.6,4.41-2.35,9.66-3.99,13.6-6.95,.91-.76,1.63-1.69,1.81-2.65,.15-2.61-1.89-5.6-4.54-5.99-.51-.09-1.13-.08-1.53,0-1.14,.24-1.74-1.35-.77-1.94,2.88-1.8,5.24-4.91,5.62-8.29,.42-2.89-.69-8.89-4.65-7.62-2.19,.84-6.69,2.55-8.93,3.41-5.27,2.02-15.89,6.05-21.17,8.07-1.89,.51-2.81,2.63-1.74,4.32,0,0,.35,.62,.35,.62,4.18,7.39,8.27,14.86,12.08,22.46,.14,.2,.09,.48-.11,.62-3.02,1.66-6.44,3.27-9.58,4.72,0,0-.8,.36-.8,.36l-.4,.18c-.64,.26-.96,1.05-.65,1.67,.12,.26,.87,1.63,1,1.92,1.61,3.13,3.19,6.27,4.63,9.48,.13,.23,.04,.52-.19,.65l-10.13,5.58h0Z"/>
    <path class="cls-1" d="M238.86,150.84c-.38-2.47-1.5-5.93-3.8-6.75-.45-.16-.85-.23-1.33-.16-.22,.03-.55-.25-.7,.18-.1,.27-.76,.5-1.01,.56-.39,.09-.75-.23-.98-.09-.34,.16-.43,.85-.54,1.5-.87,2.45-1.19,5.03-.73,7.63,.33,2.68,1.38,10.02,3.69,13.26,1.68,2.35,4.48,2.02,5.94-1.24,2.06-4.61,.32-10.02-.53-14.9h0Zm1.93-.41c1,5.16,2.75,11.48,.25,16.55-1.03,1.84-3.17,3.23-5.38,3.03-3.42-.83-4.37-5.33-5.28-8.37-1.11-5.12-2.4-10.61-.54-15.69,.13-.7,.15-1.57,.86-2.01,.72-.39,1.3-.27,1.79-.62,4.23-1.89,7.68,3.17,8.3,7.1h0Z"/>
    <path class="cls-1" d="M235.29,151.09c-.79-2.27-2.21-4.78-2.21-7.14-.06-.04,.29-.11,.59-.05,.56,.12,.8-.78,.27-.99-.48-.21-1.14-.33-1.6,.07-1.76,1.81,1.48,6.69,2.58,8.33,.15,.21,.48,0,.37-.23h0Z"/>
    <path class="cls-1" d="M232.22,151.1c-.53-1.94-1.38-4.05-1.29-6.01,.06-.25,.07-.32,.15-.36,.1-.07,.44-.08,.72-.03,.55,.09,.76-.8,.24-.99-.54-.31-1.64-.34-2.05,.41-.61,.99-.24,2.27,.01,3.18,.44,1.45,1.07,2.77,1.84,4.01,.13,.22,.47,.04,.38-.2h0Z"/>
    <path class="cls-1" d="M193.79,149.45c-.71-2.54-2.38-6.03-5.04-6.6-.52-.11-.98-.13-1.51,0-.24,.06-.64-.19-.76,.28-.08,.29-.78,.62-1.06,.72-.42,.14-.86-.15-1.1,.02-.36,.21-1.22,1.79-1.27,2.48-.69,2.68,.11,4.58,.93,7.26,.85,3.45,3.24,11.32,6.96,12.53,1.43,.47,4.12,1.07,5.22-1.14,2.39-4.82-.83-10.55-2.36-15.56h0Zm2.1-.67c1.73,5.28,3.96,11.21,1.77,16.84-.94,2.06-2.27,2.57-4.75,2.64-3.91-.44-5.93-3.34-7.3-6.41-1.84-5.23-4.78-9.99-3.3-15.55,.07-.75,.82-2.51,1.57-3.06,.76-.5,1.42-.45,1.92-.87,4.5-2.51,8.94,2.36,10.1,6.41h0Z"/>
    <path class="cls-1" d="M191.48,150.2c-1.15-2.28-3.03-4.74-3.31-7.21-.08-.04,.31-.15,.65-.12,.64,.06,.8-.92,.18-1.07-.56-.16-1.32-.2-1.77,.28-1.75,2.12,2.44,6.83,3.87,8.42,.19,.21,.53-.05,.38-.29h0Z"/>
    <path class="cls-1" d="M187.9,150.29c-.82-1.97-2.02-4.08-2.15-6.14,.04-.27,.03-.35,.13-.4,.1-.08,.48-.14,.8-.13,.63,.03,.75-.93,.15-1.07-.64-.26-1.87-.15-2.24,.69-.56,1.12,0,2.42,.39,3.33,.66,1.47,1.53,2.77,2.53,3.98,.17,.22,.53-.02,.4-.26h0Z"/>
    <path class="cls-1" d="M216.86,130.25c-.33,2.56-1.09,5-2.26,7.28,0,0-1.83,3.3-1.83,3.3-.3,.49-.55,1.07-.52,1.47,.05,.79,1.3,.12,1.39,.9,.05,.26,.15,.81,.5,.76,.1,0,.25-.09,.39-.16,.28-.16,.66,.02,.71,.34,.17,1.08,.87,1.31,1.78,.77,.23-.13,.53-.05,.66,.18,.33,.87,1.17,.94,1.85,.51,.28-.24,.74-.01,.74,.35,0,.16,.01,.39,.07,.51,.05,.11,.07,.06,.04,.03-.03,0,.35-.12,.6-.34,1.79-1.53,3.63-3.8,6.12-4.3,1.48-.48,3.18-.82,4.56-1.33,2.66-1.1,4.83-3.71,6.4-6.07,1.71-2.72,1.84-5.79,2.64-8.94,.52-1.61,1.16-3.14,2.18-4.51l.38,.24c-1.28,3.07-1.26,6.08-1.63,9.41-.75,5.05-4.43,9.93-9.18,11.93-2.29,.83-4.74,.88-6.87,1.9-1.36,.75-2.45,1.99-3.91,2.81-.49,.26-1.08,.52-1.66,.31-.75-.31-.8-1.04-.71-1.66,0,0,.74,.47,.74,.47-.81,.51-2,.63-2.71-.12-.24-.23-.39-.5-.53-.77l.68,.22c-.28,.15-.58,.29-.92,.37-1.14,.33-2.2-.72-2.29-1.81,0,0,.73,.33,.73,.33-.21,.12-.43,.24-.73,.28-.92,.18-1.53-.81-1.59-1.61,0,0,.53,.43,.53,.43-.83,.12-1.91-.4-1.92-1.35-.03-.87,.33-1.46,.64-2.03,1.07-1.88,2.61-4.56,3.18-6.63,.35-1.16,.64-2.38,.78-3.55l.96,.09h0Z"/>
    <path class="cls-1" d="M204.9,126.62c.37,2.45,1.11,4.74,2.24,6.93,.66,1.51,2.03,3,2.26,4.6-.04,.62-.83,.56-1.29,.52-.06,.41-.12,1.22-.64,1.15-.21-.03-.63-.31-.84-.42-.19,1.66-.88,1.99-2.28,1.07-.57,1.46-1.4,1.31-2.51,.54,0,0-.16,.63-.16,.63-.21,.92-1.5-.19-1.96-.54-2.51-2.17-5.31-3.97-6.73-7.12,0,0-.5,2.87-.5,2.87,.76,.86,.4,0,1.23,.82,1.69,1.64,3.7,2.55,5.42,4.13,.75,.53,1.65,1.34,2.72,.93,.43-.23,.62-.63,.67-1.03l-.65,.32c.76,.47,1.86,.58,2.52-.12,.23-.21,.36-.47,.49-.72l-.56,.18c.56,.3,1.24,.53,1.89,.25,.65-.28,.95-.96,1.05-1.59l-.55,.25c1.06,.68,1.94-.07,2.06-1.2,0,0-.39,.31-.39,.31,.37,.02,.71-.01,1.07-.19,1.14-.58,.52-2.14,.05-2.88-1.17-2.04-2.37-4.08-3-6.37-.33-1.12-.59-2.28-.69-3.41l-.92,.08h0Z"/>
    <path class="cls-1" d="M174.35,89.77s4.41-.11,5.32,.3-1.4,2.3-3.17,2.83c-1.77,.53-2.49-.53-2.49-.53l.34-2.6Z"/>
    <polygon class="cls-1" points="254.22 148.3 258.64 146.41 262.48 146 259.66 148.13 261.52 148.59 260.04 149.81 263.5 149.73 260.59 151.68 262.37 151.91 255 154.56 254.22 148.3"/>
  </g>
  <g>
    <path class="cls-1" d="M107.1,185.99c-3.86,.6-6.71,3.3-6.93,7.24-.13,2.46,1.55,4.83,3.68,5.94,1.69,.88,3.87,.91,5.39-.26,.78-.6,1.42-1.4,1.17-2.45-.2-.85-1.07-1.53-1.94-1.51-.93,.03-1.51,.78-2.34,.99-2.03,.53-3.02-2.24-2.73-3.77,.37-1.96,2.1-3.43,4.04-3.63,2.83-.3,6.07,2.12,6.72,4.89,.42,1.77,.13,4.67-.53,6.37-1.45,3.74-5.75,6.89-9.76,6.69-4.02-.2-7.8-2.31-11.23-4.57-3.56-2.34-8.92-6.52-12.42-8.96-1.75-1.22-6.54-3.29-9.03-3.16-.65-.27-2.47-2.79-5.87-3.77-6.76-1.96-12.79,.14-18.71,3.28-4.82,2.55-8.85,6.21-13.48,9.11-5.33,3.34-11.19,6.31-17.49,5.76-5.85-.51-8.89-2.64-11.29-6.83-1.61-2.82-.89-8.19,2-10.09,3.22-2.11,6.84-.82,8.52,1.79,.7,1.08,1.01,5.4-1.33,4.16-1.55-.82-4.15-.55-4.34,1.54-.25,2.63,2.61,3.96,4.82,3.42,2.17-.54,3.8-1.61,4.53-3.83,1.18-3.55-.53-8.86-5.65-10.73-5.18-1.89-10.34,.19-12.23,5.53-1.92,5.41,.35,12.31,5.38,15.3,6.02,3.58,13.13,4.11,19.71,1.87,5.28-1.79,9.63-5.12,14.03-8.31,4.3-3.11,8.81-5.77,13.68-7.8,2.58-1.08,4.33-1.5,7.13-1.66,2.26-.13,5.25,.75,6.57,2.2-3.82,1.11-7.33,4.94-8.44,6.97-.44,.8-.73,1.64-.99,2.51-.94,3.09,.25,6.62,3.64,7.49,2.67,.69,5.54-1.32,7.19-3.26,2.4-2.83,3.79-6.56,3.49-11.82,2.78,.73,5.62,2.36,7.82,3.89,5.29,3.69,10.5,8.72,16.28,11.63,5.19,2.61,10.38,2.8,15.29-.46,4.42-2.94,6.89-8.27,6.36-13.59-.49-4.89-5.97-8.83-10.72-8.09Zm-42.16,17.32c-.4,.44-.98,.79-1.54,1.01-1.55,.62-2.81-.43-2.86-1.99-.05-1.24,.38-2.64,1.06-3.61,1.58-2.26,3.99-4.82,7.03-5.8,.2,3.98-1.43,7.89-3.69,10.4Z"/>
    <path class="cls-1" d="M305.81,189.12c-1.9-5.34-7.05-7.42-12.23-5.53-5.12,1.87-6.83,7.18-5.65,10.73,.74,2.22,2.36,3.29,4.53,3.83,2.2,.55,5.06-.79,4.82-3.42-.2-2.09-2.79-2.36-4.34-1.54-2.34,1.24-2.03-3.08-1.33-4.16,1.68-2.6,5.31-3.9,8.52-1.79,2.9,1.9,3.61,7.28,2,10.09-2.4,4.2-5.45,6.32-11.29,6.83-6.3,.55-12.17-2.42-17.49-5.76-4.62-2.9-8.66-6.56-13.48-9.11-5.92-3.13-11.96-5.24-18.71-3.28-3.39,.98-5.22,3.5-5.87,3.77-2.49-.13-7.28,1.95-9.03,3.16-3.5,2.43-8.86,6.61-12.42,8.96-3.43,2.26-7.21,4.36-11.23,4.57-4.01,.2-8.31-2.95-9.76-6.69-.66-1.7-.94-4.6-.53-6.37,.65-2.76,3.89-5.18,6.72-4.89,1.93,.2,3.67,1.68,4.04,3.63,.29,1.53-.7,4.31-2.73,3.77-.82-.22-1.4-.97-2.34-.99-.88-.02-1.74,.66-1.94,1.51-.25,1.05,.39,1.84,1.17,2.45,1.52,1.17,3.7,1.14,5.39,.26,2.13-1.11,3.82-3.48,3.68-5.94-.21-3.93-3.06-6.64-6.93-7.24-4.75-.74-10.23,3.2-10.72,8.09-.53,5.31,1.94,10.65,6.36,13.59,4.91,3.27,10.1,3.07,15.29,.46,5.78-2.91,10.99-7.93,16.28-11.63,2.19-1.53,5.03-3.16,7.82-3.89-.29,5.26,1.09,9,3.49,11.82,1.64,1.94,4.51,3.94,7.19,3.26,3.39-.87,4.57-4.4,3.64-7.49-.26-.87-.55-1.71-.99-2.51-1.12-2.03-4.62-5.87-8.44-6.97,1.32-1.46,4.31-2.33,6.57-2.2,2.8,.16,4.56,.58,7.13,1.66,4.87,2.03,9.38,4.69,13.68,7.8,4.4,3.19,8.75,6.51,14.03,8.31,6.58,2.24,13.69,1.71,19.71-1.87,5.03-2.99,7.3-9.89,5.38-15.3Zm-60.92,9.59c.68,.97,1.11,2.37,1.06,3.61-.06,1.56-1.32,2.61-2.86,1.99-.56-.22-1.14-.57-1.54-1.01-2.26-2.51-3.89-6.42-3.69-10.4,3.04,.98,5.45,3.54,7.03,5.8Z"/>
    <path class="cls-1" d="M176.51,187.04c-5.66-1.59-10.14,.79-14.25,4.07-2.94,2.35-5.26,5.38-7.5,8.43-.29,.4-.51,.81-.68,1.23-.16-.42-.38-.83-.68-1.23-2.23-3.05-4.55-6.08-7.5-8.43-4.11-3.28-8.59-5.66-14.25-4.07-3.37,.95-6.26,3.28-7.43,6.63-.98,2.8-.8,6.22,.8,8.77,.84,1.33,2.12,2.31,3.59,2.84,2.01,.73,5.03,.77,6.81-.51,1.74-1.25,2.81-3.43,2.88-5.56,.07-2.18-1.16-4.79-3.36-5.49-1.29-.41-2.83,.1-3.21,1.48-.38,1.37,.45,2.47,1.71,3.04,1.73,.78,1.83,3.5,.07,4.37-.98,.48-1.94,.54-2.8,.29-1.65-.47-2.96-2.04-3.41-3.91-.39-1.65-.1-3.48,.66-4.98,1.21-2.41,3.64-4.09,6.36-4.18,1.84-.06,4.32,.43,5.96,1.17,5.27,2.37,9.02,6.38,12.03,11.18,.33,.53,1.63,2.77,1.73,2.93,.15,.23,2.58-4.14,3.27-5.1,.91-1.26,1.9-2.47,2.98-3.59,2.18-2.25,4.73-4.12,7.6-5.41,1.64-.74,4.12-1.24,5.96-1.17,2.71,.09,5.15,1.77,6.36,4.18,.75,1.5,1.04,3.34,.66,4.98-.44,1.86-1.75,3.44-3.41,3.91-.86,.24-1.82,.19-2.8-.29-1.77-.87-1.66-3.59,.07-4.37,1.25-.57,2.08-1.67,1.71-3.04-.38-1.38-1.91-1.89-3.21-1.48-2.2,.7-3.43,3.32-3.36,5.49,.07,2.13,1.13,4.31,2.88,5.56,1.78,1.28,4.8,1.23,6.81,.51,1.47-.53,2.75-1.51,3.59-2.84,1.6-2.55,1.78-5.97,.8-8.77-1.17-3.36-4.06-5.69-7.43-6.63Z"/>
  </g>
  <path class="cls-1" d="M171.35,170.73c-.69-8.96-8.25-15.93-17.35-15.77-9.1,.16-16.41,7.4-16.78,16.37-.01,.34-.02,.68-.01,1.02,0,.28,.02,.56,.03,.83,.6,9.04,8.2,16.12,17.36,15.95,9.16-.16,16.51-7.5,16.78-16.56,0-.28,.01-.56,0-.84,0-.34-.02-.68-.05-1.02Zm-31.2-4.37c.74-1.83,1.81-3.48,3.18-4.91,1.38-1.43,2.99-2.56,4.79-3.36,1.87-.83,3.86-1.27,5.92-1.3s4.06,.33,5.96,1.09c1.83,.74,3.48,1.81,4.91,3.18,1.43,1.38,2.55,2.99,3.36,4.79,.69,1.56,1.11,3.2,1.25,4.9l-8.48,.15c-.09-.56-.26-1.1-.49-1.62-.36-.8-.86-1.53-1.5-2.14-.64-.62-1.38-1.1-2.2-1.43-.84-.34-1.74-.5-2.66-.48-.92,.02-1.81,.21-2.64,.58-.8,.36-1.53,.86-2.14,1.5-.62,.64-1.1,1.38-1.43,2.2-.21,.53-.36,1.08-.43,1.64l-8.48,.15c.08-1.7,.44-3.36,1.08-4.94Zm19.14,5.6c0,.28-.01,.56-.05,.84-.06,.38-.16,.75-.3,1.1-.24,.6-.59,1.14-1.04,1.61-.45,.47-.98,.84-1.57,1.1-.6,.27-1.25,.41-1.93,.42s-1.33-.11-1.94-.35c-.6-.24-1.14-.59-1.61-1.04-.47-.45-.84-.98-1.1-1.57-.16-.35-.27-.72-.34-1.09-.05-.27-.08-.55-.08-.83,0-.35,.02-.69,.08-1.02,.06-.32,.15-.62,.27-.92,.24-.6,.59-1.14,1.04-1.61,.45-.47,.98-.84,1.57-1.1,.6-.27,1.25-.41,1.93-.42s1.33,.11,1.94,.35c.6,.24,1.14,.59,1.61,1.04,.47,.45,.84,.98,1.1,1.57,.13,.29,.23,.6,.3,.91,.07,.33,.11,.67,.12,1.02Zm9.18,5.78c-.74,1.83-1.81,3.48-3.18,4.91-1.38,1.43-2.99,2.56-4.79,3.36-1.87,.83-3.86,1.27-5.92,1.3s-4.06-.33-5.96-1.09c-1.83-.74-3.48-1.81-4.91-3.18-1.43-1.38-2.55-2.99-3.36-4.79-.72-1.61-1.14-3.32-1.27-5.08l8.46-.15c.09,.63,.26,1.23,.51,1.81,.36,.8,.86,1.53,1.5,2.14,.64,.62,1.38,1.1,2.2,1.43,.84,.34,1.74,.5,2.66,.48,.92-.02,1.81-.21,2.64-.58,.8-.36,1.53-.86,2.14-1.5,.62-.64,1.1-1.38,1.43-2.2,.24-.58,.39-1.19,.45-1.82l8.46-.15c-.06,1.77-.43,3.49-1.09,5.12Z"/>
</svg>